<?xml version="1.0" encoding="UTF-8"?>
<svg width="1250px" height="550px" viewBox="0 0 2112 901" version="1.1" xmlns="http://www.w3.org/2000/svg" xmlns:xlink="http://www.w3.org/1999/xlink">
    <!-- Generator: Sketch 49.3 (51167) - http://www.bohemiancoding.com/sketch -->
    <title></title>
    <desc>Created with Sketch.</desc>
    <defs>
        <radialGradient cx="1.66103553%" cy="-73.1225439%" fx="1.66103553%" fy="-73.1225439%" r="474.738819%" gradientTransform="translate(0.016610,-0.731225),scale(0.043561,1.000000),rotate(16.829722),translate(-0.016610,0.731225)" id="radialGradient-1">
            <stop stop-color="#FFFFFF" stop-opacity="0.199190444" offset="0%"></stop>
            <stop stop-color="#FFFFFF" stop-opacity="0" offset="100%"></stop>
        </radialGradient>
        <rect id="path-2" x="0" y="848" width="2112" height="92"></rect>
        <radialGradient cx="3.87276374%" cy="0%" fx="3.87276374%" fy="0%" r="190.171271%" gradientTransform="translate(0.038728,0.000000),scale(0.308333,1.000000),rotate(12.280037),translate(-0.038728,-0.000000)" id="radialGradient-3">
            <stop stop-color="#FFFFFF" stop-opacity="0.5" offset="0%"></stop>
            <stop stop-color="#6B4AD5" stop-opacity="0" offset="100%"></stop>
        </radialGradient>
        <rect id="path-4" x="0" y="51" width="240" height="74" rx="12"></rect>
        <rect id="path-5" x="0" y="51" width="240" height="74" rx="12"></rect>
        <filter x="-4.6%" y="-9.5%" width="109.2%" height="129.7%" filterUnits="objectBoundingBox" id="filter-6">
            <feOffset dx="0" dy="4" in="SourceAlpha" result="shadowOffsetOuter1"></feOffset>
            <feGaussianBlur stdDeviation="3" in="shadowOffsetOuter1" result="shadowBlurOuter1"></feGaussianBlur>
            <feComposite in="shadowBlurOuter1" in2="SourceAlpha" operator="out" result="shadowBlurOuter1"></feComposite>
            <feColorMatrix values="0 0 0 0 0   0 0 0 0 0   0 0 0 0 0  0 0 0 0.2 0" type="matrix" in="shadowBlurOuter1"></feColorMatrix>
        </filter>
        <linearGradient x1="50%" y1="103.138076%" x2="50%" y2="1.42247325e-14%" id="linearGradient-7">
            <stop stop-color="#FFA900" offset="0%"></stop>
            <stop stop-color="#FF0000" offset="100%"></stop>
        </linearGradient>
        <path d="M99.1974594,38.159824 C99.0666552,38.4186818 98.9989981,38.7047646 99.0000112,38.9947179 L99.0000112,39.1560625 L99.0128326,39.2969188 C99.0820676,39.629852 99.1692525,39.8296119 99.2949014,40.0037615 C99.4121147,40.232533 99.5871343,40.4267536 99.8026253,40.5671869 L99.476964,40.2777912 L99.6051771,40.4135254 C99.6482174,40.4586498 99.7007729,40.4936426 99.7590328,40.5159664 L99.897503,40.6491397 C99.9744309,40.7003602 100.04623,40.7336535 100.128287,40.7464586 L100.002638,40.7054822 C100.194957,40.8309724 100.425741,40.9103641 100.67191,40.9359744 L100.466769,40.9052421 C100.6565,40.9666521 100.854545,40.9986102 101.053985,41 L101.307847,41 C101.652348,40.9602141 101.983094,40.8419265 102.274574,40.6542617 L119.501288,29.7212487 L136.938271,40.7567027 C137.030584,40.8181673 137.143412,40.8591437 137.261368,40.8796318 L137.115205,40.8412165 L137.243418,40.8847539 L137.422916,40.9410964 L137.592158,40.9769508 C137.659409,40.9847967 137.72703,40.9890711 137.794734,40.9897559 L137.971669,40.9897559 C138.135781,40.9897559 138.305023,40.9692677 138.469135,40.9206082 C138.64977,40.8640452 138.836625,40.8296454 139.02558,40.8181673 L138.669148,40.8617047 C138.867349,40.7974613 139.048692,40.6898426 139.19995,40.5466987 L138.981988,40.7208484 C139.26478,40.5632376 139.514622,40.3528354 139.717931,40.1010804 L139.182,40.5927971 L139.402527,40.4212085 L139.49484,40.3290116 C139.596069,40.2152478 139.674423,40.0830843 139.725624,39.9397359 L139.623053,40.1651061 L139.694853,40.0447379 L139.766652,39.9294918 C139.807143,39.8714925 139.833487,39.8048374 139.84358,39.734854 C139.924757,39.5943939 139.969697,39.4359818 139.974357,39.2738696 C139.974357,39.4096039 139.994871,39.2815527 140,39.1509404 L140,38.9486195 L139.994871,38.8000801 L139.9641,38.6361745 C139.943586,38.5439776 139.930765,38.5158064 139.930765,38.479952 C139.918071,38.4122776 139.891912,38.3478343 139.853837,38.2904362 C139.727013,38.0147118 139.643961,37.7209417 139.607668,37.4196879 L121.378328,1.13765577 C121.023943,0.441487064 120.308891,0.00231547765 119.52693,0.000560959626 C118.731948,-0.0178042988 117.995414,0.416013774 117.626812,1.11972863 L99.1974594,38.159824 Z" id="path-8"></path>
        <filter x="-19.5%" y="-29.3%" width="139.0%" height="139.0%" filterUnits="objectBoundingBox" id="filter-9">
            <feOffset dx="0" dy="-4" in="SourceAlpha" result="shadowOffsetOuter1"></feOffset>
            <feGaussianBlur stdDeviation="2" in="shadowOffsetOuter1" result="shadowBlurOuter1"></feGaussianBlur>
            <feColorMatrix values="0 0 0 0 0   0 0 0 0 0   0 0 0 0 0  0 0 0 0.1 0" type="matrix" in="shadowBlurOuter1"></feColorMatrix>
        </filter>
        <linearGradient x1="50%" y1="0%" x2="50%" y2="100%" id="linearGradient-10">
            <stop stop-color="#1A67C4" offset="0%"></stop>
            <stop stop-color="#0F2978" offset="100%"></stop>
        </linearGradient>
        <rect id="path-11" x="0" y="0" width="120" height="40" rx="4"></rect>
        <filter x="-9.2%" y="-17.5%" width="118.3%" height="155.0%" filterUnits="objectBoundingBox" id="filter-12">
            <feOffset dx="0" dy="4" in="SourceAlpha" result="shadowOffsetOuter1"></feOffset>
            <feGaussianBlur stdDeviation="3" in="shadowOffsetOuter1" result="shadowBlurOuter1"></feGaussianBlur>
            <feColorMatrix values="0 0 0 0 0   0 0 0 0 0   0 0 0 0 0  0 0 0 0.2 0" type="matrix" in="shadowBlurOuter1"></feColorMatrix>
        </filter>
        <linearGradient x1="50%" y1="0%" x2="50%" y2="100%" id="linearGradient-13">
            <stop stop-color="#FAD961" offset="0%"></stop>
            <stop stop-color="#F76B1C" offset="100%"></stop>
        </linearGradient>
        <rect id="path-14" x="20" y="21" width="120" height="40" rx="4"></rect>
        <filter x="-9.2%" y="-17.5%" width="118.3%" height="155.0%" filterUnits="objectBoundingBox" id="filter-15">
            <feOffset dx="0" dy="4" in="SourceAlpha" result="shadowOffsetOuter1"></feOffset>
            <feGaussianBlur stdDeviation="3" in="shadowOffsetOuter1" result="shadowBlurOuter1"></feGaussianBlur>
            <feColorMatrix values="0 0 0 0 0   0 0 0 0 0   0 0 0 0 0  0 0 0 0.2 0" type="matrix" in="shadowBlurOuter1"></feColorMatrix>
        </filter>
        <linearGradient x1="50%" y1="100%" x2="50%" y2="0%" id="linearGradient-16">
            <stop stop-color="#8CFF00" offset="0%"></stop>
            <stop stop-color="#E0FF00" offset="100%"></stop>
        </linearGradient>
        <rect id="path-17" x="20" y="21" width="120" height="40" rx="4"></rect>
        <filter x="-9.2%" y="-17.5%" width="118.3%" height="155.0%" filterUnits="objectBoundingBox" id="filter-18">
            <feOffset dx="0" dy="4" in="SourceAlpha" result="shadowOffsetOuter1"></feOffset>
            <feGaussianBlur stdDeviation="3" in="shadowOffsetOuter1" result="shadowBlurOuter1"></feGaussianBlur>
            <feColorMatrix values="0 0 0 0 0   0 0 0 0 0   0 0 0 0 0  0 0 0 0.2 0" type="matrix" in="shadowBlurOuter1"></feColorMatrix>
        </filter>
        <linearGradient x1="0%" y1="50%" x2="100%" y2="50%" id="linearGradient-19">
            <stop stop-color="#8CFF00" offset="0%"></stop>
            <stop stop-color="#00CFFF" stop-opacity="0" offset="100%"></stop>
        </linearGradient>
    </defs>
    <g id="Page-1" stroke="none" stroke-width="1" fill="none" fill-rule="evenodd">
        <g id="1.事故单位" transform="translate(0.000000, -39.000000)">
            <g id="Group-35-Copy">
                <g id="Rectangle-8">
                    <use fill="#223167" xlink:href="#path-2"></use>
                    <use fill="url(#radialGradient-1)" xlink:href="#path-2"></use>
                </g>
            </g>
            <g id="Group-5-Copy-3" transform="translate(1664.000000, 39.000000)">
                <g id="Group-4" transform="translate(55.000000, 0.000000)">
                    <g id="Rectangle-2-Copy">
                        <use fill="#6848CE" xlink:href="#path-4"></use>
                        <use fill="url(#radialGradient-3)" xlink:href="#path-4"></use>
                    </g>
                    <g id="Rectangle-7">
                        <use fill="black" fill-opacity="1" filter="url(#filter-6)" xlink:href="#path-5"></use>
                        <use fill-opacity="0.2" fill="#FFFFFF" fill-rule="evenodd" xlink:href="#path-5"></use>
                    </g>
                    <g id="Shape" fill-rule="nonzero" transform="translate(119.500000, 20.500000) scale(1, -1) translate(-119.500000, -20.500000) ">
                        <use fill="black" fill-opacity="1" filter="url(#filter-9)" xlink:href="#path-8"></use>
                        <use fill="url(#linearGradient-7)" fill-rule="evenodd" xlink:href="#path-8"></use>
                    </g>
                    <text id="事故单位" font-family="STYuanti-SC-Regular, Yuanti SC" font-size="30" font-weight="normal" fill="#FFFFFF">
                        <tspan x="60" y="99">事故单位</tspan>
                    </text>
                </g>
                <g id="Group-3" transform="translate(0.000000, 155.000000)">
                    <g id="Group" transform="translate(78.000000, 0.000000)">
                        <g id="Group-6" transform="translate(37.000000, 21.000000)">
                            <g id="Rectangle-3-Copy-3">
                                <use fill="black" fill-opacity="1" filter="url(#filter-12)" xlink:href="#path-11"></use>
                                <use fill="url(#linearGradient-10)" fill-rule="evenodd" xlink:href="#path-11"></use>
                            </g>
                            <text id="危化品泄露" font-family="PingFangSC-Regular, PingFang SC" font-size="20" font-weight="normal" fill="#FFFFFF">
                                <tspan x="10" y="26">危化品泄露</tspan>
                            </text>
                        </g>
                        <g id="info-circle" transform="translate(161.000000, 21.000000)" fill-rule="nonzero">
                            <rect id="Rectangle-path" fill="#000000" opacity="0" x="0" y="0" width="16" height="16"></rect>
                            <path d="M8,1 C4.134375,1 1,4.134375 1,8 C1,11.865625 4.134375,15 8,15 C11.865625,15 15,11.865625 15,8 C15,4.134375 11.865625,1 8,1 Z M8,13.8125 C4.790625,13.8125 2.1875,11.209375 2.1875,8 C2.1875,4.790625 4.790625,2.1875 8,2.1875 C11.209375,2.1875 13.8125,4.790625 13.8125,8 C13.8125,11.209375 11.209375,13.8125 8,13.8125 Z" id="Shape" fill="#FFFFFF"></path>
                            <path d="M7.25,5.25 C7.25,5.66421356 7.58578644,6 8,6 C8.41421356,6 8.75,5.66421356 8.75,5.25 C8.75,4.83578644 8.41421356,4.5 8,4.5 C7.58578644,4.5 7.25,4.83578644 7.25,5.25 Z" id="Shape" fill="#FFFFFF"></path>
                            <path d="M8.375,7 L7.625,7 C7.55625,7 7.5,7.05625 7.5,7.125 L7.5,11.375 C7.5,11.44375 7.55625,11.5 7.625,11.5 L8.375,11.5 C8.44375,11.5 8.5,11.44375 8.5,11.375 L8.5,7.125 C8.5,7.05625 8.44375,7 8.375,7 Z" id="Shape" fill="#FFFFFF"></path>
                        </g>
                        <g id="Group-2" transform="translate(0.000000, 63.000000)" fill="#FFFFFF">
                            <path d="M197,27 L200,27 L195,35 L190,27 L193,27 L193,17 L7,17 L7,27 L10,27 L5,35 L0,27 L3,27 L3,17 L3,13 L94,13 L94,0 L98,0 L98,13 L193,13 L197,13 L197,27 Z" id="Combined-Shape"></path>
                        </g>
                        <text id="09:35-AM" font-family="STYuanti-SC-Regular, Yuanti SC" font-size="14" font-weight="normal" fill="#FFFFFF">
                            <tspan x="37.251" y="15">09:35 AM</tspan>
                        </text>
                    </g>
                    <g id="Group-Copy" transform="translate(189.000000, 85.000000)">
                        <g id="Rectangle-3-Copy-3">
                            <use fill="black" fill-opacity="1" filter="url(#filter-15)" xlink:href="#path-14"></use>
                            <use fill="url(#linearGradient-13)" fill-rule="evenodd" xlink:href="#path-14"></use>
                        </g>
                        <g id="reload-time" transform="translate(124.000000, 3.000000)" fill-rule="nonzero">
                            <rect id="Rectangle-path" fill="#000000" opacity="0" x="0" y="0" width="16" height="16"></rect>
                            <path d="M8.3765625,4.265625 L7.625,4.265625 C7.55625,4.265625 7.5,4.321875 7.5,4.390625 L7.5,8.6921875 C7.5,8.7328125 7.51875,8.7703125 7.5515625,8.79375 L10.134375,10.6796875 C10.190625,10.7203125 10.26875,10.709375 10.309375,10.653125 L10.75625,10.04375 C10.7984375,9.9859375 10.7859375,9.9078125 10.7296875,9.86875 L8.5015625,8.2578125 L8.5015625,4.390625 C8.5015625,4.321875 8.4453125,4.265625 8.3765625,4.265625 Z M11.8109375,5.440625 L14.2609375,6.0390625 C14.3390625,6.0578125 14.415625,5.9984375 14.415625,5.91875 L14.428125,3.3953125 C14.428125,3.290625 14.3078125,3.23125 14.2265625,3.296875 L11.7640625,5.2203125 C11.68125,5.2859375 11.709375,5.415625 11.8109375,5.440625 Z M14.43125,10.1453125 L13.5453125,9.840625 C13.48125,9.81875 13.4109375,9.8515625 13.3875,9.915625 C13.3578125,9.9953125 13.3265625,10.0734375 13.29375,10.1515625 C13.015625,10.809375 12.6171875,11.4015625 12.1078125,11.909375 C11.6,12.4171875 11.0078125,12.8171875 10.35,13.0953125 C9.66875,13.3828125 8.9453125,13.5296875 8.1984375,13.5296875 C7.4515625,13.5296875 6.728125,13.384375 6.046875,13.0953125 C5.3890625,12.8171875 4.796875,12.4171875 4.2890625,11.909375 C3.78125,11.4015625 3.3828125,10.809375 3.103125,10.1515625 C2.8171875,9.471875 2.671875,8.746875 2.671875,8 C2.671875,7.253125 2.8171875,6.528125 3.10625,5.846875 C3.384375,5.1890625 3.7828125,4.596875 4.2921875,4.0890625 C4.8,3.58125 5.3921875,3.18125 6.05,2.903125 C6.728125,2.6140625 7.453125,2.46875 8.2,2.46875 C8.946875,2.46875 9.6703125,2.6140625 10.3515625,2.903125 C11.009375,3.18125 11.6015625,3.58125 12.109375,4.0890625 C12.26875,4.25 12.41875,4.4171875 12.55625,4.59375 L13.490625,3.8625 C12.2609375,2.290625 10.346875,1.2796875 8.196875,1.28125 C4.453125,1.2828125 1.446875,4.3234375 1.484375,8.06875 C1.521875,11.7484375 4.5140625,14.71875 8.2,14.71875 C11.0984375,14.71875 13.5671875,12.88125 14.5078125,10.3078125 C14.53125,10.2421875 14.496875,10.16875 14.43125,10.1453125 Z" id="Shape" fill="url(#linearGradient-13)"></path>
                        </g>
                        <g id="info-circle" transform="translate(144.000000, 22.000000)" fill-rule="nonzero">
                            <rect id="Rectangle-path" fill="#000000" opacity="0" x="0" y="0" width="16" height="16"></rect>
                            <path d="M8,1 C4.134375,1 1,4.134375 1,8 C1,11.865625 4.134375,15 8,15 C11.865625,15 15,11.865625 15,8 C15,4.134375 11.865625,1 8,1 Z M8,13.8125 C4.790625,13.8125 2.1875,11.209375 2.1875,8 C2.1875,4.790625 4.790625,2.1875 8,2.1875 C11.209375,2.1875 13.8125,4.790625 13.8125,8 C13.8125,11.209375 11.209375,13.8125 8,13.8125 Z" id="Shape" fill="#FFFFFF"></path>
                            <path d="M7.25,5.25 C7.25,5.66421356 7.58578644,6 8,6 C8.41421356,6 8.75,5.66421356 8.75,5.25 C8.75,4.83578644 8.41421356,4.5 8,4.5 C7.58578644,4.5 7.25,4.83578644 7.25,5.25 Z" id="Shape" fill="#FFFFFF"></path>
                            <path d="M8.375,7 L7.625,7 C7.55625,7 7.5,7.05625 7.5,7.125 L7.5,11.375 C7.5,11.44375 7.55625,11.5 7.625,11.5 L8.375,11.5 C8.44375,11.5 8.5,11.44375 8.5,11.375 L8.5,7.125 C8.5,7.05625 8.44375,7 8.375,7 Z" id="Shape" fill="#FFFFFF"></path>
                        </g>
                        <g id="message" transform="translate(0.000000, 45.000000)" fill-rule="nonzero">
                            <rect id="Rectangle-path" fill="#000000" opacity="0" x="0" y="0" width="16" height="16"></rect>
                            <path d="M7.25,8 C7.25,8.41421356 7.58578644,8.75 8,8.75 C8.41421356,8.75 8.75,8.41421356 8.75,8 C8.75,7.58578644 8.41421356,7.25 8,7.25 C7.58578644,7.25 7.25,7.58578644 7.25,8 Z M10.375,8 C10.375,8.41421356 10.7107864,8.75 11.125,8.75 C11.5392136,8.75 11.875,8.41421356 11.875,8 C11.875,7.58578644 11.5392136,7.25 11.125,7.25 C10.7107864,7.25 10.375,7.58578644 10.375,8 Z M4.125,8 C4.125,8.41421356 4.46078644,8.75 4.875,8.75 C5.28921356,8.75 5.625,8.41421356 5.625,8 C5.625,7.58578644 5.28921356,7.25 4.875,7.25 C4.46078644,7.25 4.125,7.58578644 4.125,8 Z M14.45625,5.2875 C14.103125,4.4484375 13.596875,3.6953125 12.9515625,3.0484375 C12.30625,2.403125 11.553125,1.8953125 10.7125,1.54375 C9.853125,1.1828125 8.940625,1 8,1 L7.96875,1 C7.021875,1.0046875 6.1046875,1.1921875 5.2421875,1.5609375 C4.409375,1.9171875 3.6625,2.4234375 3.0234375,3.06875 C2.384375,3.7140625 1.8828125,4.4640625 1.5359375,5.3 C1.1765625,6.165625 0.9953125,7.0859375 1,8.0328125 C1.0046875,9.1171875 1.2640625,10.19375 1.75,11.15625 L1.75,13.53125 C1.75,13.928125 2.071875,14.25 2.46875,14.25 L4.8453125,14.25 C5.8078125,14.7359375 6.884375,14.9953125 7.96875,15 L8.0015625,15 C8.9375,15 9.8453125,14.81875 10.7,14.4640625 C11.5359375,14.115625 12.2875,13.615625 12.93125,12.9765625 C13.5765625,12.3375 14.084375,11.590625 14.4390625,10.7578125 C14.8078125,9.8953125 14.9953125,8.978125 15,8.03125 C15.0046875,7.0796875 14.8203125,6.15625 14.45625,5.2875 Z M12.0953125,12.13125 C11,13.215625 9.546875,13.8125 8,13.8125 L7.9734375,13.8125 C7.03125,13.8078125 6.0953125,13.5734375 5.26875,13.1328125 L5.1375,13.0625 L2.9375,13.0625 L2.9375,10.8625 L2.8671875,10.73125 C2.4265625,9.9046875 2.1921875,8.96875 2.1875,8.0265625 C2.18125,6.46875 2.7765625,5.00625 3.86875,3.9046875 C4.959375,2.803125 6.4171875,2.19375 7.975,2.1875 L8.0015625,2.1875 C8.7828125,2.1875 9.540625,2.3390625 10.2546875,2.6390625 C10.9515625,2.93125 11.5765625,3.3515625 12.1140625,3.8890625 C12.65,4.425 13.071875,5.0515625 13.3640625,5.7484375 C13.6671875,6.4703125 13.81875,7.2359375 13.815625,8.0265625 C13.80625,9.5828125 13.1953125,11.040625 12.0953125,12.13125 Z" id="Shape" fill="url(#linearGradient-16)"></path>
                        </g>
                        <text id="09:37-AM" font-family="STYuanti-SC-Regular, Yuanti SC" font-size="14" font-weight="normal" fill="#FFFFFF">
                            <tspan x="20.398" y="15">09:37 AM</tspan>
                        </text>
                        <text id="先期处置" font-family="PingFangSC-Regular, PingFang SC" font-size="20" font-weight="normal" fill="#FFFFFF">
                            <tspan x="40" y="47">先期处置</tspan>
                        </text>
                    </g>
                    <g id="Group-Copy-6" transform="translate(0.000000, 85.000000)">
                        <g id="Rectangle-3-Copy-3">
                            <use fill="black" fill-opacity="1" filter="url(#filter-18)" xlink:href="#path-17"></use>
                            <use fill="url(#linearGradient-10)" fill-rule="evenodd" xlink:href="#path-17"></use>
                        </g>
                        <g id="message" transform="translate(0.000000, 45.000000)" fill-rule="nonzero">
                            <rect id="Rectangle-path" fill="#000000" opacity="0" x="0" y="0" width="16" height="16"></rect>
                            <path d="M7.25,8 C7.25,8.41421356 7.58578644,8.75 8,8.75 C8.41421356,8.75 8.75,8.41421356 8.75,8 C8.75,7.58578644 8.41421356,7.25 8,7.25 C7.58578644,7.25 7.25,7.58578644 7.25,8 Z M10.375,8 C10.375,8.41421356 10.7107864,8.75 11.125,8.75 C11.5392136,8.75 11.875,8.41421356 11.875,8 C11.875,7.58578644 11.5392136,7.25 11.125,7.25 C10.7107864,7.25 10.375,7.58578644 10.375,8 Z M4.125,8 C4.125,8.41421356 4.46078644,8.75 4.875,8.75 C5.28921356,8.75 5.625,8.41421356 5.625,8 C5.625,7.58578644 5.28921356,7.25 4.875,7.25 C4.46078644,7.25 4.125,7.58578644 4.125,8 Z M14.45625,5.2875 C14.103125,4.4484375 13.596875,3.6953125 12.9515625,3.0484375 C12.30625,2.403125 11.553125,1.8953125 10.7125,1.54375 C9.853125,1.1828125 8.940625,1 8,1 L7.96875,1 C7.021875,1.0046875 6.1046875,1.1921875 5.2421875,1.5609375 C4.409375,1.9171875 3.6625,2.4234375 3.0234375,3.06875 C2.384375,3.7140625 1.8828125,4.4640625 1.5359375,5.3 C1.1765625,6.165625 0.9953125,7.0859375 1,8.0328125 C1.0046875,9.1171875 1.2640625,10.19375 1.75,11.15625 L1.75,13.53125 C1.75,13.928125 2.071875,14.25 2.46875,14.25 L4.8453125,14.25 C5.8078125,14.7359375 6.884375,14.9953125 7.96875,15 L8.0015625,15 C8.9375,15 9.8453125,14.81875 10.7,14.4640625 C11.5359375,14.115625 12.2875,13.615625 12.93125,12.9765625 C13.5765625,12.3375 14.084375,11.590625 14.4390625,10.7578125 C14.8078125,9.8953125 14.9953125,8.978125 15,8.03125 C15.0046875,7.0796875 14.8203125,6.15625 14.45625,5.2875 Z M12.0953125,12.13125 C11,13.215625 9.546875,13.8125 8,13.8125 L7.9734375,13.8125 C7.03125,13.8078125 6.0953125,13.5734375 5.26875,13.1328125 L5.1375,13.0625 L2.9375,13.0625 L2.9375,10.8625 L2.8671875,10.73125 C2.4265625,9.9046875 2.1921875,8.96875 2.1875,8.0265625 C2.18125,6.46875 2.7765625,5.00625 3.86875,3.9046875 C4.959375,2.803125 6.4171875,2.19375 7.975,2.1875 L8.0015625,2.1875 C8.7828125,2.1875 9.540625,2.3390625 10.2546875,2.6390625 C10.9515625,2.93125 11.5765625,3.3515625 12.1140625,3.8890625 C12.65,4.425 13.071875,5.0515625 13.3640625,5.7484375 C13.6671875,6.4703125 13.81875,7.2359375 13.815625,8.0265625 C13.80625,9.5828125 13.1953125,11.040625 12.0953125,12.13125 Z" id="Shape" fill="url(#linearGradient-16)"></path>
                        </g>
                        <g id="info-circle" transform="translate(144.000000, 21.000000)" fill-rule="nonzero">
                            <rect id="Rectangle-path" fill="#000000" opacity="0" x="0" y="0" width="16" height="16"></rect>
                            <path d="M8,1 C4.134375,1 1,4.134375 1,8 C1,11.865625 4.134375,15 8,15 C11.865625,15 15,11.865625 15,8 C15,4.134375 11.865625,1 8,1 Z M8,13.8125 C4.790625,13.8125 2.1875,11.209375 2.1875,8 C2.1875,4.790625 4.790625,2.1875 8,2.1875 C11.209375,2.1875 13.8125,4.790625 13.8125,8 C13.8125,11.209375 11.209375,13.8125 8,13.8125 Z" id="Shape" fill="#FFFFFF"></path>
                            <path d="M7.25,5.25 C7.25,5.66421356 7.58578644,6 8,6 C8.41421356,6 8.75,5.66421356 8.75,5.25 C8.75,4.83578644 8.41421356,4.5 8,4.5 C7.58578644,4.5 7.25,4.83578644 7.25,5.25 Z" id="Shape" fill="#FFFFFF"></path>
                            <path d="M8.375,7 L7.625,7 C7.55625,7 7.5,7.05625 7.5,7.125 L7.5,11.375 C7.5,11.44375 7.55625,11.5 7.625,11.5 L8.375,11.5 C8.44375,11.5 8.5,11.44375 8.5,11.375 L8.5,7.125 C8.5,7.05625 8.44375,7 8.375,7 Z" id="Shape" fill="#FFFFFF"></path>
                        </g>
                        <text id="09:37-AM" font-family="STYuanti-SC-Regular, Yuanti SC" font-size="14" font-weight="normal" fill="#FFFFFF">
                            <tspan x="20.398" y="15">09:37 AM</tspan>
                        </text>
                        <text id="信息上报" font-family="PingFangSC-Regular, PingFang SC" font-size="20" font-weight="normal" fill="#FFFFFF">
                            <tspan x="40" y="47">信息上报</tspan>
                        </text>
                    </g>
                </g>
            </g>
            <g id="arrow-left" transform="translate(1792.000000, 867.000000)" fill="url(#linearGradient-19)" fill-rule="nonzero">
                <path d="M92.9205161,30.1074286 C92.9205161,31.3691429 92.5334684,32.4464762 91.7593732,33.3394286 C90.9852779,34.2323809 89.9795636,34.6788571 88.7422303,34.6788571 L23.2502857,34.6788571 L33.7142857,45.1794286 C34.6194286,46.0358095 35.072,47.1070476 35.072,48.3931429 C35.072,49.6792381 34.6194286,50.7504762 33.7142857,51.6068572 L31.0354286,54.3222857 C30.1546666,55.2030477 29.0834285,55.6434286 27.8217142,55.6434286 C26.5843809,55.6434286 25.5009524,55.2030477 24.5714286,54.3222857 L1.32114287,31.0354286 C0.440380958,30.1546667 0,29.0834286 0,27.8217143 C0,26.584381 0.440380958,25.5009524 1.32114287,24.5714286 L24.5714286,1.35771431 C25.4765714,0.452571437 26.56,0 27.8217142,0 C29.0590476,0 30.1302857,0.452571437 31.0354286,1.35771431 L33.7142857,4 C34.6194286,4.90514288 35.072,5.98857144 35.072,7.25028569 C35.072,8.51199994 34.6194286,9.5954285 33.7142857,10.5005714 L23.2502857,20.9645714 L88.7422303,20.9645714 C89.9795636,20.9645714 90.9852779,21.4110476 91.7593732,22.3039999 C92.5334684,23.1969523 92.9205161,24.2742856 92.9205161,25.5359999 L92.9205161,30.1074286 Z" id="Shape"></path>
            </g>
            <path d="M1855.52,767.12 C1858.16001,767.12 1860.40999,767.709994 1862.27,768.89 C1864.13001,770.070006 1865.63999,771.64999 1866.8,773.63 C1867.96001,775.61001 1868.8,777.899987 1869.32,780.5 C1869.84,783.100013 1870.1,785.839986 1870.1,788.72 C1870.1,791.600014 1869.8,794.339987 1869.2,796.94 C1868.6,799.540013 1867.70001,801.81999 1866.5,803.78 C1865.29999,805.74001 1863.78001,807.299994 1861.94,808.46 C1860.09999,809.620006 1857.94001,810.2 1855.46,810.2 C1852.97999,810.2 1850.83001,809.630006 1849.01,808.49 C1847.18999,807.349994 1845.68001,805.81001 1844.48,803.87 C1843.27999,801.92999 1842.39,799.670013 1841.81,797.09 C1841.23,794.509987 1840.94,791.780014 1840.94,788.9 C1840.94,786.019986 1841.21,783.260013 1841.75,780.62 C1842.29,777.979987 1843.13999,775.66001 1844.3,773.66 C1845.46001,771.65999 1846.96999,770.070006 1848.83,768.89 C1850.69001,767.709994 1852.91999,767.12 1855.52,767.12 Z M1855.52,802.64 C1856.80001,802.64 1857.89,802.230004 1858.79,801.41 C1859.69,800.589996 1860.41,799.520007 1860.95,798.2 C1861.49,796.879993 1861.88,795.400008 1862.12,793.76 C1862.36,792.119992 1862.48,790.460008 1862.48,788.78 C1862.48,787.059991 1862.36,785.310009 1862.12,783.53 C1861.88,781.749991 1861.48,780.140007 1860.92,778.7 C1860.36,777.259993 1859.64,776.090004 1858.76,775.19 C1857.88,774.289996 1856.80001,773.84 1855.52,773.84 C1854.23999,773.84 1853.16,774.289996 1852.28,775.19 C1851.4,776.090004 1850.68,777.259993 1850.12,778.7 C1849.56,780.140007 1849.15,781.749991 1848.89,783.53 C1848.63,785.310009 1848.5,787.099991 1848.5,788.9 C1848.5,790.580008 1848.62,792.249992 1848.86,793.91 C1849.1,795.570008 1849.5,797.039994 1850.06,798.32 C1850.62,799.600006 1851.34,800.639996 1852.22,801.44 C1853.1,802.240004 1854.19999,802.64 1855.52,802.64 Z M1890.08,795.26 C1889.64,795.460001 1889.28,795.58 1889,795.62 C1888.72,795.66 1888.44,795.68 1888.16,795.68 C1886.07999,795.68 1884.22001,795.330003 1882.58,794.63 C1880.93999,793.929997 1879.55001,792.950006 1878.41,791.69 C1877.26999,790.429994 1876.4,788.930009 1875.8,787.19 C1875.2,785.449991 1874.9,783.520011 1874.9,781.4 C1874.9,779.679991 1875.2,777.960009 1875.8,776.24 C1876.4,774.519991 1877.26999,772.990007 1878.41,771.65 C1879.55001,770.309993 1880.93999,769.220004 1882.58,768.38 C1884.22001,767.539996 1886.09999,767.12 1888.22,767.12 C1890.30001,767.12 1892.15999,767.519996 1893.8,768.32 C1895.44001,769.120004 1896.80999,770.179993 1897.91,771.5 C1899.01001,772.820007 1899.85,774.339991 1900.43,776.06 C1901.01,777.780009 1901.3,779.559991 1901.3,781.4 C1901.3,783.920013 1900.97,786.479987 1900.31,789.08 C1899.65,791.680013 1898.71001,794.189988 1897.49,796.61 C1896.26999,799.030012 1894.81001,801.299989 1893.11,803.42 C1891.40999,805.540011 1889.54001,807.379992 1887.5,808.94 C1886.37999,809.740004 1885.4,810.16 1884.56,810.2 C1883.72,810.24 1882.86,809.820004 1881.98,808.94 C1881.42,808.299997 1881.09,807.570004 1880.99,806.75 C1880.89,805.929996 1881.24,805.240003 1882.04,804.68 C1883.64001,803.519994 1885.07999,802.250007 1886.36,800.87 C1887.64001,799.489993 1888.87999,797.620012 1890.08,795.26 Z M1888.22,773.84 C1887.26,773.84 1886.41,774.059998 1885.67,774.5 C1884.93,774.940002 1884.3,775.509996 1883.78,776.21 C1883.26,776.910004 1882.86,777.709995 1882.58,778.61 C1882.3,779.510005 1882.16,780.439995 1882.16,781.4 C1882.16,783.840012 1882.67999,785.709993 1883.72,787.01 C1884.76001,788.310006 1886.23999,788.96 1888.16,788.96 C1890.08001,788.96 1891.54,788.310006 1892.54,787.01 C1893.54001,785.709993 1894.04,783.840012 1894.04,781.4 C1894.04,780.439995 1893.91,779.510005 1893.65,778.61 C1893.39,777.709995 1893.01,776.910004 1892.51,776.21 C1892.01,775.509996 1891.4,774.940002 1890.68,774.5 C1889.96,774.059998 1889.14,773.84 1888.22,773.84 Z M1908.02,805.46 C1908.02,804.299994 1908.41,803.330004 1909.19,802.55 C1909.97,801.769996 1910.93999,801.38 1912.1,801.38 C1913.26001,801.38 1914.23,801.769996 1915.01,802.55 C1915.79,803.330004 1916.18,804.299994 1916.18,805.46 C1916.18,806.620006 1915.79,807.589996 1915.01,808.37 C1914.23,809.150004 1913.26001,809.54 1912.1,809.54 C1910.93999,809.54 1909.97,809.150004 1909.19,808.37 C1908.41,807.589996 1908.02,806.620006 1908.02,805.46 Z M1908.02,783.8 C1908.02,782.639994 1908.41,781.670004 1909.19,780.89 C1909.97,780.109996 1910.93999,779.72 1912.1,779.72 C1913.26001,779.72 1914.23,780.109996 1915.01,780.89 C1915.79,781.670004 1916.18,782.639994 1916.18,783.8 C1916.18,784.960006 1915.79,785.929996 1915.01,786.71 C1914.23,787.490004 1913.26001,787.88 1912.1,787.88 C1910.93999,787.88 1909.97,787.490004 1909.19,786.71 C1908.41,785.929996 1908.02,784.960006 1908.02,783.8 Z M1940.6,787.64 C1941.80001,787.72 1942.98999,787.999998 1944.17,788.48 C1945.35001,788.960002 1946.4,789.619996 1947.32,790.46 C1948.24,791.300004 1948.99,792.329994 1949.57,793.55 C1950.15,794.770006 1950.44,796.159992 1950.44,797.72 C1950.44,799.64001 1950.1,801.369992 1949.42,802.91 C1948.74,804.450008 1947.80001,805.759995 1946.6,806.84 C1945.39999,807.920005 1943.96001,808.749997 1942.28,809.33 C1940.59999,809.910003 1938.76001,810.2 1936.76,810.2 C1934.43999,810.2 1932.45001,809.810004 1930.79,809.03 C1929.12999,808.249996 1927.77001,807.290006 1926.71,806.15 C1925.64999,805.009994 1924.88,803.800006 1924.4,802.52 C1923.92,801.239994 1923.7,800.080005 1923.74,799.04 C1923.78,797.999995 1924.14,797.180003 1924.82,796.58 C1925.5,795.979997 1926.3,795.68 1927.22,795.68 C1927.58,795.68 1927.96,795.729999 1928.36,795.83 C1928.76,795.930001 1929.14,796.099999 1929.5,796.34 C1929.86,796.580001 1930.17,796.889998 1930.43,797.27 C1930.69,797.650002 1930.84,798.139997 1930.88,798.74 C1930.92,799.220002 1931.06,799.749997 1931.3,800.33 C1931.54,800.910003 1931.9,801.449997 1932.38,801.95 C1932.86,802.450002 1933.49,802.869998 1934.27,803.21 C1935.05,803.550002 1935.99999,803.72 1937.12,803.72 C1937.96,803.72 1938.75,803.550002 1939.49,803.21 C1940.23,802.869998 1940.87,802.420003 1941.41,801.86 C1941.95,801.299997 1942.37,800.630004 1942.67,799.85 C1942.97,799.069996 1943.12,798.260004 1943.12,797.42 C1943.12,796.379995 1942.9,795.480004 1942.46,794.72 C1942.02,793.959996 1941.44,793.340002 1940.72,792.86 C1940,792.379998 1939.19,792.030001 1938.29,791.81 C1937.39,791.589999 1936.46,791.48 1935.5,791.48 C1934.58,791.48 1933.74,791.160003 1932.98,790.52 C1932.22,789.879997 1931.84,788.920006 1931.84,787.64 C1931.84,786.639995 1932.16,785.820003 1932.8,785.18 C1933.44,784.539997 1934.25999,784.22 1935.26,784.22 C1935.98,784.22 1936.69,784.060002 1937.39,783.74 C1938.09,783.419998 1938.71,782.990003 1939.25,782.45 C1939.79,781.909997 1940.22,781.290004 1940.54,780.59 C1940.86,779.889997 1941.02,779.180004 1941.02,778.46 C1941.02,776.939992 1940.55,775.690005 1939.61,774.71 C1938.67,773.729995 1937.62001,773.24 1936.46,773.24 C1935.01999,773.24 1933.88,773.729995 1933.04,774.71 C1932.2,775.690005 1931.78,776.879993 1931.78,778.28 C1931.78,779.080004 1931.47,779.769997 1930.85,780.35 C1930.23,780.930003 1929.28001,781.22 1928,781.22 C1927.16,781.22 1926.45,780.900003 1925.87,780.26 C1925.29,779.619997 1925,778.780005 1925,777.74 C1925,776.139992 1925.3,774.690006 1925.9,773.39 C1926.5,772.089993 1927.32999,770.970005 1928.39,770.03 C1929.45001,769.089995 1930.67999,768.370003 1932.08,767.87 C1933.48001,767.369997 1934.97999,767.12 1936.58,767.12 C1938.14001,767.12 1939.61999,767.319998 1941.02,767.72 C1942.42001,768.120002 1943.65999,768.739996 1944.74,769.58 C1945.82001,770.420004 1946.67,771.489993 1947.29,772.79 C1947.91,774.090006 1948.22,775.619991 1948.22,777.38 C1948.22,778.780007 1948.01,780.019995 1947.59,781.1 C1947.17,782.180005 1946.62,783.139996 1945.94,783.98 C1945.26,784.820004 1944.45,785.539997 1943.51,786.14 C1942.57,786.740003 1941.60001,787.239998 1940.6,787.64 Z M1976.36,786.38 C1978.64001,787.420005 1980.36999,788.869991 1981.55,790.73 C1982.73001,792.590009 1983.32,794.679988 1983.32,797 C1983.32,798.92001 1983.01,800.689992 1982.39,802.31 C1981.77,803.930008 1980.89001,805.329994 1979.75,806.51 C1978.60999,807.690006 1977.22001,808.599997 1975.58,809.24 C1973.93999,809.880003 1972.10001,810.2 1970.06,810.2 C1968.01999,810.2 1966.18001,809.890003 1964.54,809.27 C1962.89999,808.649997 1961.51001,807.770006 1960.37,806.63 C1959.22999,805.489994 1958.36,804.100008 1957.76,802.46 C1957.16,800.819992 1956.86,799.00001 1956.86,797 C1956.86,794.839989 1957.46999,792.78001 1958.69,790.82 C1959.91001,788.85999 1961.67999,787.400005 1964,786.44 C1962.31999,785.559996 1961.02,784.360008 1960.1,782.84 C1959.18,781.319992 1958.72,779.660009 1958.72,777.86 C1958.72,776.259992 1959,774.790007 1959.56,773.45 C1960.12,772.109993 1960.90999,770.980005 1961.93,770.06 C1962.95001,769.139995 1964.16999,768.420003 1965.59,767.9 C1967.01001,767.379997 1968.55999,767.12 1970.24,767.12 C1973.76002,767.12 1976.49999,768.08999 1978.46,770.03 C1980.42001,771.97001 1981.4,774.639983 1981.4,778.04 C1981.4,779.600008 1980.95,781.159992 1980.05,782.72 C1979.15,784.280008 1977.92001,785.499996 1976.36,786.38 Z M1970.18,783.02 C1971.38001,783.02 1972.37,782.570004 1973.15,781.67 C1973.93,780.769996 1974.32,779.620007 1974.32,778.22 C1974.32,776.859993 1973.92,775.690005 1973.12,774.71 C1972.32,773.729995 1971.30001,773.24 1970.06,773.24 C1968.85999,773.24 1967.86,773.709995 1967.06,774.65 C1966.26,775.590005 1965.86,776.799993 1965.86,778.28 C1965.86,779.720007 1966.24,780.869996 1967,781.73 C1967.76,782.590004 1968.81999,783.02 1970.18,783.02 Z M1970.06,803.66 C1971.98001,803.66 1973.48999,802.980007 1974.59,801.62 C1975.69001,800.259993 1976.24,798.500011 1976.24,796.34 C1976.24,795.459996 1976.07,794.610004 1975.73,793.79 C1975.39,792.969996 1974.93,792.250003 1974.35,791.63 C1973.77,791.009997 1973.1,790.520002 1972.34,790.16 C1971.58,789.799998 1970.78,789.62 1969.94,789.62 C1969.06,789.62 1968.25,789.799998 1967.51,790.16 C1966.77,790.520002 1966.13,791.019997 1965.59,791.66 C1965.05,792.300003 1964.63,793.039996 1964.33,793.88 C1964.03,794.720004 1963.88,795.619995 1963.88,796.58 C1963.88,798.66001 1964.42999,800.359993 1965.53,801.68 C1966.63001,803.000007 1968.13999,803.66 1970.06,803.66 Z M2011.7,798.44 L2009.24,805.34 C2009.04,805.900003 2008.84,806.439997 2008.64,806.96 C2008.44,807.480003 2008.21,807.959998 2007.95,808.4 C2007.69,808.840002 2007.39,809.189999 2007.05,809.45 C2006.71,809.710001 2006.32,809.84 2005.88,809.84 C2005.08,809.84 2004.46,809.590002 2004.02,809.09 C2003.58,808.589997 2003.58,807.660007 2004.02,806.3 L2016.62,769.64 C2016.82,768.999997 2017.17,768.490002 2017.67,768.11 C2018.17,767.729998 2018.82,767.54 2019.62,767.54 C2020.46,767.54 2021.14,767.729998 2021.66,768.11 C2022.18,768.490002 2022.54,768.999997 2022.74,769.64 L2035.4,806.42 C2035.72,807.380005 2035.74,808.189997 2035.46,808.85 C2035.18,809.510003 2034.52001,809.84 2033.48,809.84 C2032.8,809.88 2032.25,809.690002 2031.83,809.27 C2031.41,808.849998 2031.1,808.300003 2030.9,807.62 L2027.6,798.44 L2011.7,798.44 Z M2026.52,794.24 L2019.68,773.66 L2012.84,794.24 L2026.52,794.24 Z M2083.82,806.42 C2083.94,807.260004 2083.91,808.029997 2083.73,808.73 C2083.55,809.430003 2082.90001,809.8 2081.78,809.84 C2081.06,809.84 2080.54,809.630002 2080.22,809.21 C2079.9,808.789998 2079.66,808.080005 2079.5,807.08 L2076.02,783.14 C2075.9,782.379996 2075.75,781.440006 2075.57,780.32 C2075.39,779.199994 2075.19,778.230004 2074.97,777.41 C2074.75,776.589996 2074.51,776.060001 2074.25,775.82 C2073.99,775.579999 2073.72,775.939995 2073.44,776.9 L2064.5,807.68 C2064.3,808.440004 2064.05,808.989998 2063.75,809.33 C2063.45,809.670002 2062.98,809.84 2062.34,809.84 C2061.66,809.84 2061.18,809.690001 2060.9,809.39 C2060.62,809.089998 2060.36,808.520004 2060.12,807.68 C2058.59999,802.519974 2057.07001,797.400025 2055.53,792.32 C2053.98999,787.239975 2052.50001,782.120026 2051.06,776.96 C2050.78,775.999995 2050.49,775.52 2050.19,775.52 C2049.89,775.52 2049.66,775.999995 2049.5,776.96 L2045.06,806.96 C2044.94,807.880005 2044.71,808.589997 2044.37,809.09 C2044.03,809.590002 2043.4,809.84 2042.48,809.84 C2040.95999,809.84 2040.38,808.84001 2040.74,806.84 L2046.2,771.14 C2046.36,769.939994 2046.75,769.040003 2047.37,768.44 C2047.99,767.839997 2048.79999,767.54 2049.8,767.54 C2050.80001,767.54 2051.63,767.799997 2052.29,768.32 C2052.95,768.840003 2053.48,769.759993 2053.88,771.08 L2062.4,801.14 L2070.74,771.02 C2071.1,769.739994 2071.61,768.840003 2072.27,768.32 C2072.93,767.799997 2073.74,767.54 2074.7,767.54 C2075.66,767.54 2076.47,767.839997 2077.13,768.44 C2077.79,769.040003 2078.22,769.959994 2078.42,771.2 L2083.82,806.42 Z" id="09:38-AM" fill="#FFFFFF"></path>
        </g>
    </g>
</svg>