<?xml version="1.0" encoding="UTF-8"?>
<svg width="1250px" height="550px" viewBox="0 0 2112 901" version="1.1" xmlns="http://www.w3.org/2000/svg" xmlns:xlink="http://www.w3.org/1999/xlink">
    <!-- Generator: Sketch 49.3 (51167) - http://www.bohemiancoding.com/sketch -->
    <title></title>
    <desc>Created with Sketch.</desc>
    <defs>
        <radialGradient cx="1.66103553%" cy="-73.1225439%" fx="1.66103553%" fy="-73.1225439%" r="474.738819%" gradientTransform="translate(0.016610,-0.731225),scale(0.043561,1.000000),rotate(16.829722),translate(-0.016610,0.731225)" id="radialGradient-1">
            <stop stop-color="#FFFFFF" stop-opacity="0.199190444" offset="0%"></stop>
            <stop stop-color="#FFFFFF" stop-opacity="0" offset="100%"></stop>
        </radialGradient>
        <rect id="path-2" x="0" y="848" width="2112" height="92"></rect>
        <radialGradient cx="3.87276374%" cy="0%" fx="3.87276374%" fy="0%" r="190.171271%" gradientTransform="translate(0.038728,0.000000),scale(0.308333,1.000000),rotate(12.280037),translate(-0.038728,-0.000000)" id="radialGradient-3">
            <stop stop-color="#FFFFFF" stop-opacity="0.5" offset="0%"></stop>
            <stop stop-color="#6B4AD5" stop-opacity="0" offset="100%"></stop>
        </radialGradient>
        <rect id="path-4" x="0" y="0" width="240" height="74" rx="12"></rect>
        <rect id="path-5" x="0" y="0" width="240" height="74" rx="12"></rect>
        <filter x="-4.6%" y="-9.5%" width="109.2%" height="129.7%" filterUnits="objectBoundingBox" id="filter-6">
            <feOffset dx="0" dy="4" in="SourceAlpha" result="shadowOffsetOuter1"></feOffset>
            <feGaussianBlur stdDeviation="3" in="shadowOffsetOuter1" result="shadowBlurOuter1"></feGaussianBlur>
            <feComposite in="shadowBlurOuter1" in2="SourceAlpha" operator="out" result="shadowBlurOuter1"></feComposite>
            <feColorMatrix values="0 0 0 0 0   0 0 0 0 0   0 0 0 0 0  0 0 0 0.2 0" type="matrix" in="shadowBlurOuter1"></feColorMatrix>
        </filter>
        <linearGradient x1="50%" y1="0%" x2="50%" y2="100%" id="linearGradient-7">
            <stop stop-color="#1A67C4" offset="0%"></stop>
            <stop stop-color="#0F2978" offset="100%"></stop>
        </linearGradient>
        <rect id="path-8" x="0" y="0" width="120" height="40" rx="4"></rect>
        <filter x="-9.2%" y="-17.5%" width="118.3%" height="155.0%" filterUnits="objectBoundingBox" id="filter-9">
            <feOffset dx="0" dy="4" in="SourceAlpha" result="shadowOffsetOuter1"></feOffset>
            <feGaussianBlur stdDeviation="3" in="shadowOffsetOuter1" result="shadowBlurOuter1"></feGaussianBlur>
            <feColorMatrix values="0 0 0 0 0   0 0 0 0 0   0 0 0 0 0  0 0 0 0.2 0" type="matrix" in="shadowBlurOuter1"></feColorMatrix>
        </filter>
        <rect id="path-10" x="20" y="21" width="120" height="40" rx="4"></rect>
        <filter x="-9.2%" y="-17.5%" width="118.3%" height="155.0%" filterUnits="objectBoundingBox" id="filter-11">
            <feOffset dx="0" dy="4" in="SourceAlpha" result="shadowOffsetOuter1"></feOffset>
            <feGaussianBlur stdDeviation="3" in="shadowOffsetOuter1" result="shadowBlurOuter1"></feGaussianBlur>
            <feColorMatrix values="0 0 0 0 0   0 0 0 0 0   0 0 0 0 0  0 0 0 0.2 0" type="matrix" in="shadowBlurOuter1"></feColorMatrix>
        </filter>
        <linearGradient x1="50%" y1="100%" x2="50%" y2="0%" id="linearGradient-12">
            <stop stop-color="#8CFF00" offset="0%"></stop>
            <stop stop-color="#E0FF00" offset="100%"></stop>
        </linearGradient>
        <rect id="path-13" x="20" y="21" width="120" height="40" rx="4"></rect>
        <filter x="-9.2%" y="-17.5%" width="118.3%" height="155.0%" filterUnits="objectBoundingBox" id="filter-14">
            <feOffset dx="0" dy="4" in="SourceAlpha" result="shadowOffsetOuter1"></feOffset>
            <feGaussianBlur stdDeviation="3" in="shadowOffsetOuter1" result="shadowBlurOuter1"></feGaussianBlur>
            <feColorMatrix values="0 0 0 0 0   0 0 0 0 0   0 0 0 0 0  0 0 0 0.2 0" type="matrix" in="shadowBlurOuter1"></feColorMatrix>
        </filter>
        <rect id="path-15" x="0" y="51" width="240" height="74" rx="12"></rect>
        <rect id="path-16" x="0" y="51" width="240" height="74" rx="12"></rect>
        <filter x="-4.6%" y="-9.5%" width="109.2%" height="129.7%" filterUnits="objectBoundingBox" id="filter-17">
            <feOffset dx="0" dy="4" in="SourceAlpha" result="shadowOffsetOuter1"></feOffset>
            <feGaussianBlur stdDeviation="3" in="shadowOffsetOuter1" result="shadowBlurOuter1"></feGaussianBlur>
            <feComposite in="shadowBlurOuter1" in2="SourceAlpha" operator="out" result="shadowBlurOuter1"></feComposite>
            <feColorMatrix values="0 0 0 0 0   0 0 0 0 0   0 0 0 0 0  0 0 0 0.2 0" type="matrix" in="shadowBlurOuter1"></feColorMatrix>
        </filter>
        <linearGradient x1="50%" y1="103.138076%" x2="50%" y2="1.42247325e-14%" id="linearGradient-18">
            <stop stop-color="#FFA900" offset="0%"></stop>
            <stop stop-color="#FF0000" offset="100%"></stop>
        </linearGradient>
        <path d="M99.1974594,38.159824 C99.0666552,38.4186818 98.9989981,38.7047646 99.0000112,38.9947179 L99.0000112,39.1560625 L99.0128326,39.2969188 C99.0820676,39.629852 99.1692525,39.8296119 99.2949014,40.0037615 C99.4121147,40.232533 99.5871343,40.4267536 99.8026253,40.5671869 L99.476964,40.2777912 L99.6051771,40.4135254 C99.6482174,40.4586498 99.7007729,40.4936426 99.7590328,40.5159664 L99.897503,40.6491397 C99.9744309,40.7003602 100.04623,40.7336535 100.128287,40.7464586 L100.002638,40.7054822 C100.194957,40.8309724 100.425741,40.9103641 100.67191,40.9359744 L100.466769,40.9052421 C100.6565,40.9666521 100.854545,40.9986102 101.053985,41 L101.307847,41 C101.652348,40.9602141 101.983094,40.8419265 102.274574,40.6542617 L119.501288,29.7212487 L136.938271,40.7567027 C137.030584,40.8181673 137.143412,40.8591437 137.261368,40.8796318 L137.115205,40.8412165 L137.243418,40.8847539 L137.422916,40.9410964 L137.592158,40.9769508 C137.659409,40.9847967 137.72703,40.9890711 137.794734,40.9897559 L137.971669,40.9897559 C138.135781,40.9897559 138.305023,40.9692677 138.469135,40.9206082 C138.64977,40.8640452 138.836625,40.8296454 139.02558,40.8181673 L138.669148,40.8617047 C138.867349,40.7974613 139.048692,40.6898426 139.19995,40.5466987 L138.981988,40.7208484 C139.26478,40.5632376 139.514622,40.3528354 139.717931,40.1010804 L139.182,40.5927971 L139.402527,40.4212085 L139.49484,40.3290116 C139.596069,40.2152478 139.674423,40.0830843 139.725624,39.9397359 L139.623053,40.1651061 L139.694853,40.0447379 L139.766652,39.9294918 C139.807143,39.8714925 139.833487,39.8048374 139.84358,39.734854 C139.924757,39.5943939 139.969697,39.4359818 139.974357,39.2738696 C139.974357,39.4096039 139.994871,39.2815527 140,39.1509404 L140,38.9486195 L139.994871,38.8000801 L139.9641,38.6361745 C139.943586,38.5439776 139.930765,38.5158064 139.930765,38.479952 C139.918071,38.4122776 139.891912,38.3478343 139.853837,38.2904362 C139.727013,38.0147118 139.643961,37.7209417 139.607668,37.4196879 L121.378328,1.13765577 C121.023943,0.441487064 120.308891,0.00231547765 119.52693,0.000560959626 C118.731948,-0.0178042988 117.995414,0.416013774 117.626812,1.11972863 L99.1974594,38.159824 Z" id="path-19"></path>
        <filter x="-19.5%" y="-29.3%" width="139.0%" height="139.0%" filterUnits="objectBoundingBox" id="filter-20">
            <feOffset dx="0" dy="-4" in="SourceAlpha" result="shadowOffsetOuter1"></feOffset>
            <feGaussianBlur stdDeviation="2" in="shadowOffsetOuter1" result="shadowBlurOuter1"></feGaussianBlur>
            <feColorMatrix values="0 0 0 0 0   0 0 0 0 0   0 0 0 0 0  0 0 0 0.1 0" type="matrix" in="shadowBlurOuter1"></feColorMatrix>
        </filter>
        <rect id="path-21" x="0" y="0" width="120" height="40" rx="4"></rect>
        <filter x="-9.2%" y="-17.5%" width="118.3%" height="155.0%" filterUnits="objectBoundingBox" id="filter-22">
            <feOffset dx="0" dy="4" in="SourceAlpha" result="shadowOffsetOuter1"></feOffset>
            <feGaussianBlur stdDeviation="3" in="shadowOffsetOuter1" result="shadowBlurOuter1"></feGaussianBlur>
            <feColorMatrix values="0 0 0 0 0   0 0 0 0 0   0 0 0 0 0  0 0 0 0.2 0" type="matrix" in="shadowBlurOuter1"></feColorMatrix>
        </filter>
        <linearGradient x1="50%" y1="0%" x2="50%" y2="100%" id="linearGradient-23">
            <stop stop-color="#FAD961" offset="0%"></stop>
            <stop stop-color="#F76B1C" offset="100%"></stop>
        </linearGradient>
        <rect id="path-24" x="20" y="21" width="120" height="40" rx="4"></rect>
        <filter x="-9.2%" y="-17.5%" width="118.3%" height="155.0%" filterUnits="objectBoundingBox" id="filter-25">
            <feOffset dx="0" dy="4" in="SourceAlpha" result="shadowOffsetOuter1"></feOffset>
            <feGaussianBlur stdDeviation="3" in="shadowOffsetOuter1" result="shadowBlurOuter1"></feGaussianBlur>
            <feColorMatrix values="0 0 0 0 0   0 0 0 0 0   0 0 0 0 0  0 0 0 0.2 0" type="matrix" in="shadowBlurOuter1"></feColorMatrix>
        </filter>
        <rect id="path-26" x="20" y="21" width="120" height="40" rx="4"></rect>
        <filter x="-9.2%" y="-17.5%" width="118.3%" height="155.0%" filterUnits="objectBoundingBox" id="filter-27">
            <feOffset dx="0" dy="4" in="SourceAlpha" result="shadowOffsetOuter1"></feOffset>
            <feGaussianBlur stdDeviation="3" in="shadowOffsetOuter1" result="shadowBlurOuter1"></feGaussianBlur>
            <feColorMatrix values="0 0 0 0 0   0 0 0 0 0   0 0 0 0 0  0 0 0 0.2 0" type="matrix" in="shadowBlurOuter1"></feColorMatrix>
        </filter>
        <linearGradient x1="0%" y1="50%" x2="100%" y2="50%" id="linearGradient-28">
            <stop stop-color="#8CFF00" offset="0%"></stop>
            <stop stop-color="#00CFFF" stop-opacity="0" offset="100%"></stop>
        </linearGradient>
    </defs>
    <g id="Page-1" stroke="none" stroke-width="1" fill="none" fill-rule="evenodd">
        <g id="2.管辖区值守" transform="translate(0.000000, -39.000000)">
            <g id="Group-35-Copy">
                <g id="Rectangle-8">
                    <use fill="#223167" xlink:href="#path-2"></use>
                    <use fill="url(#radialGradient-1)" xlink:href="#path-2"></use>
                </g>
            </g>
            <g id="Group-5-Copy-3" transform="translate(1664.000000, 90.000000)">
                <g id="Group-4" transform="translate(55.000000, 0.000000)">
                    <g id="Rectangle-2-Copy">
                        <use fill="#6848CE" xlink:href="#path-4"></use>
                        <use fill="url(#radialGradient-3)" xlink:href="#path-4"></use>
                    </g>
                    <g id="Rectangle-7">
                        <use fill="black" fill-opacity="1" filter="url(#filter-6)" xlink:href="#path-5"></use>
                        <use fill-opacity="0.2" fill="#FFFFFF" fill-rule="evenodd" xlink:href="#path-5"></use>
                    </g>
                    <text id="事故单位" font-family="STYuanti-SC-Regular, Yuanti SC" font-size="30" font-weight="normal" fill="#FFFFFF">
                        <tspan x="60" y="48">事故单位</tspan>
                    </text>
                </g>
                <g id="Group-3" transform="translate(0.000000, 104.000000)">
                    <g id="Group" transform="translate(78.000000, 0.000000)">
                        <g id="Group-6" transform="translate(37.000000, 21.000000)">
                            <g id="Rectangle-3-Copy-3">
                                <use fill="black" fill-opacity="1" filter="url(#filter-9)" xlink:href="#path-8"></use>
                                <use fill="url(#linearGradient-7)" fill-rule="evenodd" xlink:href="#path-8"></use>
                            </g>
                            <text id="危化品泄露" font-family="PingFangSC-Regular, PingFang SC" font-size="20" font-weight="normal" fill="#FFFFFF">
                                <tspan x="10" y="26">危化品泄露</tspan>
                            </text>
                        </g>
                        <g id="info-circle" transform="translate(161.000000, 21.000000)" fill-rule="nonzero">
                            <rect id="Rectangle-path" fill="#000000" opacity="0" x="0" y="0" width="16" height="16"></rect>
                            <path d="M8,1 C4.134375,1 1,4.134375 1,8 C1,11.865625 4.134375,15 8,15 C11.865625,15 15,11.865625 15,8 C15,4.134375 11.865625,1 8,1 Z M8,13.8125 C4.790625,13.8125 2.1875,11.209375 2.1875,8 C2.1875,4.790625 4.790625,2.1875 8,2.1875 C11.209375,2.1875 13.8125,4.790625 13.8125,8 C13.8125,11.209375 11.209375,13.8125 8,13.8125 Z" id="Shape" fill="#FFFFFF"></path>
                            <path d="M7.25,5.25 C7.25,5.66421356 7.58578644,6 8,6 C8.41421356,6 8.75,5.66421356 8.75,5.25 C8.75,4.83578644 8.41421356,4.5 8,4.5 C7.58578644,4.5 7.25,4.83578644 7.25,5.25 Z" id="Shape" fill="#FFFFFF"></path>
                            <path d="M8.375,7 L7.625,7 C7.55625,7 7.5,7.05625 7.5,7.125 L7.5,11.375 C7.5,11.44375 7.55625,11.5 7.625,11.5 L8.375,11.5 C8.44375,11.5 8.5,11.44375 8.5,11.375 L8.5,7.125 C8.5,7.05625 8.44375,7 8.375,7 Z" id="Shape" fill="#FFFFFF"></path>
                        </g>
                        <g id="Group-2" transform="translate(0.000000, 63.000000)" fill="#FFFFFF">
                            <path d="M197,27 L200,27 L195,35 L190,27 L193,27 L193,17 L7,17 L7,27 L10,27 L5,35 L0,27 L3,27 L3,17 L3,13 L94,13 L94,0 L98,0 L98,13 L193,13 L197,13 L197,27 Z" id="Combined-Shape"></path>
                        </g>
                        <text id="09:35-AM" font-family="STYuanti-SC-Regular, Yuanti SC" font-size="14" font-weight="normal" fill="#FFFFFF">
                            <tspan x="37.251" y="15">09:35 AM</tspan>
                        </text>
                    </g>
                    <g id="Group-Copy" transform="translate(189.000000, 85.000000)">
                        <g id="Rectangle-3-Copy-3">
                            <use fill="black" fill-opacity="1" filter="url(#filter-11)" xlink:href="#path-10"></use>
                            <use fill="url(#linearGradient-7)" fill-rule="evenodd" xlink:href="#path-10"></use>
                        </g>
                        <g id="info-circle" transform="translate(144.000000, 22.000000)" fill-rule="nonzero">
                            <rect id="Rectangle-path" fill="#000000" opacity="0" x="0" y="0" width="16" height="16"></rect>
                            <path d="M8,1 C4.134375,1 1,4.134375 1,8 C1,11.865625 4.134375,15 8,15 C11.865625,15 15,11.865625 15,8 C15,4.134375 11.865625,1 8,1 Z M8,13.8125 C4.790625,13.8125 2.1875,11.209375 2.1875,8 C2.1875,4.790625 4.790625,2.1875 8,2.1875 C11.209375,2.1875 13.8125,4.790625 13.8125,8 C13.8125,11.209375 11.209375,13.8125 8,13.8125 Z" id="Shape" fill="#FFFFFF"></path>
                            <path d="M7.25,5.25 C7.25,5.66421356 7.58578644,6 8,6 C8.41421356,6 8.75,5.66421356 8.75,5.25 C8.75,4.83578644 8.41421356,4.5 8,4.5 C7.58578644,4.5 7.25,4.83578644 7.25,5.25 Z" id="Shape" fill="#FFFFFF"></path>
                            <path d="M8.375,7 L7.625,7 C7.55625,7 7.5,7.05625 7.5,7.125 L7.5,11.375 C7.5,11.44375 7.55625,11.5 7.625,11.5 L8.375,11.5 C8.44375,11.5 8.5,11.44375 8.5,11.375 L8.5,7.125 C8.5,7.05625 8.44375,7 8.375,7 Z" id="Shape" fill="#FFFFFF"></path>
                        </g>
                        <g id="message" transform="translate(0.000000, 45.000000)" fill-rule="nonzero">
                            <rect id="Rectangle-path" fill="#000000" opacity="0" x="0" y="0" width="16" height="16"></rect>
                            <path d="M7.25,8 C7.25,8.41421356 7.58578644,8.75 8,8.75 C8.41421356,8.75 8.75,8.41421356 8.75,8 C8.75,7.58578644 8.41421356,7.25 8,7.25 C7.58578644,7.25 7.25,7.58578644 7.25,8 Z M10.375,8 C10.375,8.41421356 10.7107864,8.75 11.125,8.75 C11.5392136,8.75 11.875,8.41421356 11.875,8 C11.875,7.58578644 11.5392136,7.25 11.125,7.25 C10.7107864,7.25 10.375,7.58578644 10.375,8 Z M4.125,8 C4.125,8.41421356 4.46078644,8.75 4.875,8.75 C5.28921356,8.75 5.625,8.41421356 5.625,8 C5.625,7.58578644 5.28921356,7.25 4.875,7.25 C4.46078644,7.25 4.125,7.58578644 4.125,8 Z M14.45625,5.2875 C14.103125,4.4484375 13.596875,3.6953125 12.9515625,3.0484375 C12.30625,2.403125 11.553125,1.8953125 10.7125,1.54375 C9.853125,1.1828125 8.940625,1 8,1 L7.96875,1 C7.021875,1.0046875 6.1046875,1.1921875 5.2421875,1.5609375 C4.409375,1.9171875 3.6625,2.4234375 3.0234375,3.06875 C2.384375,3.7140625 1.8828125,4.4640625 1.5359375,5.3 C1.1765625,6.165625 0.9953125,7.0859375 1,8.0328125 C1.0046875,9.1171875 1.2640625,10.19375 1.75,11.15625 L1.75,13.53125 C1.75,13.928125 2.071875,14.25 2.46875,14.25 L4.8453125,14.25 C5.8078125,14.7359375 6.884375,14.9953125 7.96875,15 L8.0015625,15 C8.9375,15 9.8453125,14.81875 10.7,14.4640625 C11.5359375,14.115625 12.2875,13.615625 12.93125,12.9765625 C13.5765625,12.3375 14.084375,11.590625 14.4390625,10.7578125 C14.8078125,9.8953125 14.9953125,8.978125 15,8.03125 C15.0046875,7.0796875 14.8203125,6.15625 14.45625,5.2875 Z M12.0953125,12.13125 C11,13.215625 9.546875,13.8125 8,13.8125 L7.9734375,13.8125 C7.03125,13.8078125 6.0953125,13.5734375 5.26875,13.1328125 L5.1375,13.0625 L2.9375,13.0625 L2.9375,10.8625 L2.8671875,10.73125 C2.4265625,9.9046875 2.1921875,8.96875 2.1875,8.0265625 C2.18125,6.46875 2.7765625,5.00625 3.86875,3.9046875 C4.959375,2.803125 6.4171875,2.19375 7.975,2.1875 L8.0015625,2.1875 C8.7828125,2.1875 9.540625,2.3390625 10.2546875,2.6390625 C10.9515625,2.93125 11.5765625,3.3515625 12.1140625,3.8890625 C12.65,4.425 13.071875,5.0515625 13.3640625,5.7484375 C13.6671875,6.4703125 13.81875,7.2359375 13.815625,8.0265625 C13.80625,9.5828125 13.1953125,11.040625 12.0953125,12.13125 Z" id="Shape" fill="url(#linearGradient-12)"></path>
                        </g>
                        <text id="09:37-AM" font-family="STYuanti-SC-Regular, Yuanti SC" font-size="14" font-weight="normal" fill="#FFFFFF">
                            <tspan x="20.398" y="15">09:37 AM</tspan>
                        </text>
                        <text id="先期处置" font-family="PingFangSC-Regular, PingFang SC" font-size="20" font-weight="normal" fill="#FFFFFF">
                            <tspan x="40" y="47">先期处置</tspan>
                        </text>
                    </g>
                    <g id="Group-Copy-6" transform="translate(0.000000, 85.000000)">
                        <g id="Rectangle-3-Copy-3">
                            <use fill="black" fill-opacity="1" filter="url(#filter-14)" xlink:href="#path-13"></use>
                            <use fill="url(#linearGradient-7)" fill-rule="evenodd" xlink:href="#path-13"></use>
                        </g>
                        <g id="message" transform="translate(0.000000, 45.000000)" fill-rule="nonzero">
                            <rect id="Rectangle-path" fill="#000000" opacity="0" x="0" y="0" width="16" height="16"></rect>
                            <path d="M7.25,8 C7.25,8.41421356 7.58578644,8.75 8,8.75 C8.41421356,8.75 8.75,8.41421356 8.75,8 C8.75,7.58578644 8.41421356,7.25 8,7.25 C7.58578644,7.25 7.25,7.58578644 7.25,8 Z M10.375,8 C10.375,8.41421356 10.7107864,8.75 11.125,8.75 C11.5392136,8.75 11.875,8.41421356 11.875,8 C11.875,7.58578644 11.5392136,7.25 11.125,7.25 C10.7107864,7.25 10.375,7.58578644 10.375,8 Z M4.125,8 C4.125,8.41421356 4.46078644,8.75 4.875,8.75 C5.28921356,8.75 5.625,8.41421356 5.625,8 C5.625,7.58578644 5.28921356,7.25 4.875,7.25 C4.46078644,7.25 4.125,7.58578644 4.125,8 Z M14.45625,5.2875 C14.103125,4.4484375 13.596875,3.6953125 12.9515625,3.0484375 C12.30625,2.403125 11.553125,1.8953125 10.7125,1.54375 C9.853125,1.1828125 8.940625,1 8,1 L7.96875,1 C7.021875,1.0046875 6.1046875,1.1921875 5.2421875,1.5609375 C4.409375,1.9171875 3.6625,2.4234375 3.0234375,3.06875 C2.384375,3.7140625 1.8828125,4.4640625 1.5359375,5.3 C1.1765625,6.165625 0.9953125,7.0859375 1,8.0328125 C1.0046875,9.1171875 1.2640625,10.19375 1.75,11.15625 L1.75,13.53125 C1.75,13.928125 2.071875,14.25 2.46875,14.25 L4.8453125,14.25 C5.8078125,14.7359375 6.884375,14.9953125 7.96875,15 L8.0015625,15 C8.9375,15 9.8453125,14.81875 10.7,14.4640625 C11.5359375,14.115625 12.2875,13.615625 12.93125,12.9765625 C13.5765625,12.3375 14.084375,11.590625 14.4390625,10.7578125 C14.8078125,9.8953125 14.9953125,8.978125 15,8.03125 C15.0046875,7.0796875 14.8203125,6.15625 14.45625,5.2875 Z M12.0953125,12.13125 C11,13.215625 9.546875,13.8125 8,13.8125 L7.9734375,13.8125 C7.03125,13.8078125 6.0953125,13.5734375 5.26875,13.1328125 L5.1375,13.0625 L2.9375,13.0625 L2.9375,10.8625 L2.8671875,10.73125 C2.4265625,9.9046875 2.1921875,8.96875 2.1875,8.0265625 C2.18125,6.46875 2.7765625,5.00625 3.86875,3.9046875 C4.959375,2.803125 6.4171875,2.19375 7.975,2.1875 L8.0015625,2.1875 C8.7828125,2.1875 9.540625,2.3390625 10.2546875,2.6390625 C10.9515625,2.93125 11.5765625,3.3515625 12.1140625,3.8890625 C12.65,4.425 13.071875,5.0515625 13.3640625,5.7484375 C13.6671875,6.4703125 13.81875,7.2359375 13.815625,8.0265625 C13.80625,9.5828125 13.1953125,11.040625 12.0953125,12.13125 Z" id="Shape" fill="url(#linearGradient-12)"></path>
                        </g>
                        <g id="info-circle" transform="translate(144.000000, 21.000000)" fill-rule="nonzero">
                            <rect id="Rectangle-path" fill="#000000" opacity="0" x="0" y="0" width="16" height="16"></rect>
                            <path d="M8,1 C4.134375,1 1,4.134375 1,8 C1,11.865625 4.134375,15 8,15 C11.865625,15 15,11.865625 15,8 C15,4.134375 11.865625,1 8,1 Z M8,13.8125 C4.790625,13.8125 2.1875,11.209375 2.1875,8 C2.1875,4.790625 4.790625,2.1875 8,2.1875 C11.209375,2.1875 13.8125,4.790625 13.8125,8 C13.8125,11.209375 11.209375,13.8125 8,13.8125 Z" id="Shape" fill="#FFFFFF"></path>
                            <path d="M7.25,5.25 C7.25,5.66421356 7.58578644,6 8,6 C8.41421356,6 8.75,5.66421356 8.75,5.25 C8.75,4.83578644 8.41421356,4.5 8,4.5 C7.58578644,4.5 7.25,4.83578644 7.25,5.25 Z" id="Shape" fill="#FFFFFF"></path>
                            <path d="M8.375,7 L7.625,7 C7.55625,7 7.5,7.05625 7.5,7.125 L7.5,11.375 C7.5,11.44375 7.55625,11.5 7.625,11.5 L8.375,11.5 C8.44375,11.5 8.5,11.44375 8.5,11.375 L8.5,7.125 C8.5,7.05625 8.44375,7 8.375,7 Z" id="Shape" fill="#FFFFFF"></path>
                        </g>
                        <text id="09:37-AM" font-family="STYuanti-SC-Regular, Yuanti SC" font-size="14" font-weight="normal" fill="#FFFFFF">
                            <tspan x="20.398" y="15">09:37 AM</tspan>
                        </text>
                        <text id="信息上报" font-family="PingFangSC-Regular, PingFang SC" font-size="20" font-weight="normal" fill="#FFFFFF">
                            <tspan x="40" y="47">信息上报</tspan>
                        </text>
                    </g>
                </g>
            </g>
            <g id="Group-5-Copy-4" transform="translate(1305.000000, 39.000000)">
                <g id="Group-4" transform="translate(55.000000, 0.000000)">
                    <g id="Rectangle-2-Copy">
                        <use fill="#6848CE" xlink:href="#path-15"></use>
                        <use fill="url(#radialGradient-3)" xlink:href="#path-15"></use>
                    </g>
                    <g id="Rectangle-7">
                        <use fill="black" fill-opacity="1" filter="url(#filter-17)" xlink:href="#path-16"></use>
                        <use fill-opacity="0.2" fill="#FFFFFF" fill-rule="evenodd" xlink:href="#path-16"></use>
                    </g>
                    <g id="Shape" fill-rule="nonzero" transform="translate(119.500000, 20.500000) scale(1, -1) translate(-119.500000, -20.500000) ">
                        <use fill="black" fill-opacity="1" filter="url(#filter-20)" xlink:href="#path-19"></use>
                        <use fill="url(#linearGradient-18)" fill-rule="evenodd" xlink:href="#path-19"></use>
                    </g>
                    <text id="管辖区值守" font-family="STYuanti-SC-Regular, Yuanti SC" font-size="30" font-weight="normal" fill="#FFFFFF">
                        <tspan x="45" y="99">管辖区值守</tspan>
                    </text>
                </g>
                <g id="Group-3" transform="translate(0.000000, 240.000000)">
                    <g id="Group" transform="translate(78.000000, 0.000000)">
                        <g id="Group-6" transform="translate(37.000000, 21.000000)">
                            <g id="Rectangle-3-Copy-3">
                                <use fill="black" fill-opacity="1" filter="url(#filter-22)" xlink:href="#path-21"></use>
                                <use fill="url(#linearGradient-7)" fill-rule="evenodd" xlink:href="#path-21"></use>
                            </g>
                            <path d="M130,23 L130,26 L122,21 L130,16 L130,19 L240,19 L240,23 L130,23 Z" id="Combined-Shape" fill="#FFFFFF"></path>
                            <text id="事故接报" font-family="PingFangSC-Regular, PingFang SC" font-size="20" font-weight="normal" fill="#FFFFFF">
                                <tspan x="20" y="26">事故接报</tspan>
                            </text>
                        </g>
                        <g id="info-circle" transform="translate(161.000000, 21.000000)" fill-rule="nonzero">
                            <rect id="Rectangle-path" fill="#000000" opacity="0" x="0" y="0" width="16" height="16"></rect>
                            <path d="M8,1 C4.134375,1 1,4.134375 1,8 C1,11.865625 4.134375,15 8,15 C11.865625,15 15,11.865625 15,8 C15,4.134375 11.865625,1 8,1 Z M8,13.8125 C4.790625,13.8125 2.1875,11.209375 2.1875,8 C2.1875,4.790625 4.790625,2.1875 8,2.1875 C11.209375,2.1875 13.8125,4.790625 13.8125,8 C13.8125,11.209375 11.209375,13.8125 8,13.8125 Z" id="Shape" fill="#FFFFFF"></path>
                            <path d="M7.25,5.25 C7.25,5.66421356 7.58578644,6 8,6 C8.41421356,6 8.75,5.66421356 8.75,5.25 C8.75,4.83578644 8.41421356,4.5 8,4.5 C7.58578644,4.5 7.25,4.83578644 7.25,5.25 Z" id="Shape" fill="#FFFFFF"></path>
                            <path d="M8.375,7 L7.625,7 C7.55625,7 7.5,7.05625 7.5,7.125 L7.5,11.375 C7.5,11.44375 7.55625,11.5 7.625,11.5 L8.375,11.5 C8.44375,11.5 8.5,11.44375 8.5,11.375 L8.5,7.125 C8.5,7.05625 8.44375,7 8.375,7 Z" id="Shape" fill="#FFFFFF"></path>
                        </g>
                        <g id="Group-2" transform="translate(0.000000, 63.000000)" fill="#FFFFFF">
                            <path d="M197,27 L200,27 L195,35 L190,27 L193,27 L193,17 L7,17 L7,27 L10,27 L5,35 L0,27 L3,27 L3,17 L3,13 L94,13 L94,0 L98,0 L98,13 L193,13 L197,13 L197,27 Z" id="Combined-Shape"></path>
                        </g>
                        <text id="09:37-AM" font-family="STYuanti-SC-Regular, Yuanti SC" font-size="14" font-weight="normal" fill="#FFFFFF">
                            <tspan x="37.398" y="15">09:37 AM</tspan>
                        </text>
                    </g>
                    <g id="Group-Copy" transform="translate(189.000000, 85.000000)">
                        <g id="Rectangle-3-Copy-3">
                            <use fill="black" fill-opacity="1" filter="url(#filter-25)" xlink:href="#path-24"></use>
                            <use fill="url(#linearGradient-23)" fill-rule="evenodd" xlink:href="#path-24"></use>
                        </g>
                        <g id="reload-time" transform="translate(124.000000, 3.000000)" fill-rule="nonzero">
                            <rect id="Rectangle-path" fill="#000000" opacity="0" x="0" y="0" width="16" height="16"></rect>
                            <path d="M8.3765625,4.265625 L7.625,4.265625 C7.55625,4.265625 7.5,4.321875 7.5,4.390625 L7.5,8.6921875 C7.5,8.7328125 7.51875,8.7703125 7.5515625,8.79375 L10.134375,10.6796875 C10.190625,10.7203125 10.26875,10.709375 10.309375,10.653125 L10.75625,10.04375 C10.7984375,9.9859375 10.7859375,9.9078125 10.7296875,9.86875 L8.5015625,8.2578125 L8.5015625,4.390625 C8.5015625,4.321875 8.4453125,4.265625 8.3765625,4.265625 Z M11.8109375,5.440625 L14.2609375,6.0390625 C14.3390625,6.0578125 14.415625,5.9984375 14.415625,5.91875 L14.428125,3.3953125 C14.428125,3.290625 14.3078125,3.23125 14.2265625,3.296875 L11.7640625,5.2203125 C11.68125,5.2859375 11.709375,5.415625 11.8109375,5.440625 Z M14.43125,10.1453125 L13.5453125,9.840625 C13.48125,9.81875 13.4109375,9.8515625 13.3875,9.915625 C13.3578125,9.9953125 13.3265625,10.0734375 13.29375,10.1515625 C13.015625,10.809375 12.6171875,11.4015625 12.1078125,11.909375 C11.6,12.4171875 11.0078125,12.8171875 10.35,13.0953125 C9.66875,13.3828125 8.9453125,13.5296875 8.1984375,13.5296875 C7.4515625,13.5296875 6.728125,13.384375 6.046875,13.0953125 C5.3890625,12.8171875 4.796875,12.4171875 4.2890625,11.909375 C3.78125,11.4015625 3.3828125,10.809375 3.103125,10.1515625 C2.8171875,9.471875 2.671875,8.746875 2.671875,8 C2.671875,7.253125 2.8171875,6.528125 3.10625,5.846875 C3.384375,5.1890625 3.7828125,4.596875 4.2921875,4.0890625 C4.8,3.58125 5.3921875,3.18125 6.05,2.903125 C6.728125,2.6140625 7.453125,2.46875 8.2,2.46875 C8.946875,2.46875 9.6703125,2.6140625 10.3515625,2.903125 C11.009375,3.18125 11.6015625,3.58125 12.109375,4.0890625 C12.26875,4.25 12.41875,4.4171875 12.55625,4.59375 L13.490625,3.8625 C12.2609375,2.290625 10.346875,1.2796875 8.196875,1.28125 C4.453125,1.2828125 1.446875,4.3234375 1.484375,8.06875 C1.521875,11.7484375 4.5140625,14.71875 8.2,14.71875 C11.0984375,14.71875 13.5671875,12.88125 14.5078125,10.3078125 C14.53125,10.2421875 14.496875,10.16875 14.43125,10.1453125 Z" id="Shape" fill="url(#linearGradient-23)"></path>
                        </g>
                        <g id="info-circle" transform="translate(144.000000, 22.000000)" fill-rule="nonzero">
                            <rect id="Rectangle-path" fill="#000000" opacity="0" x="0" y="0" width="16" height="16"></rect>
                            <path d="M8,1 C4.134375,1 1,4.134375 1,8 C1,11.865625 4.134375,15 8,15 C11.865625,15 15,11.865625 15,8 C15,4.134375 11.865625,1 8,1 Z M8,13.8125 C4.790625,13.8125 2.1875,11.209375 2.1875,8 C2.1875,4.790625 4.790625,2.1875 8,2.1875 C11.209375,2.1875 13.8125,4.790625 13.8125,8 C13.8125,11.209375 11.209375,13.8125 8,13.8125 Z" id="Shape" fill="#FFFFFF"></path>
                            <path d="M7.25,5.25 C7.25,5.66421356 7.58578644,6 8,6 C8.41421356,6 8.75,5.66421356 8.75,5.25 C8.75,4.83578644 8.41421356,4.5 8,4.5 C7.58578644,4.5 7.25,4.83578644 7.25,5.25 Z" id="Shape" fill="#FFFFFF"></path>
                            <path d="M8.375,7 L7.625,7 C7.55625,7 7.5,7.05625 7.5,7.125 L7.5,11.375 C7.5,11.44375 7.55625,11.5 7.625,11.5 L8.375,11.5 C8.44375,11.5 8.5,11.44375 8.5,11.375 L8.5,7.125 C8.5,7.05625 8.44375,7 8.375,7 Z" id="Shape" fill="#FFFFFF"></path>
                        </g>
                        <g id="message" transform="translate(0.000000, 45.000000)" fill-rule="nonzero">
                            <rect id="Rectangle-path" fill="#000000" opacity="0" x="0" y="0" width="16" height="16"></rect>
                            <path d="M7.25,8 C7.25,8.41421356 7.58578644,8.75 8,8.75 C8.41421356,8.75 8.75,8.41421356 8.75,8 C8.75,7.58578644 8.41421356,7.25 8,7.25 C7.58578644,7.25 7.25,7.58578644 7.25,8 Z M10.375,8 C10.375,8.41421356 10.7107864,8.75 11.125,8.75 C11.5392136,8.75 11.875,8.41421356 11.875,8 C11.875,7.58578644 11.5392136,7.25 11.125,7.25 C10.7107864,7.25 10.375,7.58578644 10.375,8 Z M4.125,8 C4.125,8.41421356 4.46078644,8.75 4.875,8.75 C5.28921356,8.75 5.625,8.41421356 5.625,8 C5.625,7.58578644 5.28921356,7.25 4.875,7.25 C4.46078644,7.25 4.125,7.58578644 4.125,8 Z M14.45625,5.2875 C14.103125,4.4484375 13.596875,3.6953125 12.9515625,3.0484375 C12.30625,2.403125 11.553125,1.8953125 10.7125,1.54375 C9.853125,1.1828125 8.940625,1 8,1 L7.96875,1 C7.021875,1.0046875 6.1046875,1.1921875 5.2421875,1.5609375 C4.409375,1.9171875 3.6625,2.4234375 3.0234375,3.06875 C2.384375,3.7140625 1.8828125,4.4640625 1.5359375,5.3 C1.1765625,6.165625 0.9953125,7.0859375 1,8.0328125 C1.0046875,9.1171875 1.2640625,10.19375 1.75,11.15625 L1.75,13.53125 C1.75,13.928125 2.071875,14.25 2.46875,14.25 L4.8453125,14.25 C5.8078125,14.7359375 6.884375,14.9953125 7.96875,15 L8.0015625,15 C8.9375,15 9.8453125,14.81875 10.7,14.4640625 C11.5359375,14.115625 12.2875,13.615625 12.93125,12.9765625 C13.5765625,12.3375 14.084375,11.590625 14.4390625,10.7578125 C14.8078125,9.8953125 14.9953125,8.978125 15,8.03125 C15.0046875,7.0796875 14.8203125,6.15625 14.45625,5.2875 Z M12.0953125,12.13125 C11,13.215625 9.546875,13.8125 8,13.8125 L7.9734375,13.8125 C7.03125,13.8078125 6.0953125,13.5734375 5.26875,13.1328125 L5.1375,13.0625 L2.9375,13.0625 L2.9375,10.8625 L2.8671875,10.73125 C2.4265625,9.9046875 2.1921875,8.96875 2.1875,8.0265625 C2.18125,6.46875 2.7765625,5.00625 3.86875,3.9046875 C4.959375,2.803125 6.4171875,2.19375 7.975,2.1875 L8.0015625,2.1875 C8.7828125,2.1875 9.540625,2.3390625 10.2546875,2.6390625 C10.9515625,2.93125 11.5765625,3.3515625 12.1140625,3.8890625 C12.65,4.425 13.071875,5.0515625 13.3640625,5.7484375 C13.6671875,6.4703125 13.81875,7.2359375 13.815625,8.0265625 C13.80625,9.5828125 13.1953125,11.040625 12.0953125,12.13125 Z" id="Shape" fill="url(#linearGradient-12)"></path>
                        </g>
                        <text id="09:40-AM" font-family="STYuanti-SC-Regular, Yuanti SC" font-size="14" font-weight="normal" fill="#FFFFFF">
                            <tspan x="19.957" y="15">09:40 AM</tspan>
                        </text>
                        <text id="先期处置" font-family="PingFangSC-Regular, PingFang SC" font-size="20" font-weight="normal" fill="#FFFFFF">
                            <tspan x="40" y="47">先期处置</tspan>
                        </text>
                    </g>
                    <g id="Group-Copy-6" transform="translate(0.000000, 85.000000)">
                        <g id="Rectangle-3-Copy-3">
                            <use fill="black" fill-opacity="1" filter="url(#filter-27)" xlink:href="#path-26"></use>
                            <use fill="url(#linearGradient-23)" fill-rule="evenodd" xlink:href="#path-26"></use>
                        </g>
                        <g id="message" transform="translate(0.000000, 45.000000)" fill-rule="nonzero">
                            <rect id="Rectangle-path" fill="#000000" opacity="0" x="0" y="0" width="16" height="16"></rect>
                            <path d="M7.25,8 C7.25,8.41421356 7.58578644,8.75 8,8.75 C8.41421356,8.75 8.75,8.41421356 8.75,8 C8.75,7.58578644 8.41421356,7.25 8,7.25 C7.58578644,7.25 7.25,7.58578644 7.25,8 Z M10.375,8 C10.375,8.41421356 10.7107864,8.75 11.125,8.75 C11.5392136,8.75 11.875,8.41421356 11.875,8 C11.875,7.58578644 11.5392136,7.25 11.125,7.25 C10.7107864,7.25 10.375,7.58578644 10.375,8 Z M4.125,8 C4.125,8.41421356 4.46078644,8.75 4.875,8.75 C5.28921356,8.75 5.625,8.41421356 5.625,8 C5.625,7.58578644 5.28921356,7.25 4.875,7.25 C4.46078644,7.25 4.125,7.58578644 4.125,8 Z M14.45625,5.2875 C14.103125,4.4484375 13.596875,3.6953125 12.9515625,3.0484375 C12.30625,2.403125 11.553125,1.8953125 10.7125,1.54375 C9.853125,1.1828125 8.940625,1 8,1 L7.96875,1 C7.021875,1.0046875 6.1046875,1.1921875 5.2421875,1.5609375 C4.409375,1.9171875 3.6625,2.4234375 3.0234375,3.06875 C2.384375,3.7140625 1.8828125,4.4640625 1.5359375,5.3 C1.1765625,6.165625 0.9953125,7.0859375 1,8.0328125 C1.0046875,9.1171875 1.2640625,10.19375 1.75,11.15625 L1.75,13.53125 C1.75,13.928125 2.071875,14.25 2.46875,14.25 L4.8453125,14.25 C5.8078125,14.7359375 6.884375,14.9953125 7.96875,15 L8.0015625,15 C8.9375,15 9.8453125,14.81875 10.7,14.4640625 C11.5359375,14.115625 12.2875,13.615625 12.93125,12.9765625 C13.5765625,12.3375 14.084375,11.590625 14.4390625,10.7578125 C14.8078125,9.8953125 14.9953125,8.978125 15,8.03125 C15.0046875,7.0796875 14.8203125,6.15625 14.45625,5.2875 Z M12.0953125,12.13125 C11,13.215625 9.546875,13.8125 8,13.8125 L7.9734375,13.8125 C7.03125,13.8078125 6.0953125,13.5734375 5.26875,13.1328125 L5.1375,13.0625 L2.9375,13.0625 L2.9375,10.8625 L2.8671875,10.73125 C2.4265625,9.9046875 2.1921875,8.96875 2.1875,8.0265625 C2.18125,6.46875 2.7765625,5.00625 3.86875,3.9046875 C4.959375,2.803125 6.4171875,2.19375 7.975,2.1875 L8.0015625,2.1875 C8.7828125,2.1875 9.540625,2.3390625 10.2546875,2.6390625 C10.9515625,2.93125 11.5765625,3.3515625 12.1140625,3.8890625 C12.65,4.425 13.071875,5.0515625 13.3640625,5.7484375 C13.6671875,6.4703125 13.81875,7.2359375 13.815625,8.0265625 C13.80625,9.5828125 13.1953125,11.040625 12.0953125,12.13125 Z" id="Shape" fill="url(#linearGradient-12)"></path>
                        </g>
                        <g id="info-circle" transform="translate(144.000000, 21.000000)" fill-rule="nonzero">
                            <rect id="Rectangle-path" fill="#000000" opacity="0" x="0" y="0" width="16" height="16"></rect>
                            <path d="M8,1 C4.134375,1 1,4.134375 1,8 C1,11.865625 4.134375,15 8,15 C11.865625,15 15,11.865625 15,8 C15,4.134375 11.865625,1 8,1 Z M8,13.8125 C4.790625,13.8125 2.1875,11.209375 2.1875,8 C2.1875,4.790625 4.790625,2.1875 8,2.1875 C11.209375,2.1875 13.8125,4.790625 13.8125,8 C13.8125,11.209375 11.209375,13.8125 8,13.8125 Z" id="Shape" fill="#FFFFFF"></path>
                            <path d="M7.25,5.25 C7.25,5.66421356 7.58578644,6 8,6 C8.41421356,6 8.75,5.66421356 8.75,5.25 C8.75,4.83578644 8.41421356,4.5 8,4.5 C7.58578644,4.5 7.25,4.83578644 7.25,5.25 Z" id="Shape" fill="#FFFFFF"></path>
                            <path d="M8.375,7 L7.625,7 C7.55625,7 7.5,7.05625 7.5,7.125 L7.5,11.375 C7.5,11.44375 7.55625,11.5 7.625,11.5 L8.375,11.5 C8.44375,11.5 8.5,11.44375 8.5,11.375 L8.5,7.125 C8.5,7.05625 8.44375,7 8.375,7 Z" id="Shape" fill="#FFFFFF"></path>
                        </g>
                        <text id="09:38-AM" font-family="STYuanti-SC-Regular, Yuanti SC" font-size="14" font-weight="normal" fill="#FFFFFF">
                            <tspan x="20.076" y="15">09:38 AM</tspan>
                        </text>
                        <text id="事件核实" font-family="PingFangSC-Regular, PingFang SC" font-size="20" font-weight="normal" fill="#FFFFFF">
                            <tspan x="40" y="47">事件核实</tspan>
                        </text>
                    </g>
                </g>
            </g>
            <g id="arrow-left" transform="translate(1433.000000, 867.000000)" fill="url(#linearGradient-28)" fill-rule="nonzero">
                <path d="M92.9205161,30.1074286 C92.9205161,31.3691429 92.5334684,32.4464762 91.7593732,33.3394286 C90.9852779,34.2323809 89.9795636,34.6788571 88.7422303,34.6788571 L23.2502857,34.6788571 L33.7142857,45.1794286 C34.6194286,46.0358095 35.072,47.1070476 35.072,48.3931429 C35.072,49.6792381 34.6194286,50.7504762 33.7142857,51.6068572 L31.0354286,54.3222857 C30.1546666,55.2030477 29.0834285,55.6434286 27.8217142,55.6434286 C26.5843809,55.6434286 25.5009524,55.2030477 24.5714286,54.3222857 L1.32114287,31.0354286 C0.440380958,30.1546667 0,29.0834286 0,27.8217143 C0,26.584381 0.440380958,25.5009524 1.32114287,24.5714286 L24.5714286,1.35771431 C25.4765714,0.452571437 26.56,0 27.8217142,0 C29.0590476,0 30.1302857,0.452571437 31.0354286,1.35771431 L33.7142857,4 C34.6194286,4.90514288 35.072,5.98857144 35.072,7.25028569 C35.072,8.51199994 34.6194286,9.5954285 33.7142857,10.5005714 L23.2502857,20.9645714 L88.7422303,20.9645714 C89.9795636,20.9645714 90.9852779,21.4110476 91.7593732,22.3039999 C92.5334684,23.1969523 92.9205161,24.2742856 92.9205161,25.5359999 L92.9205161,30.1074286 Z" id="Shape"></path>
            </g>
            <path d="M1856.21,767.12 C1858.85001,767.12 1861.09999,767.709994 1862.96,768.89 C1864.82001,770.070006 1866.32999,771.64999 1867.49,773.63 C1868.65001,775.61001 1869.49,777.899987 1870.01,780.5 C1870.53,783.100013 1870.79,785.839986 1870.79,788.72 C1870.79,791.600014 1870.49,794.339987 1869.89,796.94 C1869.29,799.540013 1868.39001,801.81999 1867.19,803.78 C1865.98999,805.74001 1864.47001,807.299994 1862.63,808.46 C1860.78999,809.620006 1858.63001,810.2 1856.15,810.2 C1853.66999,810.2 1851.52001,809.630006 1849.7,808.49 C1847.87999,807.349994 1846.37001,805.81001 1845.17,803.87 C1843.96999,801.92999 1843.08,799.670013 1842.5,797.09 C1841.92,794.509987 1841.63,791.780014 1841.63,788.9 C1841.63,786.019986 1841.9,783.260013 1842.44,780.62 C1842.98,777.979987 1843.82999,775.66001 1844.99,773.66 C1846.15001,771.65999 1847.65999,770.070006 1849.52,768.89 C1851.38001,767.709994 1853.60999,767.12 1856.21,767.12 Z M1856.21,802.64 C1857.49001,802.64 1858.58,802.230004 1859.48,801.41 C1860.38,800.589996 1861.1,799.520007 1861.64,798.2 C1862.18,796.879993 1862.57,795.400008 1862.81,793.76 C1863.05,792.119992 1863.17,790.460008 1863.17,788.78 C1863.17,787.059991 1863.05,785.310009 1862.81,783.53 C1862.57,781.749991 1862.17,780.140007 1861.61,778.7 C1861.05,777.259993 1860.33,776.090004 1859.45,775.19 C1858.57,774.289996 1857.49001,773.84 1856.21,773.84 C1854.92999,773.84 1853.85,774.289996 1852.97,775.19 C1852.09,776.090004 1851.37,777.259993 1850.81,778.7 C1850.25,780.140007 1849.84,781.749991 1849.58,783.53 C1849.32,785.310009 1849.19,787.099991 1849.19,788.9 C1849.19,790.580008 1849.31,792.249992 1849.55,793.91 C1849.79,795.570008 1850.19,797.039994 1850.75,798.32 C1851.31,799.600006 1852.03,800.639996 1852.91,801.44 C1853.79,802.240004 1854.88999,802.64 1856.21,802.64 Z M1890.77,795.26 C1890.33,795.460001 1889.97,795.58 1889.69,795.62 C1889.41,795.66 1889.13,795.68 1888.85,795.68 C1886.76999,795.68 1884.91001,795.330003 1883.27,794.63 C1881.62999,793.929997 1880.24001,792.950006 1879.1,791.69 C1877.95999,790.429994 1877.09,788.930009 1876.49,787.19 C1875.89,785.449991 1875.59,783.520011 1875.59,781.4 C1875.59,779.679991 1875.89,777.960009 1876.49,776.24 C1877.09,774.519991 1877.95999,772.990007 1879.1,771.65 C1880.24001,770.309993 1881.62999,769.220004 1883.27,768.38 C1884.91001,767.539996 1886.78999,767.12 1888.91,767.12 C1890.99001,767.12 1892.84999,767.519996 1894.49,768.32 C1896.13001,769.120004 1897.49999,770.179993 1898.6,771.5 C1899.70001,772.820007 1900.54,774.339991 1901.12,776.06 C1901.7,777.780009 1901.99,779.559991 1901.99,781.4 C1901.99,783.920013 1901.66,786.479987 1901,789.08 C1900.34,791.680013 1899.40001,794.189988 1898.18,796.61 C1896.95999,799.030012 1895.50001,801.299989 1893.8,803.42 C1892.09999,805.540011 1890.23001,807.379992 1888.19,808.94 C1887.06999,809.740004 1886.09,810.16 1885.25,810.2 C1884.41,810.24 1883.55,809.820004 1882.67,808.94 C1882.11,808.299997 1881.78,807.570004 1881.68,806.75 C1881.58,805.929996 1881.93,805.240003 1882.73,804.68 C1884.33001,803.519994 1885.76999,802.250007 1887.05,800.87 C1888.33001,799.489993 1889.56999,797.620012 1890.77,795.26 Z M1888.91,773.84 C1887.95,773.84 1887.1,774.059998 1886.36,774.5 C1885.62,774.940002 1884.99,775.509996 1884.47,776.21 C1883.95,776.910004 1883.55,777.709995 1883.27,778.61 C1882.99,779.510005 1882.85,780.439995 1882.85,781.4 C1882.85,783.840012 1883.36999,785.709993 1884.41,787.01 C1885.45001,788.310006 1886.92999,788.96 1888.85,788.96 C1890.77001,788.96 1892.22999,788.310006 1893.23,787.01 C1894.23,785.709993 1894.73,783.840012 1894.73,781.4 C1894.73,780.439995 1894.6,779.510005 1894.34,778.61 C1894.08,777.709995 1893.7,776.910004 1893.2,776.21 C1892.7,775.509996 1892.09,774.940002 1891.37,774.5 C1890.65,774.059998 1889.83,773.84 1888.91,773.84 Z M1908.71,805.46 C1908.71,804.299994 1909.1,803.330004 1909.88,802.55 C1910.66,801.769996 1911.62999,801.38 1912.79,801.38 C1913.95001,801.38 1914.92,801.769996 1915.7,802.55 C1916.48,803.330004 1916.87,804.299994 1916.87,805.46 C1916.87,806.620006 1916.48,807.589996 1915.7,808.37 C1914.92,809.150004 1913.95001,809.54 1912.79,809.54 C1911.62999,809.54 1910.66,809.150004 1909.88,808.37 C1909.1,807.589996 1908.71,806.620006 1908.71,805.46 Z M1908.71,783.8 C1908.71,782.639994 1909.1,781.670004 1909.88,780.89 C1910.66,780.109996 1911.62999,779.72 1912.79,779.72 C1913.95001,779.72 1914.92,780.109996 1915.7,780.89 C1916.48,781.670004 1916.87,782.639994 1916.87,783.8 C1916.87,784.960006 1916.48,785.929996 1915.7,786.71 C1914.92,787.490004 1913.95001,787.88 1912.79,787.88 C1911.62999,787.88 1910.66,787.490004 1909.88,786.71 C1909.1,785.929996 1908.71,784.960006 1908.71,783.8 Z M1945.25,810.02 C1943.80999,810.02 1942.83,809.840002 1942.31,809.48 C1941.79,809.119998 1941.53,808.520004 1941.53,807.68 L1941.53,801.56 L1926.17,801.56 C1924.92999,801.56 1924.06,801.200004 1923.56,800.48 C1923.06,799.759996 1922.81,798.840006 1922.81,797.72 C1922.81,797.239998 1922.82,796.820002 1922.84,796.46 C1922.86,796.099998 1922.91,795.760002 1922.99,795.44 C1923.07,795.119998 1923.19,794.810001 1923.35,794.51 C1923.51,794.209998 1923.75,793.860002 1924.07,793.46 L1937.69,772.64 C1938.45,771.439994 1939.1,770.470004 1939.64,769.73 C1940.18,768.989996 1940.69,768.410002 1941.17,767.99 C1941.65,767.569998 1942.15,767.290001 1942.67,767.15 C1943.19,767.009999 1943.81,766.94 1944.53,766.94 C1946.21001,766.94 1947.39,767.279997 1948.07,767.96 C1948.75,768.640003 1949.09,769.739992 1949.09,771.26 L1949.09,794.72 L1951.07,794.72 C1952.19001,794.72 1952.75,795.839989 1952.75,798.08 C1952.75,800.400012 1952.19001,801.56 1951.07,801.56 L1949.09,801.56 L1949.09,807.68 C1949.09,808.600005 1948.83,809.219998 1948.31,809.54 C1947.79,809.860002 1946.77001,810.02 1945.25,810.02 Z M1941.53,794.72 L1941.53,778.16 L1931.15,794.72 L1941.53,794.72 Z M1966.49,782.6 C1966.97,782.52 1967.42,782.46 1967.84,782.42 C1968.26,782.38 1968.96999,782.36 1969.97,782.36 C1972.01001,782.36 1973.84999,782.679997 1975.49,783.32 C1977.13001,783.960003 1978.52999,784.879994 1979.69,786.08 C1980.85001,787.280006 1981.74,788.719992 1982.36,790.4 C1982.98,792.080008 1983.29,793.95999 1983.29,796.04 C1983.29,797.920009 1982.94,799.719991 1982.24,801.44 C1981.54,803.160009 1980.56001,804.679993 1979.3,806 C1978.03999,807.320007 1976.55001,808.359996 1974.83,809.12 C1973.10999,809.880004 1971.23001,810.24 1969.19,810.2 C1966.78999,810.2 1964.75001,809.840004 1963.07,809.12 C1961.38999,808.399996 1959.79001,807.120009 1958.27,805.28 C1957.55,804.599997 1957.16,803.830004 1957.1,802.97 C1957.04,802.109996 1957.47,801.040006 1958.39,799.76 C1958.71,799.319998 1959.19,799.030001 1959.83,798.89 C1960.47,798.749999 1961.13,799.039996 1961.81,799.76 C1962.77,800.800005 1963.92999,801.639997 1965.29,802.28 C1966.65001,802.920003 1967.84999,803.24 1968.89,803.24 C1969.97001,803.24 1970.93,803.000002 1971.77,802.52 C1972.61,802.039998 1973.32,801.430004 1973.9,800.69 C1974.48,799.949996 1974.92,799.150004 1975.22,798.29 C1975.52,797.429996 1975.67,796.600004 1975.67,795.8 C1975.67,793.75999 1975.14001,792.150006 1974.08,790.97 C1973.01999,789.789994 1971.39001,789.2 1969.19,789.2 C1968.23,789.2 1967.4,789.22 1966.7,789.26 C1966,789.3 1965.37,789.369999 1964.81,789.47 C1964.25,789.57 1963.75,789.709999 1963.31,789.89 C1962.87,790.070001 1962.41,790.319998 1961.93,790.64 C1961.57,790.880001 1961.19,791 1960.79,791 C1960.39,791 1960.02,790.880001 1959.68,790.64 C1959.34,790.399999 1959.08,790.040002 1958.9,789.56 C1958.72,789.079998 1958.69,788.480004 1958.81,787.76 L1961.27,771.14 C1961.47,769.979994 1961.78,769.150003 1962.2,768.65 C1962.62,768.149998 1963.40999,767.9 1964.57,767.9 L1980.23,767.9 C1981.47001,767.9 1982.09,769.059988 1982.09,771.38 C1982.09,773.700012 1981.47001,774.86 1980.23,774.86 L1967.63,774.86 L1966.49,782.6 Z M2011.01,798.44 L2008.55,805.34 C2008.35,805.900003 2008.15,806.439997 2007.95,806.96 C2007.75,807.480003 2007.52,807.959998 2007.26,808.4 C2007,808.840002 2006.7,809.189999 2006.36,809.45 C2006.02,809.710001 2005.63,809.84 2005.19,809.84 C2004.39,809.84 2003.77,809.590002 2003.33,809.09 C2002.89,808.589997 2002.89,807.660007 2003.33,806.3 L2015.93,769.64 C2016.13,768.999997 2016.48,768.490002 2016.98,768.11 C2017.48,767.729998 2018.13,767.54 2018.93,767.54 C2019.77,767.54 2020.45,767.729998 2020.97,768.11 C2021.49,768.490002 2021.85,768.999997 2022.05,769.64 L2034.71,806.42 C2035.03,807.380005 2035.05,808.189997 2034.77,808.85 C2034.49,809.510003 2033.83001,809.84 2032.79,809.84 C2032.11,809.88 2031.56,809.690002 2031.14,809.27 C2030.72,808.849998 2030.41,808.300003 2030.21,807.62 L2026.91,798.44 L2011.01,798.44 Z M2025.83,794.24 L2018.99,773.66 L2012.15,794.24 L2025.83,794.24 Z M2083.13,806.42 C2083.25,807.260004 2083.22,808.029997 2083.04,808.73 C2082.86,809.430003 2082.21001,809.8 2081.09,809.84 C2080.37,809.84 2079.85,809.630002 2079.53,809.21 C2079.21,808.789998 2078.97,808.080005 2078.81,807.08 L2075.33,783.14 C2075.21,782.379996 2075.06,781.440006 2074.88,780.32 C2074.7,779.199994 2074.5,778.230004 2074.28,777.41 C2074.06,776.589996 2073.82,776.060001 2073.56,775.82 C2073.3,775.579999 2073.03,775.939995 2072.75,776.9 L2063.81,807.68 C2063.61,808.440004 2063.36,808.989998 2063.06,809.33 C2062.76,809.670002 2062.29,809.84 2061.65,809.84 C2060.97,809.84 2060.49,809.690001 2060.21,809.39 C2059.93,809.089998 2059.67,808.520004 2059.43,807.68 C2057.90999,802.519974 2056.38001,797.400025 2054.84,792.32 C2053.29999,787.239975 2051.81001,782.120026 2050.37,776.96 C2050.09,775.999995 2049.8,775.52 2049.5,775.52 C2049.2,775.52 2048.97,775.999995 2048.81,776.96 L2044.37,806.96 C2044.25,807.880005 2044.02,808.589997 2043.68,809.09 C2043.34,809.590002 2042.71,809.84 2041.79,809.84 C2040.26999,809.84 2039.69,808.84001 2040.05,806.84 L2045.51,771.14 C2045.67,769.939994 2046.06,769.040003 2046.68,768.44 C2047.3,767.839997 2048.10999,767.54 2049.11,767.54 C2050.11001,767.54 2050.94,767.799997 2051.6,768.32 C2052.26,768.840003 2052.79,769.759993 2053.19,771.08 L2061.71,801.14 L2070.05,771.02 C2070.41,769.739994 2070.92,768.840003 2071.58,768.32 C2072.24,767.799997 2073.05,767.54 2074.01,767.54 C2074.97,767.54 2075.78,767.839997 2076.44,768.44 C2077.1,769.040003 2077.53,769.959994 2077.73,771.2 L2083.13,806.42 Z" id="09:45-AM" fill="#FFFFFF"></path>
        </g>
    </g>
</svg>