<?xml version="1.0" encoding="UTF-8"?>
<svg width="1250px" height="700px" viewBox="0 0 1625 890" version="1.1" xmlns="http://www.w3.org/2000/svg" xmlns:xlink="http://www.w3.org/1999/xlink">
    <!-- Generator: Sketch 49.3 (51167) - http://www.bohemiancoding.com/sketch -->
    <title></title>
    <desc>Created with Sketch.</desc>
    <defs>
        <radialGradient cx="1.66103553%" cy="-73.1225439%" fx="1.66103553%" fy="-73.1225439%" r="375.673453%" gradientTransform="translate(0.016610,-0.731225),scale(0.056615,1.000000),rotate(21.461577),translate(-0.016610,0.731225)" id="radialGradient-1">
            <stop stop-color="#FFFFFF" stop-opacity="0.199190444" offset="0%"></stop>
            <stop stop-color="#FFFFFF" stop-opacity="0" offset="100%"></stop>
        </radialGradient>
        <rect id="path-2" x="0" y="818" width="1625" height="92"></rect>
        <radialGradient cx="3.87276374%" cy="0%" fx="3.87276374%" fy="0%" r="213.352254%" gradientTransform="translate(0.038728,0.000000),scale(0.273504,1.000000),rotate(10.928328),translate(-0.038728,-0.000000)" id="radialGradient-3">
            <stop stop-color="#FFFFFF" stop-opacity="0.5" offset="0%"></stop>
            <stop stop-color="#6B4AD5" stop-opacity="0" offset="100%"></stop>
        </radialGradient>
        <rect id="path-4" x="0" y="0" width="351" height="96" rx="12"></rect>
        <rect id="path-5" x="0" y="0" width="351" height="96" rx="12"></rect>
        <filter x="-3.1%" y="-7.3%" width="106.3%" height="122.9%" filterUnits="objectBoundingBox" id="filter-6">
            <feOffset dx="0" dy="4" in="SourceAlpha" result="shadowOffsetOuter1"></feOffset>
            <feGaussianBlur stdDeviation="3" in="shadowOffsetOuter1" result="shadowBlurOuter1"></feGaussianBlur>
            <feComposite in="shadowBlurOuter1" in2="SourceAlpha" operator="out" result="shadowBlurOuter1"></feComposite>
            <feColorMatrix values="0 0 0 0 0   0 0 0 0 0   0 0 0 0 0  0 0 0 0.2 0" type="matrix" in="shadowBlurOuter1"></feColorMatrix>
        </filter>
        <linearGradient x1="50%" y1="0%" x2="50%" y2="100%" id="linearGradient-7">
            <stop stop-color="#1A67C4" offset="0%"></stop>
            <stop stop-color="#0F2978" offset="100%"></stop>
        </linearGradient>
        <rect id="path-8" x="0" y="21" width="140" height="40" rx="4"></rect>
        <filter x="-7.9%" y="-17.5%" width="115.7%" height="155.0%" filterUnits="objectBoundingBox" id="filter-9">
            <feOffset dx="0" dy="4" in="SourceAlpha" result="shadowOffsetOuter1"></feOffset>
            <feGaussianBlur stdDeviation="3" in="shadowOffsetOuter1" result="shadowBlurOuter1"></feGaussianBlur>
            <feColorMatrix values="0 0 0 0 0   0 0 0 0 0   0 0 0 0 0  0 0 0 0.2 0" type="matrix" in="shadowBlurOuter1"></feColorMatrix>
        </filter>
        <rect id="path-10" x="0" y="21" width="140" height="40" rx="4"></rect>
        <filter x="-7.9%" y="-17.5%" width="115.7%" height="155.0%" filterUnits="objectBoundingBox" id="filter-11">
            <feOffset dx="0" dy="4" in="SourceAlpha" result="shadowOffsetOuter1"></feOffset>
            <feGaussianBlur stdDeviation="3" in="shadowOffsetOuter1" result="shadowBlurOuter1"></feGaussianBlur>
            <feColorMatrix values="0 0 0 0 0   0 0 0 0 0   0 0 0 0 0  0 0 0 0.2 0" type="matrix" in="shadowBlurOuter1"></feColorMatrix>
        </filter>
        <rect id="path-12" x="0" y="21" width="140" height="40" rx="4"></rect>
        <filter x="-7.9%" y="-17.5%" width="115.7%" height="155.0%" filterUnits="objectBoundingBox" id="filter-13">
            <feOffset dx="0" dy="4" in="SourceAlpha" result="shadowOffsetOuter1"></feOffset>
            <feGaussianBlur stdDeviation="3" in="shadowOffsetOuter1" result="shadowBlurOuter1"></feGaussianBlur>
            <feColorMatrix values="0 0 0 0 0   0 0 0 0 0   0 0 0 0 0  0 0 0 0.2 0" type="matrix" in="shadowBlurOuter1"></feColorMatrix>
        </filter>
        <rect id="path-14" x="0" y="49" width="351" height="96" rx="12"></rect>
        <rect id="path-15" x="0" y="49" width="351" height="96" rx="12"></rect>
        <filter x="-3.1%" y="-7.3%" width="106.3%" height="122.9%" filterUnits="objectBoundingBox" id="filter-16">
            <feOffset dx="0" dy="4" in="SourceAlpha" result="shadowOffsetOuter1"></feOffset>
            <feGaussianBlur stdDeviation="3" in="shadowOffsetOuter1" result="shadowBlurOuter1"></feGaussianBlur>
            <feComposite in="shadowBlurOuter1" in2="SourceAlpha" operator="out" result="shadowBlurOuter1"></feComposite>
            <feColorMatrix values="0 0 0 0 0   0 0 0 0 0   0 0 0 0 0  0 0 0 0.2 0" type="matrix" in="shadowBlurOuter1"></feColorMatrix>
        </filter>
        <linearGradient x1="50%" y1="103.138076%" x2="50%" y2="1.42247325e-14%" id="linearGradient-17">
            <stop stop-color="#FFA900" offset="0%"></stop>
            <stop stop-color="#FF0000" offset="100%"></stop>
        </linearGradient>
        <path d="M156.197459,38.159824 C156.066655,38.4186818 155.998998,38.7047646 156.000011,38.9947179 L156.000011,39.1560625 L156.012833,39.2969188 C156.082068,39.629852 156.169253,39.8296119 156.294901,40.0037615 C156.412115,40.232533 156.587134,40.4267536 156.802625,40.5671869 L156.476964,40.2777912 L156.605177,40.4135254 C156.648217,40.4586498 156.700773,40.4936426 156.759033,40.5159664 L156.897503,40.6491397 C156.974431,40.7003602 157.04623,40.7336535 157.128287,40.7464586 L157.002638,40.7054822 C157.194957,40.8309724 157.425741,40.9103641 157.67191,40.9359744 L157.466769,40.9052421 C157.6565,40.9666521 157.854545,40.9986102 158.053985,41 L158.307847,41 C158.652348,40.9602141 158.983094,40.8419265 159.274574,40.6542617 L176.501288,29.7212487 L193.938271,40.7567027 C194.030584,40.8181673 194.143412,40.8591437 194.261368,40.8796318 L194.115205,40.8412165 L194.243418,40.8847539 L194.422916,40.9410964 L194.592158,40.9769508 C194.659409,40.9847967 194.72703,40.9890711 194.794734,40.9897559 L194.971669,40.9897559 C195.135781,40.9897559 195.305023,40.9692677 195.469135,40.9206082 C195.64977,40.8640452 195.836625,40.8296454 196.02558,40.8181673 L195.669148,40.8617047 C195.867349,40.7974613 196.048692,40.6898426 196.19995,40.5466987 L195.981988,40.7208484 C196.26478,40.5632376 196.514622,40.3528354 196.717931,40.1010804 L196.182,40.5927971 L196.402527,40.4212085 L196.49484,40.3290116 C196.596069,40.2152478 196.674423,40.0830843 196.725624,39.9397359 L196.623053,40.1651061 L196.694853,40.0447379 L196.766652,39.9294918 C196.807143,39.8714925 196.833487,39.8048374 196.84358,39.734854 C196.924757,39.5943939 196.969697,39.4359818 196.974357,39.2738696 C196.974357,39.4096039 196.994871,39.2815527 197,39.1509404 L197,38.9486195 L196.994871,38.8000801 L196.9641,38.6361745 C196.943586,38.5439776 196.930765,38.5158064 196.930765,38.479952 C196.918071,38.4122776 196.891912,38.3478343 196.853837,38.2904362 C196.727013,38.0147118 196.643961,37.7209417 196.607668,37.4196879 L178.378328,1.13765577 C178.023943,0.441487064 177.308891,0.00231547765 176.52693,0.000560959626 C175.731948,-0.0178042988 174.995414,0.416013774 174.626812,1.11972863 L156.197459,38.159824 Z" id="path-18"></path>
        <filter x="-19.5%" y="-29.3%" width="139.0%" height="139.0%" filterUnits="objectBoundingBox" id="filter-19">
            <feOffset dx="0" dy="-4" in="SourceAlpha" result="shadowOffsetOuter1"></feOffset>
            <feGaussianBlur stdDeviation="2" in="shadowOffsetOuter1" result="shadowBlurOuter1"></feGaussianBlur>
            <feColorMatrix values="0 0 0 0 0   0 0 0 0 0   0 0 0 0 0  0 0 0 0.1 0" type="matrix" in="shadowBlurOuter1"></feColorMatrix>
        </filter>
        <rect id="path-20" x="36" y="21" width="140" height="40" rx="4"></rect>
        <filter x="-7.9%" y="-17.5%" width="115.7%" height="155.0%" filterUnits="objectBoundingBox" id="filter-21">
            <feOffset dx="0" dy="4" in="SourceAlpha" result="shadowOffsetOuter1"></feOffset>
            <feGaussianBlur stdDeviation="3" in="shadowOffsetOuter1" result="shadowBlurOuter1"></feGaussianBlur>
            <feColorMatrix values="0 0 0 0 0   0 0 0 0 0   0 0 0 0 0  0 0 0 0.2 0" type="matrix" in="shadowBlurOuter1"></feColorMatrix>
        </filter>
        <linearGradient x1="50%" y1="0%" x2="50%" y2="100%" id="linearGradient-22">
            <stop stop-color="#FAD961" offset="0%"></stop>
            <stop stop-color="#F76B1C" offset="100%"></stop>
        </linearGradient>
        <rect id="path-23" x="66" y="21" width="140" height="40" rx="4"></rect>
        <filter x="-7.9%" y="-17.5%" width="115.7%" height="155.0%" filterUnits="objectBoundingBox" id="filter-24">
            <feOffset dx="0" dy="4" in="SourceAlpha" result="shadowOffsetOuter1"></feOffset>
            <feGaussianBlur stdDeviation="3" in="shadowOffsetOuter1" result="shadowBlurOuter1"></feGaussianBlur>
            <feColorMatrix values="0 0 0 0 0   0 0 0 0 0   0 0 0 0 0  0 0 0 0.2 0" type="matrix" in="shadowBlurOuter1"></feColorMatrix>
        </filter>
        <rect id="path-25" x="0" y="21" width="140" height="40" rx="4"></rect>
        <filter x="-7.9%" y="-17.5%" width="115.7%" height="155.0%" filterUnits="objectBoundingBox" id="filter-26">
            <feOffset dx="0" dy="4" in="SourceAlpha" result="shadowOffsetOuter1"></feOffset>
            <feGaussianBlur stdDeviation="3" in="shadowOffsetOuter1" result="shadowBlurOuter1"></feGaussianBlur>
            <feColorMatrix values="0 0 0 0 0   0 0 0 0 0   0 0 0 0 0  0 0 0 0.2 0" type="matrix" in="shadowBlurOuter1"></feColorMatrix>
        </filter>
        <linearGradient x1="0%" y1="50%" x2="100%" y2="50%" id="linearGradient-27">
            <stop stop-color="#8CFF00" offset="0%"></stop>
            <stop stop-color="#00CFFF" stop-opacity="0" offset="100%"></stop>
        </linearGradient>
    </defs>
    <g id="Page-1" stroke="none" stroke-width="1" fill="none" fill-rule="evenodd">
        <g id="Artboard-2-Copy-3" transform="translate(0.000000, -20.000000)">
            <g id="Group-35-Copy">
                <g id="Rectangle-8">
                    <use fill="#223167" xlink:href="#path-2"></use>
                    <use fill="url(#radialGradient-1)" xlink:href="#path-2"></use>
                </g>
            </g>
            <g id="Group-5" transform="translate(1222.000000, 69.000000)">
                <g id="Group-4">
                    <g id="Rectangle-2-Copy">
                        <use fill="#6848CE" xlink:href="#path-4"></use>
                        <use fill="url(#radialGradient-3)" xlink:href="#path-4"></use>
                    </g>
                    <g id="Rectangle-7">
                        <use fill="black" fill-opacity="1" filter="url(#filter-6)" xlink:href="#path-5"></use>
                        <use fill-opacity="0.2" fill="#FFFFFF" fill-rule="evenodd" xlink:href="#path-5"></use>
                    </g>
                    <text id="事故单位" font-family="STYuanti-SC-Regular, Yuanti SC" font-size="30" font-weight="normal" fill="#FFFFFF">
                        <tspan x="116" y="56">事故单位</tspan>
                    </text>
                </g>
                <g id="Group" transform="translate(106.000000, 120.000000)">
                    <g id="Rectangle-3-Copy-3">
                        <use fill="black" fill-opacity="1" filter="url(#filter-9)" xlink:href="#path-8"></use>
                        <use fill="url(#linearGradient-7)" fill-rule="evenodd" xlink:href="#path-8"></use>
                    </g>
                    <text id="09:35-AM" font-family="STYuanti-SC-Regular, Yuanti SC" font-size="14" font-weight="normal" fill="#FFFFFF">
                        <tspan x="0.251" y="15">09:35 AM</tspan>
                    </text>
                    <text id="危化品泄露" font-family="PingFangSC-Regular, PingFang SC" font-size="18" font-weight="normal" fill="#FFFFFF">
                        <tspan x="30" y="47">危化品泄露</tspan>
                    </text>
                </g>
                <g id="Group-Copy" transform="translate(230.000000, 205.000000)">
                    <g id="Rectangle-3-Copy-3">
                        <use fill="black" fill-opacity="1" filter="url(#filter-11)" xlink:href="#path-10"></use>
                        <use fill="url(#linearGradient-7)" fill-rule="evenodd" xlink:href="#path-10"></use>
                    </g>
                    <g id="info-circle" transform="translate(145.000000, 21.000000)" fill-rule="nonzero">
                        <rect id="Rectangle-path" fill="#000000" opacity="0" x="0" y="0" width="16" height="16"></rect>
                        <path d="M8,1 C4.134375,1 1,4.134375 1,8 C1,11.865625 4.134375,15 8,15 C11.865625,15 15,11.865625 15,8 C15,4.134375 11.865625,1 8,1 Z M8,13.8125 C4.790625,13.8125 2.1875,11.209375 2.1875,8 C2.1875,4.790625 4.790625,2.1875 8,2.1875 C11.209375,2.1875 13.8125,4.790625 13.8125,8 C13.8125,11.209375 11.209375,13.8125 8,13.8125 Z" id="Shape" fill="#FFFFFF"></path>
                        <path d="M7.25,5.25 C7.25,5.66421356 7.58578644,6 8,6 C8.41421356,6 8.75,5.66421356 8.75,5.25 C8.75,4.83578644 8.41421356,4.5 8,4.5 C7.58578644,4.5 7.25,4.83578644 7.25,5.25 Z" id="Shape" fill="#FFFFFF"></path>
                        <path d="M8.375,7 L7.625,7 C7.55625,7 7.5,7.05625 7.5,7.125 L7.5,11.375 C7.5,11.44375 7.55625,11.5 7.625,11.5 L8.375,11.5 C8.44375,11.5 8.5,11.44375 8.5,11.375 L8.5,7.125 C8.5,7.05625 8.44375,7 8.375,7 Z" id="Shape" fill="#FFFFFF"></path>
                    </g>
                    <g id="message" transform="translate(144.000000, 45.000000)" fill-rule="nonzero">
                        <rect id="Rectangle-path" fill="#000000" opacity="0" x="0" y="0" width="16" height="16"></rect>
                        <path d="M7.25,8 C7.25,8.41421356 7.58578644,8.75 8,8.75 C8.41421356,8.75 8.75,8.41421356 8.75,8 C8.75,7.58578644 8.41421356,7.25 8,7.25 C7.58578644,7.25 7.25,7.58578644 7.25,8 Z M10.375,8 C10.375,8.41421356 10.7107864,8.75 11.125,8.75 C11.5392136,8.75 11.875,8.41421356 11.875,8 C11.875,7.58578644 11.5392136,7.25 11.125,7.25 C10.7107864,7.25 10.375,7.58578644 10.375,8 Z M4.125,8 C4.125,8.41421356 4.46078644,8.75 4.875,8.75 C5.28921356,8.75 5.625,8.41421356 5.625,8 C5.625,7.58578644 5.28921356,7.25 4.875,7.25 C4.46078644,7.25 4.125,7.58578644 4.125,8 Z M14.45625,5.2875 C14.103125,4.4484375 13.596875,3.6953125 12.9515625,3.0484375 C12.30625,2.403125 11.553125,1.8953125 10.7125,1.54375 C9.853125,1.1828125 8.940625,1 8,1 L7.96875,1 C7.021875,1.0046875 6.1046875,1.1921875 5.2421875,1.5609375 C4.409375,1.9171875 3.6625,2.4234375 3.0234375,3.06875 C2.384375,3.7140625 1.8828125,4.4640625 1.5359375,5.3 C1.1765625,6.165625 0.9953125,7.0859375 1,8.0328125 C1.0046875,9.1171875 1.2640625,10.19375 1.75,11.15625 L1.75,13.53125 C1.75,13.928125 2.071875,14.25 2.46875,14.25 L4.8453125,14.25 C5.8078125,14.7359375 6.884375,14.9953125 7.96875,15 L8.0015625,15 C8.9375,15 9.8453125,14.81875 10.7,14.4640625 C11.5359375,14.115625 12.2875,13.615625 12.93125,12.9765625 C13.5765625,12.3375 14.084375,11.590625 14.4390625,10.7578125 C14.8078125,9.8953125 14.9953125,8.978125 15,8.03125 C15.0046875,7.0796875 14.8203125,6.15625 14.45625,5.2875 Z M12.0953125,12.13125 C11,13.215625 9.546875,13.8125 8,13.8125 L7.9734375,13.8125 C7.03125,13.8078125 6.0953125,13.5734375 5.26875,13.1328125 L5.1375,13.0625 L2.9375,13.0625 L2.9375,10.8625 L2.8671875,10.73125 C2.4265625,9.9046875 2.1921875,8.96875 2.1875,8.0265625 C2.18125,6.46875 2.7765625,5.00625 3.86875,3.9046875 C4.959375,2.803125 6.4171875,2.19375 7.975,2.1875 L8.0015625,2.1875 C8.7828125,2.1875 9.540625,2.3390625 10.2546875,2.6390625 C10.9515625,2.93125 11.5765625,3.3515625 12.1140625,3.8890625 C12.65,4.425 13.071875,5.0515625 13.3640625,5.7484375 C13.6671875,6.4703125 13.81875,7.2359375 13.815625,8.0265625 C13.80625,9.5828125 13.1953125,11.040625 12.0953125,12.13125 Z" id="Shape" fill="#FFFFFF"></path>
                    </g>
                    <text id="09:37-AM" font-family="STYuanti-SC-Regular, Yuanti SC" font-size="14" font-weight="normal" fill="#FFFFFF">
                        <tspan x="0.398" y="15">09:37 AM</tspan>
                    </text>
                    <text id="先期处置" font-family="PingFangSC-Regular, PingFang SC" font-size="18" font-weight="normal" fill="#FFFFFF">
                        <tspan x="39" y="47">先期处置</tspan>
                    </text>
                </g>
                <g id="Group-Copy-6" transform="translate(0.000000, 205.000000)">
                    <g id="Rectangle-3-Copy-3">
                        <use fill="black" fill-opacity="1" filter="url(#filter-13)" xlink:href="#path-12"></use>
                        <use fill="url(#linearGradient-7)" fill-rule="evenodd" xlink:href="#path-12"></use>
                    </g>
                    <g id="info-circle" transform="translate(144.000000, 21.000000)" fill-rule="nonzero">
                        <rect id="Rectangle-path" fill="#000000" opacity="0" x="0" y="0" width="16" height="16"></rect>
                        <path d="M8,1 C4.134375,1 1,4.134375 1,8 C1,11.865625 4.134375,15 8,15 C11.865625,15 15,11.865625 15,8 C15,4.134375 11.865625,1 8,1 Z M8,13.8125 C4.790625,13.8125 2.1875,11.209375 2.1875,8 C2.1875,4.790625 4.790625,2.1875 8,2.1875 C11.209375,2.1875 13.8125,4.790625 13.8125,8 C13.8125,11.209375 11.209375,13.8125 8,13.8125 Z" id="Shape" fill="#FFFFFF"></path>
                        <path d="M7.25,5.25 C7.25,5.66421356 7.58578644,6 8,6 C8.41421356,6 8.75,5.66421356 8.75,5.25 C8.75,4.83578644 8.41421356,4.5 8,4.5 C7.58578644,4.5 7.25,4.83578644 7.25,5.25 Z" id="Shape" fill="#FFFFFF"></path>
                        <path d="M8.375,7 L7.625,7 C7.55625,7 7.5,7.05625 7.5,7.125 L7.5,11.375 C7.5,11.44375 7.55625,11.5 7.625,11.5 L8.375,11.5 C8.44375,11.5 8.5,11.44375 8.5,11.375 L8.5,7.125 C8.5,7.05625 8.44375,7 8.375,7 Z" id="Shape" fill="#FFFFFF"></path>
                    </g>
                    <text id="09:37-AM" font-family="STYuanti-SC-Regular, Yuanti SC" font-size="14" font-weight="normal" fill="#FFFFFF">
                        <tspan x="0.398" y="15">09:37 AM</tspan>
                    </text>
                    <text id="信息上报" font-family="PingFangSC-Regular, PingFang SC" font-size="18" font-weight="normal" fill="#FFFFFF">
                        <tspan x="39" y="47">信息上报</tspan>
                    </text>
                </g>
            </g>
            <g id="Group-5-Copy" transform="translate(813.000000, 20.000000)">
                <g id="Group-4">
                    <g id="Rectangle-2-Copy">
                        <use fill="#6848CE" xlink:href="#path-14"></use>
                        <use fill="url(#radialGradient-3)" xlink:href="#path-14"></use>
                    </g>
                    <g id="Rectangle-7">
                        <use fill="black" fill-opacity="1" filter="url(#filter-16)" xlink:href="#path-15"></use>
                        <use fill-opacity="0.2" fill="#FFFFFF" fill-rule="evenodd" xlink:href="#path-15"></use>
                    </g>
                    <g id="Shape" fill-rule="nonzero" transform="translate(176.500000, 20.500000) scale(1, -1) translate(-176.500000, -20.500000) ">
                        <use fill="black" fill-opacity="1" filter="url(#filter-19)" xlink:href="#path-18"></use>
                        <use fill="url(#linearGradient-17)" fill-rule="evenodd" xlink:href="#path-18"></use>
                    </g>
                    <text id="管辖区值守" font-family="STYuanti-SC-Regular, Yuanti SC" font-size="30" font-weight="normal" fill="#FFFFFF">
                        <tspan x="101" y="105">管辖区值守</tspan>
                    </text>
                </g>
                <g id="Group" transform="translate(70.000000, 254.000000)">
                    <g id="Rectangle-3-Copy-3">
                        <use fill="black" fill-opacity="1" filter="url(#filter-21)" xlink:href="#path-20"></use>
                        <use fill="url(#linearGradient-7)" fill-rule="evenodd" xlink:href="#path-20"></use>
                    </g>
                    <g id="info-circle" transform="translate(180.000000, 13.000000)" fill-rule="nonzero">
                        <rect id="Rectangle-path" fill="#000000" opacity="0" x="0" y="0" width="16" height="16"></rect>
                        <path d="M8,1 C4.134375,1 1,4.134375 1,8 C1,11.865625 4.134375,15 8,15 C11.865625,15 15,11.865625 15,8 C15,4.134375 11.865625,1 8,1 Z M8,13.8125 C4.790625,13.8125 2.1875,11.209375 2.1875,8 C2.1875,4.790625 4.790625,2.1875 8,2.1875 C11.209375,2.1875 13.8125,4.790625 13.8125,8 C13.8125,11.209375 11.209375,13.8125 8,13.8125 Z" id="Shape" fill="#FFFFFF"></path>
                        <path d="M7.25,5.25 C7.25,5.66421356 7.58578644,6 8,6 C8.41421356,6 8.75,5.66421356 8.75,5.25 C8.75,4.83578644 8.41421356,4.5 8,4.5 C7.58578644,4.5 7.25,4.83578644 7.25,5.25 Z" id="Shape" fill="#FFFFFF"></path>
                        <path d="M8.375,7 L7.625,7 C7.55625,7 7.5,7.05625 7.5,7.125 L7.5,11.375 C7.5,11.44375 7.55625,11.5 7.625,11.5 L8.375,11.5 C8.44375,11.5 8.5,11.44375 8.5,11.375 L8.5,7.125 C8.5,7.05625 8.44375,7 8.375,7 Z" id="Shape" fill="#FFFFFF"></path>
                    </g>
                    <rect id="Rectangle-43" fill="#D8D8D8" x="107" y="61" width="4" height="13"></rect>
                    <rect id="Rectangle-43-Copy" fill="#D8D8D8" x="2" y="74" width="230" height="4"></rect>
                    <path d="M1.5,74.5 L1.5,95.5" id="Line" stroke="#D8D8D8" stroke-linecap="square"></path>
                    <path id="Line-decoration-1" d="M1.5,95.5 L4.5,84.7 L-1.5,84.7 L1.5,95.5 Z" stroke="#D8D8D8" stroke-linecap="square"></path>
                    <path d="M231.5,74.5 L231.5,95.5" id="Line-Copy" stroke="#D8D8D8" stroke-linecap="square"></path>
                    <path id="Line-Copy-decoration-1" d="M231.5,95.5 L234.5,84.7 L228.5,84.7 L231.5,95.5 Z" stroke="#D8D8D8" stroke-linecap="square"></path>
                    <path d="M338.5,41.5 L180.5,41.5" id="Line-2" stroke="#D8D8D8" stroke-linecap="square"></path>
                    <path id="Line-2-decoration-1" d="M180.5,41.5 L191.3,44.5 L191.3,38.5 L180.5,41.5 Z" stroke="#D8D8D8" stroke-linecap="square"></path>
                    <text id="09:37-AM" font-family="STYuanti-SC-Regular, Yuanti SC" font-size="14" font-weight="normal" fill="#FFFFFF">
                        <tspan x="36.398" y="15">09:37 AM</tspan>
                    </text>
                    <text id="事故接报" font-family="PingFangSC-Regular, PingFang SC" font-size="18" font-weight="normal" fill="#FFFFFF">
                        <tspan x="75" y="47">事故接报</tspan>
                    </text>
                </g>
                <g id="Group-Copy" transform="translate(164.000000, 339.000000)">
                    <g id="Rectangle-3-Copy-3">
                        <use fill="black" fill-opacity="1" filter="url(#filter-24)" xlink:href="#path-23"></use>
                        <use fill="url(#linearGradient-22)" fill-rule="evenodd" xlink:href="#path-23"></use>
                    </g>
                    <g id="Group-3" transform="translate(230.000000, 15.000000)">
                        <path d="M12,21 L-5.2078438e-16,15 L12,9 L12,8 C12,3.581722 15.581722,-5.60317944e-14 20,-5.68434189e-14 L214.980427,-5.68434189e-14 C219.398705,-5.76550434e-14 222.980427,3.581722 222.980427,8 L222.980427,61.1284749 C222.980427,65.5467529 219.398705,69.1284749 214.980427,69.1284749 L20,69.1284749 C15.581722,69.1284749 12,65.5467529 12,61.1284749 L12,21 Z" id="Rectangle" fill="#FFFFFF"></path>
                        <text id="P203,-09:37AM-已派遣。-P" font-family="MicrosoftYaHei, Microsoft YaHei" font-size="14" font-weight="normal" fill="#000000">
                            <tspan x="20" y="21">P203, 09:37AM 已派遣。</tspan>
                            <tspan x="20" y="40">P203, 09:39AM 已到达现场.</tspan>
                            <tspan x="20" y="59">F104, 09:38AM 正在赶往现场。</tspan>
                        </text>
                    </g>
                    <g id="Group-3-Copy" transform="translate(0.000000, 37.000000)" fill="#FFFFFF">
                        <path d="M12,21 L3.6739404e-16,15 L12,9 L12,8 C12,3.581722 15.581722,-5.60317944e-14 20,-5.68434189e-14 L175,-5.86197757e-14 C179.418278,-5.94314002e-14 183,3.581722 183,8 L183,46 C183,50.418278 179.418278,54 175,54 L20,54 C15.581722,54 12,50.418278 12,46 L12,21 Z" id="Rectangle"></path>
                    </g>
                    <g id="reload-time" transform="translate(182.000000, 3.000000)" fill-rule="nonzero">
                        <rect id="Rectangle-path" fill="#000000" opacity="0" x="0" y="0" width="16" height="16"></rect>
                        <path d="M8.3765625,4.265625 L7.625,4.265625 C7.55625,4.265625 7.5,4.321875 7.5,4.390625 L7.5,8.6921875 C7.5,8.7328125 7.51875,8.7703125 7.5515625,8.79375 L10.134375,10.6796875 C10.190625,10.7203125 10.26875,10.709375 10.309375,10.653125 L10.75625,10.04375 C10.7984375,9.9859375 10.7859375,9.9078125 10.7296875,9.86875 L8.5015625,8.2578125 L8.5015625,4.390625 C8.5015625,4.321875 8.4453125,4.265625 8.3765625,4.265625 Z M11.8109375,5.440625 L14.2609375,6.0390625 C14.3390625,6.0578125 14.415625,5.9984375 14.415625,5.91875 L14.428125,3.3953125 C14.428125,3.290625 14.3078125,3.23125 14.2265625,3.296875 L11.7640625,5.2203125 C11.68125,5.2859375 11.709375,5.415625 11.8109375,5.440625 Z M14.43125,10.1453125 L13.5453125,9.840625 C13.48125,9.81875 13.4109375,9.8515625 13.3875,9.915625 C13.3578125,9.9953125 13.3265625,10.0734375 13.29375,10.1515625 C13.015625,10.809375 12.6171875,11.4015625 12.1078125,11.909375 C11.6,12.4171875 11.0078125,12.8171875 10.35,13.0953125 C9.66875,13.3828125 8.9453125,13.5296875 8.1984375,13.5296875 C7.4515625,13.5296875 6.728125,13.384375 6.046875,13.0953125 C5.3890625,12.8171875 4.796875,12.4171875 4.2890625,11.909375 C3.78125,11.4015625 3.3828125,10.809375 3.103125,10.1515625 C2.8171875,9.471875 2.671875,8.746875 2.671875,8 C2.671875,7.253125 2.8171875,6.528125 3.10625,5.846875 C3.384375,5.1890625 3.7828125,4.596875 4.2921875,4.0890625 C4.8,3.58125 5.3921875,3.18125 6.05,2.903125 C6.728125,2.6140625 7.453125,2.46875 8.2,2.46875 C8.946875,2.46875 9.6703125,2.6140625 10.3515625,2.903125 C11.009375,3.18125 11.6015625,3.58125 12.109375,4.0890625 C12.26875,4.25 12.41875,4.4171875 12.55625,4.59375 L13.490625,3.8625 C12.2609375,2.290625 10.346875,1.2796875 8.196875,1.28125 C4.453125,1.2828125 1.446875,4.3234375 1.484375,8.06875 C1.521875,11.7484375 4.5140625,14.71875 8.2,14.71875 C11.0984375,14.71875 13.5671875,12.88125 14.5078125,10.3078125 C14.53125,10.2421875 14.496875,10.16875 14.43125,10.1453125 Z" id="Shape" fill="url(#linearGradient-22)"></path>
                    </g>
                    <g id="info-circle" transform="translate(213.000000, 22.000000)" fill-rule="nonzero">
                        <rect id="Rectangle-path" fill="#000000" opacity="0" x="0" y="0" width="16" height="16"></rect>
                        <path d="M8,1 C4.134375,1 1,4.134375 1,8 C1,11.865625 4.134375,15 8,15 C11.865625,15 15,11.865625 15,8 C15,4.134375 11.865625,1 8,1 Z M8,13.8125 C4.790625,13.8125 2.1875,11.209375 2.1875,8 C2.1875,4.790625 4.790625,2.1875 8,2.1875 C11.209375,2.1875 13.8125,4.790625 13.8125,8 C13.8125,11.209375 11.209375,13.8125 8,13.8125 Z" id="Shape" fill="#FFFFFF"></path>
                        <path d="M7.25,5.25 C7.25,5.66421356 7.58578644,6 8,6 C8.41421356,6 8.75,5.66421356 8.75,5.25 C8.75,4.83578644 8.41421356,4.5 8,4.5 C7.58578644,4.5 7.25,4.83578644 7.25,5.25 Z" id="Shape" fill="#FFFFFF"></path>
                        <path d="M8.375,7 L7.625,7 C7.55625,7 7.5,7.05625 7.5,7.125 L7.5,11.375 C7.5,11.44375 7.55625,11.5 7.625,11.5 L8.375,11.5 C8.44375,11.5 8.5,11.44375 8.5,11.375 L8.5,7.125 C8.5,7.05625 8.44375,7 8.375,7 Z" id="Shape" fill="#FFFFFF"></path>
                    </g>
                    <g id="message" transform="translate(212.000000, 46.000000)" fill-rule="nonzero">
                        <rect id="Rectangle-path" fill="#000000" opacity="0" x="0" y="0" width="16" height="16"></rect>
                        <path d="M7.25,8 C7.25,8.41421356 7.58578644,8.75 8,8.75 C8.41421356,8.75 8.75,8.41421356 8.75,8 C8.75,7.58578644 8.41421356,7.25 8,7.25 C7.58578644,7.25 7.25,7.58578644 7.25,8 Z M10.375,8 C10.375,8.41421356 10.7107864,8.75 11.125,8.75 C11.5392136,8.75 11.875,8.41421356 11.875,8 C11.875,7.58578644 11.5392136,7.25 11.125,7.25 C10.7107864,7.25 10.375,7.58578644 10.375,8 Z M4.125,8 C4.125,8.41421356 4.46078644,8.75 4.875,8.75 C5.28921356,8.75 5.625,8.41421356 5.625,8 C5.625,7.58578644 5.28921356,7.25 4.875,7.25 C4.46078644,7.25 4.125,7.58578644 4.125,8 Z M14.45625,5.2875 C14.103125,4.4484375 13.596875,3.6953125 12.9515625,3.0484375 C12.30625,2.403125 11.553125,1.8953125 10.7125,1.54375 C9.853125,1.1828125 8.940625,1 8,1 L7.96875,1 C7.021875,1.0046875 6.1046875,1.1921875 5.2421875,1.5609375 C4.409375,1.9171875 3.6625,2.4234375 3.0234375,3.06875 C2.384375,3.7140625 1.8828125,4.4640625 1.5359375,5.3 C1.1765625,6.165625 0.9953125,7.0859375 1,8.0328125 C1.0046875,9.1171875 1.2640625,10.19375 1.75,11.15625 L1.75,13.53125 C1.75,13.928125 2.071875,14.25 2.46875,14.25 L4.8453125,14.25 C5.8078125,14.7359375 6.884375,14.9953125 7.96875,15 L8.0015625,15 C8.9375,15 9.8453125,14.81875 10.7,14.4640625 C11.5359375,14.115625 12.2875,13.615625 12.93125,12.9765625 C13.5765625,12.3375 14.084375,11.590625 14.4390625,10.7578125 C14.8078125,9.8953125 14.9953125,8.978125 15,8.03125 C15.0046875,7.0796875 14.8203125,6.15625 14.45625,5.2875 Z M12.0953125,12.13125 C11,13.215625 9.546875,13.8125 8,13.8125 L7.9734375,13.8125 C7.03125,13.8078125 6.0953125,13.5734375 5.26875,13.1328125 L5.1375,13.0625 L2.9375,13.0625 L2.9375,10.8625 L2.8671875,10.73125 C2.4265625,9.9046875 2.1921875,8.96875 2.1875,8.0265625 C2.18125,6.46875 2.7765625,5.00625 3.86875,3.9046875 C4.959375,2.803125 6.4171875,2.19375 7.975,2.1875 L8.0015625,2.1875 C8.7828125,2.1875 9.540625,2.3390625 10.2546875,2.6390625 C10.9515625,2.93125 11.5765625,3.3515625 12.1140625,3.8890625 C12.65,4.425 13.071875,5.0515625 13.3640625,5.7484375 C13.6671875,6.4703125 13.81875,7.2359375 13.815625,8.0265625 C13.80625,9.5828125 13.1953125,11.040625 12.0953125,12.13125 Z" id="Shape" fill="#FFFFFF"></path>
                    </g>
                    <text id="09:40-AM" font-family="STYuanti-SC-Regular, Yuanti SC" font-size="14" font-weight="normal" fill="#FFFFFF">
                        <tspan x="65.957" y="15">09:40 AM</tspan>
                    </text>
                    <text id="先期处置" font-family="PingFangSC-Regular, PingFang SC" font-size="18" font-weight="normal" fill="#FFFFFF">
                        <tspan x="105" y="47">先期处置</tspan>
                    </text>
                </g>
                <g id="Group-Copy-6" transform="translate(0.000000, 339.000000)">
                    <g id="Rectangle-3-Copy-3">
                        <use fill="black" fill-opacity="1" filter="url(#filter-26)" xlink:href="#path-25"></use>
                        <use fill="url(#linearGradient-7)" fill-rule="evenodd" xlink:href="#path-25"></use>
                    </g>
                    <g id="info-circle" transform="translate(147.000000, 20.000000)" fill-rule="nonzero">
                        <rect id="Rectangle-path" fill="#000000" opacity="0" x="0" y="0" width="16" height="16"></rect>
                        <path d="M8,1 C4.134375,1 1,4.134375 1,8 C1,11.865625 4.134375,15 8,15 C11.865625,15 15,11.865625 15,8 C15,4.134375 11.865625,1 8,1 Z M8,13.8125 C4.790625,13.8125 2.1875,11.209375 2.1875,8 C2.1875,4.790625 4.790625,2.1875 8,2.1875 C11.209375,2.1875 13.8125,4.790625 13.8125,8 C13.8125,11.209375 11.209375,13.8125 8,13.8125 Z" id="Shape" fill="#FFFFFF"></path>
                        <path d="M7.25,5.25 C7.25,5.66421356 7.58578644,6 8,6 C8.41421356,6 8.75,5.66421356 8.75,5.25 C8.75,4.83578644 8.41421356,4.5 8,4.5 C7.58578644,4.5 7.25,4.83578644 7.25,5.25 Z" id="Shape" fill="#FFFFFF"></path>
                        <path d="M8.375,7 L7.625,7 C7.55625,7 7.5,7.05625 7.5,7.125 L7.5,11.375 C7.5,11.44375 7.55625,11.5 7.625,11.5 L8.375,11.5 C8.44375,11.5 8.5,11.44375 8.5,11.375 L8.5,7.125 C8.5,7.05625 8.44375,7 8.375,7 Z" id="Shape" fill="#FFFFFF"></path>
                    </g>
                    <g id="message" transform="translate(146.000000, 44.000000)" fill-rule="nonzero">
                        <rect id="Rectangle-path" fill="#000000" opacity="0" x="0" y="0" width="16" height="16"></rect>
                        <path d="M7.25,8 C7.25,8.41421356 7.58578644,8.75 8,8.75 C8.41421356,8.75 8.75,8.41421356 8.75,8 C8.75,7.58578644 8.41421356,7.25 8,7.25 C7.58578644,7.25 7.25,7.58578644 7.25,8 Z M10.375,8 C10.375,8.41421356 10.7107864,8.75 11.125,8.75 C11.5392136,8.75 11.875,8.41421356 11.875,8 C11.875,7.58578644 11.5392136,7.25 11.125,7.25 C10.7107864,7.25 10.375,7.58578644 10.375,8 Z M4.125,8 C4.125,8.41421356 4.46078644,8.75 4.875,8.75 C5.28921356,8.75 5.625,8.41421356 5.625,8 C5.625,7.58578644 5.28921356,7.25 4.875,7.25 C4.46078644,7.25 4.125,7.58578644 4.125,8 Z M14.45625,5.2875 C14.103125,4.4484375 13.596875,3.6953125 12.9515625,3.0484375 C12.30625,2.403125 11.553125,1.8953125 10.7125,1.54375 C9.853125,1.1828125 8.940625,1 8,1 L7.96875,1 C7.021875,1.0046875 6.1046875,1.1921875 5.2421875,1.5609375 C4.409375,1.9171875 3.6625,2.4234375 3.0234375,3.06875 C2.384375,3.7140625 1.8828125,4.4640625 1.5359375,5.3 C1.1765625,6.165625 0.9953125,7.0859375 1,8.0328125 C1.0046875,9.1171875 1.2640625,10.19375 1.75,11.15625 L1.75,13.53125 C1.75,13.928125 2.071875,14.25 2.46875,14.25 L4.8453125,14.25 C5.8078125,14.7359375 6.884375,14.9953125 7.96875,15 L8.0015625,15 C8.9375,15 9.8453125,14.81875 10.7,14.4640625 C11.5359375,14.115625 12.2875,13.615625 12.93125,12.9765625 C13.5765625,12.3375 14.084375,11.590625 14.4390625,10.7578125 C14.8078125,9.8953125 14.9953125,8.978125 15,8.03125 C15.0046875,7.0796875 14.8203125,6.15625 14.45625,5.2875 Z M12.0953125,12.13125 C11,13.215625 9.546875,13.8125 8,13.8125 L7.9734375,13.8125 C7.03125,13.8078125 6.0953125,13.5734375 5.26875,13.1328125 L5.1375,13.0625 L2.9375,13.0625 L2.9375,10.8625 L2.8671875,10.73125 C2.4265625,9.9046875 2.1921875,8.96875 2.1875,8.0265625 C2.18125,6.46875 2.7765625,5.00625 3.86875,3.9046875 C4.959375,2.803125 6.4171875,2.19375 7.975,2.1875 L8.0015625,2.1875 C8.7828125,2.1875 9.540625,2.3390625 10.2546875,2.6390625 C10.9515625,2.93125 11.5765625,3.3515625 12.1140625,3.8890625 C12.65,4.425 13.071875,5.0515625 13.3640625,5.7484375 C13.6671875,6.4703125 13.81875,7.2359375 13.815625,8.0265625 C13.80625,9.5828125 13.1953125,11.040625 12.0953125,12.13125 Z" id="Shape" fill="#FFFFFF"></path>
                    </g>
                    <text id="09:38-AM" font-family="STYuanti-SC-Regular, Yuanti SC" font-size="14" font-weight="normal" fill="#FFFFFF">
                        <tspan x="0.076" y="15">09:38 AM</tspan>
                    </text>
                    <text id="事件核实" font-family="PingFangSC-Regular, PingFang SC" font-size="18" font-weight="normal" fill="#FFFFFF">
                        <tspan x="39" y="47">事件核实</tspan>
                    </text>
                </g>
            </g>
            <g id="Group-2" transform="translate(1290.000000, 252.000000)">
                <rect id="Rectangle-43" fill="#D8D8D8" x="107" y="0" width="4" height="13"></rect>
                <rect id="Rectangle-43-Copy" fill="#D8D8D8" x="2" y="13" width="230" height="4"></rect>
                <path d="M1.5,13.5 L1.5,34.5" id="Line" stroke="#D8D8D8" stroke-linecap="square"></path>
                <path id="Line-decoration-1" d="M1.5,34.5 L4.5,23.7 L-1.5,23.7 L1.5,34.5 Z" stroke="#D8D8D8" stroke-linecap="square"></path>
                <path d="M231.5,13.5 L231.5,34.5" id="Line-Copy" stroke="#D8D8D8" stroke-linecap="square"></path>
                <path id="Line-Copy-decoration-1" d="M231.5,34.5 L234.5,23.7 L228.5,23.7 L231.5,34.5 Z" stroke="#D8D8D8" stroke-linecap="square"></path>
            </g>
            <g id="arrow-left" transform="translate(951.000000, 805.000000)" fill-rule="nonzero">
                <rect id="Rectangle-path" fill="#000000" opacity="0" x="0" y="0" width="64" height="64"></rect>
                <path d="M99.9205161,62.1074286 C99.9205161,63.3691429 99.5334684,64.4464762 98.7593732,65.3394286 C97.9852779,66.2323809 96.9795636,66.6788571 95.7422303,66.6788571 L30.2502857,66.6788571 L40.7142857,77.1794286 C41.6194286,78.0358095 42.072,79.1070476 42.072,80.3931429 C42.072,81.6792381 41.6194286,82.7504762 40.7142857,83.6068572 L38.0354286,86.3222857 C37.1546666,87.2030477 36.0834285,87.6434286 34.8217142,87.6434286 C33.5843809,87.6434286 32.5009524,87.2030477 31.5714286,86.3222857 L8.32114287,63.0354286 C7.44038096,62.1546667 7,61.0834286 7,59.8217143 C7,58.584381 7.44038096,57.5009524 8.32114287,56.5714286 L31.5714286,33.3577143 C32.4765714,32.4525714 33.56,32 34.8217142,32 C36.0590476,32 37.1302857,32.4525714 38.0354286,33.3577143 L40.7142857,36 C41.6194286,36.9051429 42.072,37.9885714 42.072,39.2502857 C42.072,40.5119999 41.6194286,41.5954285 40.7142857,42.5005714 L30.2502857,52.9645714 L95.7422303,52.9645714 C96.9795636,52.9645714 97.9852779,53.4110476 98.7593732,54.3039999 C99.5334684,55.1969523 99.9205161,56.2742856 99.9205161,57.5359999 L99.9205161,62.1074286 Z" id="Shape" fill="url(#linearGradient-27)"></path>
            </g>
            <text id="09:45-AM" font-family="STYuanti-SC-Bold, Yuanti SC" font-size="60" font-weight="bold" fill="#FFFFFF">
                <tspan x="1282.23" y="890">09:45 </tspan>
                <tspan x="1443.93" y="890" font-family="STYuanti-SC-Regular, Yuanti SC" font-weight="normal">AM</tspan>
            </text>
            <g id="info-circle" transform="translate(1471.000000, 201.000000)" fill-rule="nonzero">
                <rect id="Rectangle-path" fill="#000000" opacity="0" x="0" y="0" width="16" height="16"></rect>
                <path d="M8,1 C4.134375,1 1,4.134375 1,8 C1,11.865625 4.134375,15 8,15 C11.865625,15 15,11.865625 15,8 C15,4.134375 11.865625,1 8,1 Z M8,13.8125 C4.790625,13.8125 2.1875,11.209375 2.1875,8 C2.1875,4.790625 4.790625,2.1875 8,2.1875 C11.209375,2.1875 13.8125,4.790625 13.8125,8 C13.8125,11.209375 11.209375,13.8125 8,13.8125 Z" id="Shape" fill="#FFFFFF"></path>
                <path d="M7.25,5.25 C7.25,5.66421356 7.58578644,6 8,6 C8.41421356,6 8.75,5.66421356 8.75,5.25 C8.75,4.83578644 8.41421356,4.5 8,4.5 C7.58578644,4.5 7.25,4.83578644 7.25,5.25 Z" id="Shape" fill="#FFFFFF"></path>
                <path d="M8.375,7 L7.625,7 C7.55625,7 7.5,7.05625 7.5,7.125 L7.5,11.375 C7.5,11.44375 7.55625,11.5 7.625,11.5 L8.375,11.5 C8.44375,11.5 8.5,11.44375 8.5,11.375 L8.5,7.125 C8.5,7.05625 8.44375,7 8.375,7 Z" id="Shape" fill="#FFFFFF"></path>
            </g>
            <g id="message" transform="translate(1365.000000, 319.000000)" fill-rule="nonzero">
                <rect id="Rectangle-path" fill="#000000" opacity="0" x="0" y="0" width="16" height="16"></rect>
                <path d="M7.25,8 C7.25,8.41421356 7.58578644,8.75 8,8.75 C8.41421356,8.75 8.75,8.41421356 8.75,8 C8.75,7.58578644 8.41421356,7.25 8,7.25 C7.58578644,7.25 7.25,7.58578644 7.25,8 Z M10.375,8 C10.375,8.41421356 10.7107864,8.75 11.125,8.75 C11.5392136,8.75 11.875,8.41421356 11.875,8 C11.875,7.58578644 11.5392136,7.25 11.125,7.25 C10.7107864,7.25 10.375,7.58578644 10.375,8 Z M4.125,8 C4.125,8.41421356 4.46078644,8.75 4.875,8.75 C5.28921356,8.75 5.625,8.41421356 5.625,8 C5.625,7.58578644 5.28921356,7.25 4.875,7.25 C4.46078644,7.25 4.125,7.58578644 4.125,8 Z M14.45625,5.2875 C14.103125,4.4484375 13.596875,3.6953125 12.9515625,3.0484375 C12.30625,2.403125 11.553125,1.8953125 10.7125,1.54375 C9.853125,1.1828125 8.940625,1 8,1 L7.96875,1 C7.021875,1.0046875 6.1046875,1.1921875 5.2421875,1.5609375 C4.409375,1.9171875 3.6625,2.4234375 3.0234375,3.06875 C2.384375,3.7140625 1.8828125,4.4640625 1.5359375,5.3 C1.1765625,6.165625 0.9953125,7.0859375 1,8.0328125 C1.0046875,9.1171875 1.2640625,10.19375 1.75,11.15625 L1.75,13.53125 C1.75,13.928125 2.071875,14.25 2.46875,14.25 L4.8453125,14.25 C5.8078125,14.7359375 6.884375,14.9953125 7.96875,15 L8.0015625,15 C8.9375,15 9.8453125,14.81875 10.7,14.4640625 C11.5359375,14.115625 12.2875,13.615625 12.93125,12.9765625 C13.5765625,12.3375 14.084375,11.590625 14.4390625,10.7578125 C14.8078125,9.8953125 14.9953125,8.978125 15,8.03125 C15.0046875,7.0796875 14.8203125,6.15625 14.45625,5.2875 Z M12.0953125,12.13125 C11,13.215625 9.546875,13.8125 8,13.8125 L7.9734375,13.8125 C7.03125,13.8078125 6.0953125,13.5734375 5.26875,13.1328125 L5.1375,13.0625 L2.9375,13.0625 L2.9375,10.8625 L2.8671875,10.73125 C2.4265625,9.9046875 2.1921875,8.96875 2.1875,8.0265625 C2.18125,6.46875 2.7765625,5.00625 3.86875,3.9046875 C4.959375,2.803125 6.4171875,2.19375 7.975,2.1875 L8.0015625,2.1875 C8.7828125,2.1875 9.540625,2.3390625 10.2546875,2.6390625 C10.9515625,2.93125 11.5765625,3.3515625 12.1140625,3.8890625 C12.65,4.425 13.071875,5.0515625 13.3640625,5.7484375 C13.6671875,6.4703125 13.81875,7.2359375 13.815625,8.0265625 C13.80625,9.5828125 13.1953125,11.040625 12.0953125,12.13125 Z" id="Shape" fill="#FFFFFF"></path>
            </g>
            <g id="envelope-o" transform="translate(1009.000000, 408.000000)" fill="#000000" fill-rule="nonzero">
                <rect id="Rectangle-path" opacity="0" x="0" y="0" width="32" height="32"></rect>
                <path d="M29.7142857,26.8571428 L29.7142857,13.1428571 C29.3333333,13.5710476 28.9226667,13.9641905 28.4822857,14.3222857 C25.2914286,16.7740952 22.7558095,18.7862857 20.8754286,20.3588571 C20.2689524,20.8708571 19.7752381,21.2693333 19.3942857,21.5542857 C19.0133333,21.8392381 18.4982857,22.128 17.8491429,22.4205714 C17.2,22.7131428 16.5897143,22.8586667 16.0182857,22.8571428 L15.9817143,22.8571428 C15.4102857,22.8571428 14.8,22.711619 14.1508571,22.4205714 C13.5017142,22.1295238 12.9866666,21.8407619 12.6057143,21.5542857 C12.2247619,21.2678095 11.7310476,20.8693333 11.1245714,20.3588571 C9.24419048,18.7878095 6.70857143,16.775619 3.51771428,14.3222857 C3.07733332,13.9657142 2.66666666,13.5725714 2.28571428,13.1428571 L2.28571428,26.8571428 C2.28571428,27.0125714 2.34209523,27.1466666 2.45485712,27.2594286 C2.56761902,27.3721905 2.70171426,27.4285714 2.85714284,27.4285714 L29.1428571,27.4285714 C29.2982857,27.4285714 29.4323809,27.3721905 29.5451428,27.2594286 C29.6579048,27.1466667 29.7142857,27.0125714 29.7142857,26.8571428 Z M29.7142857,8.08914284 L29.7142857,7.65257141 C29.7142857,7.65257141 29.7112381,7.57485713 29.7051429,7.41942856 C29.6990476,7.264 29.6815238,7.18933333 29.6525714,7.19542856 C29.623619,7.20152379 29.5908571,7.14819046 29.5542857,7.03542856 C29.5177143,6.92266667 29.464381,6.87771428 29.3942857,6.90057141 C29.3241905,6.92342853 29.2411429,6.90819044 29.1451429,6.85485713 L2.85942859,6.85485713 C2.70400003,6.85485713 2.56990479,6.91123807 2.45714287,7.02399997 C2.34438096,7.13676186 2.28800001,7.2708571 2.28800003,7.42628569 C2.28800003,9.42552379 3.1626667,11.1161905 4.91200003,12.4982857 C7.2099048,14.3070476 9.59695242,16.1942857 12.0731429,18.16 C12.1447619,18.2194285 12.3527619,18.3946666 12.6971429,18.6857143 C13.0415238,18.9767619 13.3150476,19.2 13.5177143,19.3554285 C13.720381,19.5108571 13.9855238,19.6982857 14.3131429,19.9177142 C14.6407619,20.1371428 14.9417143,20.3009524 15.216,20.4091428 C15.4902858,20.5173333 15.7462858,20.5706666 15.984,20.5691428 L16.0205715,20.5691428 C16.2582858,20.5691428 16.5142858,20.5158095 16.7885715,20.4091428 C17.0628572,20.3024761 17.3638096,20.1386666 17.6914286,19.9177142 C18.0190477,19.6967619 18.2841905,19.5093333 18.4868572,19.3554285 C18.6895238,19.2015238 18.9630476,18.9782857 19.3074286,18.6857143 C19.6518096,18.3931428 19.8598096,18.2179047 19.9314286,18.16 C22.4076191,16.1958095 24.7946667,14.3085714 27.0925715,12.4982857 C27.7356191,11.9862857 28.3337143,11.2990476 28.8868572,10.4365714 C29.44,9.57409522 29.7165715,8.79161903 29.7165715,8.08914284 L29.7142857,8.08914284 Z M32,7.42857144 L32,26.8571429 C32,27.6434286 31.7203809,28.3161905 31.1611428,28.8754286 C30.6019047,29.4346667 29.9291428,29.7142858 29.1428571,29.7142858 L2.85714284,29.7142858 C2.07085714,29.7142858 1.39809523,29.4346667 0.838857125,28.8754286 C0.279619021,28.3161905 -3.12500026e-08,27.6434286 -3.12500026e-08,26.8571429 L-3.12500026e-08,7.42857144 C-3.12500026e-08,6.64228573 0.279619021,5.96952382 0.838857125,5.41028572 C1.39809523,4.85104761 2.07085714,4.57142856 2.85714284,4.57142856 L29.1428571,4.57142856 C29.9291428,4.57142856 30.6019047,4.85104761 31.1611428,5.41028572 C31.7203809,5.96952382 32,6.64228573 32,7.42857144 Z" id="Shape"></path>
            </g>
            <g id="phone" transform="translate(1065.000000, 408.000000)" fill="#000000" fill-rule="nonzero">
                <rect id="Rectangle-path" opacity="0" x="0" y="0" width="32" height="32"></rect>
                <path d="M28.563,5.094 C27.1876667,2.99 25.8543333,1.938 24.563,1.938 C23.813,1.938 23.1463333,2.22966667 22.563,2.813 C21.563,3.813 20.761,4.78166667 20.157,5.719 C19.2403333,7.13566667 18.9383333,8.33366667 19.251,9.313 C19.3343333,9.62566667 19.5166667,9.94866667 19.798,10.282 C20.0793333,10.6153333 20.543,11.105 21.189,11.751 C21.8556667,12.4176667 22.2516667,12.8446667 22.377,13.032 C22.5856667,13.324 22.3876667,13.949 21.783,14.907 C21.2203333,15.803 20.189,17.0323333 18.689,18.595 C17.4183333,19.8036667 16.387,20.689 15.595,21.251 C14.595,21.9803333 13.8553333,22.345 13.376,22.345 C13.272,22.345 13.1886667,22.324 13.126,22.282 C12.9386667,22.136 12.5116667,21.74 11.845,21.094 C11.1783333,20.4273333 10.6836667,19.9586667 10.361,19.688 C10.0383333,19.4173333 9.72066667,19.2403333 9.408,19.157 C9.158,19.0736667 8.89766667,19.032 8.627,19.032 C7.731,19.032 6.68933333,19.4486667 5.502,20.282 C4.66866667,20.8446667 3.81433333,21.574 2.939,22.47 C2.25166667,23.1366667 1.96,23.897 2.064,24.751 C2.18933333,25.9383333 3.231,27.178 5.189,28.47 C6.81433333,29.512 8.64766667,30.033 10.689,30.033 C12.793,30.033 14.9856667,29.4756667 17.267,28.361 C19.5483333,27.2463333 21.6993333,25.6683333 23.72,23.627 C25.1366667,22.2103333 26.3553333,20.7103333 27.376,19.127 C28.376,17.5436667 29.1053333,15.95 29.564,14.346 C30.5846667,10.804 30.2513333,7.72066667 28.564,5.096 L28.563,5.094 Z M27.438,13.719 C27.0213333,15.115 26.365,16.5213333 25.469,17.938 C24.573,19.3753333 23.4686667,20.7503333 22.156,22.063 C21.2393333,22.9796667 20.281,23.813 19.281,24.563 C18.3016667,25.2716667 17.312,25.876 16.312,26.376 C15.3326667,26.8346667 14.364,27.189 13.406,27.439 C12.4686667,27.689 11.5623333,27.814 10.687,27.814 C9.083,27.814 7.656,27.4076667 6.406,26.595 C5.67666667,26.1156667 5.135,25.699 4.781,25.345 C4.44766667,25.0116667 4.27066667,24.7303333 4.25,24.501 C4.22933333,24.355 4.31266667,24.1986667 4.5,24.032 C5.31266667,23.2193333 6.06266667,22.5733333 6.75,22.094 C7.56266667,21.5313333 8.18766667,21.25 8.625,21.25 C8.667,21.25 8.69833333,21.2603333 8.719,21.281 C8.823,21.323 8.948,21.4166667 9.094,21.562 C9.32333333,21.7493333 9.71933333,22.114 10.282,22.656 C11.0113333,23.406 11.5216667,23.8853333 11.813,24.094 L11.876,24.125 C12.3133333,24.417 12.8133333,24.563 13.376,24.563 C13.876,24.563 14.4176667,24.438 15.001,24.188 C15.5636667,23.9586667 16.199,23.5836667 16.907,23.063 C17.761,22.4376667 18.8653333,21.4896667 20.22,20.219 L20.314,20.125 C21.8973333,18.4583333 23.012,17.1146667 23.658,16.094 C23.9913333,15.5733333 24.2413333,15.0836667 24.408,14.625 C24.554,14.2083333 24.6373333,13.823 24.658,13.469 C24.7,12.823 24.5436667,12.25 24.189,11.75 C23.9803333,11.458 23.522,10.958 22.814,10.25 L22.751,10.187 C22.209,9.645 21.8443333,9.25966667 21.657,9.031 C21.511,8.84366667 21.4173333,8.70833333 21.376,8.625 C21.2926667,8.29166667 21.5113333,7.71866667 22.032,6.906 C22.532,6.13533333 23.23,5.302 24.126,4.406 C24.2926667,4.23933333 24.4386667,4.156 24.564,4.156 C24.7726667,4.156 25.0436667,4.31233333 25.377,4.625 C25.7523333,4.979 26.19,5.54166667 26.69,6.313 C27.336,7.313 27.732,8.41733333 27.878,9.626 C28.0033333,10.918 27.8573333,12.2826667 27.44,13.72 L27.438,13.719 Z" id="Shape"></path>
            </g>
            <g id="微信" transform="translate(1115.000000, 408.000000)" fill="#000000" fill-rule="nonzero">
                <rect id="Rectangle-path" opacity="0" x="0" y="0" width="32" height="32"></rect>
                <path d="M26.5653125,13.629375 C25.4740087,12.6186547 24.1327666,11.9174504 22.68,11.598125 C21.9375,9.92875 20.7109375,8.5 19.115625,7.451875 C17.3934375,6.3209375 15.365625,5.7234375 13.255,5.7234375 C10.539375,5.7234375 7.9834375,6.70875 6.0584375,8.4978125 C5.13184478,9.35235864 4.38461827,10.3827961 3.8603125,11.5290625 C3.32484922,12.7000096 3.0484508,13.9727428 3.05,15.2603125 C3.05,17.6375 3.965625,19.87625 5.6384375,21.6109375 L4.7790625,25.0171875 L9.375,24.085 C10.59,24.5640625 11.861875,24.7975 13.255625,24.7975 C13.8252913,24.7973342 14.3940846,24.7529299 14.956875,24.6646875 L15.02625,24.6540625 C16.57125,26.0515625 18.6009375,26.820625 20.755,26.820625 C21.6823974,26.8219758 22.6041471,26.6763142 23.4859375,26.3890625 L26.5128125,27.685 L25.6840625,25.291875 C25.9940452,25.0749232 26.2887021,24.8368588 26.5659375,24.579375 C28.1353125,23.1203125 29,21.1759375 29,19.1046875 C29,17.0334375 28.1353125,15.08875 26.5653125,13.629375 Z M13.2434375,23.1334375 C11.9790625,23.1334375 10.885,22.920625 9.8,22.46375 L9.59375,22.3765625 L6.9334375,22.916875 L7.413125,21.014375 L7.103125,20.720625 C5.5625,19.2628125 4.7165625,17.3234375 4.7165625,15.2603125 C4.7165625,10.9190625 8.5415625,7.3871875 13.2434375,7.3871875 C16.3703125,7.3871875 19.236875,8.99 20.71875,11.4725 C20.6734375,11.4725 20.628125,11.4709375 20.5828125,11.4709375 C19.5481468,11.4688575 18.5217031,11.6546847 17.5534375,12.019375 C17.6979273,11.6031877 17.576968,11.1409446 17.2471423,10.8488758 C16.9173166,10.556807 16.4438351,10.4926579 16.0481849,10.6864366 C15.6525348,10.8802152 15.4129409,11.2936092 15.4414813,11.7332393 C15.4700218,12.1728694 15.761054,12.5518154 16.1784375,12.6928125 C15.7201588,12.9732089 15.2909559,13.2985657 14.8971875,13.6640625 C13.360625,15.0921875 12.514375,16.9953125 12.514375,19.0225 C12.514375,19.086875 12.5152083,19.1511458 12.516875,19.2153125 C12.5153125,19.2815625 12.514375,19.348125 12.514375,19.414375 C12.5124406,20.7174193 12.8512498,21.9983231 13.4971875,23.13 C13.4119792,23.1322917 13.3273958,23.1334375 13.2434375,23.1334375 Z M20.754375,25.2346875 C17.156875,25.2346875 14.2178125,22.5890625 14.10625,19.2971875 C14.21875,15.859375 17.233125,13.08125 20.963125,12.9775 C24.5346875,13.0796875 27.40625,15.78875 27.40625,19.104375 C27.40625,22.4846875 24.4221875,25.2346875 20.754375,25.2346875 Z M10.375,10.684375 C9.93943595,10.432902 9.38927234,10.5053243 9.03362544,10.8609505 C8.67797854,11.2165767 8.60552427,11.7667361 8.85697196,12.2023148 C9.10841966,12.6378934 9.6210741,12.8502855 10.106894,12.7201559 C10.592714,12.5900263 10.9305665,12.149821 10.930625,11.646875 C10.9304137,11.2498865 10.7186734,10.8830923 10.375,10.684375 Z M18.2759375,17.191875 C17.840459,16.9405457 17.2904672,17.0130331 16.9349774,17.36861 C16.5794876,17.7241869 16.5071347,18.2741964 16.7585707,18.7096134 C17.0100067,19.1450303 17.5225403,19.3572912 18.0082024,19.2271363 C18.4938645,19.0969814 18.8315638,18.6568626 18.8315625,18.1540625 C18.8315615,17.7570993 18.6197499,17.3903008 18.2759375,17.191875 Z M24.6996875,17.191875 C24.2641655,16.9402376 23.7139239,17.0125194 23.3581685,17.368102 C23.0024132,17.7236845 22.929864,18.2738909 23.1812897,18.7095352 C23.4327155,19.1451794 23.9454144,19.3576185 24.4312775,19.2274731 C24.9171407,19.0973278 25.2550012,18.6570544 25.255,18.1540625 C25.2549346,17.7571983 25.0432853,17.3904745 24.6996875,17.191875 Z" id="Shape"></path>
            </g>
        </g>
    </g>
</svg>