<?xml version="1.0" encoding="UTF-8"?>
<svg width="1250px" height="550px" viewBox="0 0 2112 901" version="1.1" xmlns="http://www.w3.org/2000/svg" xmlns:xlink="http://www.w3.org/1999/xlink">
    <!-- Generator: Sketch 49.3 (51167) - http://www.bohemiancoding.com/sketch -->
    <title></title>
    <desc>Created with Sketch.</desc>
    <defs>
        <radialGradient cx="1.66103553%" cy="-73.1225439%" fx="1.66103553%" fy="-73.1225439%" r="474.738819%" gradientTransform="translate(0.016610,-0.731225),scale(0.043561,1.000000),rotate(16.829722),translate(-0.016610,0.731225)" id="radialGradient-1">
            <stop stop-color="#FFFFFF" stop-opacity="0.199190444" offset="0%"></stop>
            <stop stop-color="#FFFFFF" stop-opacity="0" offset="100%"></stop>
        </radialGradient>
        <rect id="path-2" x="0" y="848" width="2112" height="92"></rect>
        <radialGradient cx="3.87276374%" cy="0%" fx="3.87276374%" fy="0%" r="190.171271%" gradientTransform="translate(0.038728,0.000000),scale(0.308333,1.000000),rotate(12.280037),translate(-0.038728,-0.000000)" id="radialGradient-3">
            <stop stop-color="#FFFFFF" stop-opacity="0.5" offset="0%"></stop>
            <stop stop-color="#6B4AD5" stop-opacity="0" offset="100%"></stop>
        </radialGradient>
        <rect id="path-4" x="0" y="0" width="240" height="74" rx="12"></rect>
        <rect id="path-5" x="0" y="0" width="240" height="74" rx="12"></rect>
        <filter x="-4.6%" y="-9.5%" width="109.2%" height="129.7%" filterUnits="objectBoundingBox" id="filter-6">
            <feOffset dx="0" dy="4" in="SourceAlpha" result="shadowOffsetOuter1"></feOffset>
            <feGaussianBlur stdDeviation="3" in="shadowOffsetOuter1" result="shadowBlurOuter1"></feGaussianBlur>
            <feComposite in="shadowBlurOuter1" in2="SourceAlpha" operator="out" result="shadowBlurOuter1"></feComposite>
            <feColorMatrix values="0 0 0 0 0   0 0 0 0 0   0 0 0 0 0  0 0 0 0.2 0" type="matrix" in="shadowBlurOuter1"></feColorMatrix>
        </filter>
        <linearGradient x1="50%" y1="0%" x2="50%" y2="100%" id="linearGradient-7">
            <stop stop-color="#1A67C4" offset="0%"></stop>
            <stop stop-color="#0F2978" offset="100%"></stop>
        </linearGradient>
        <rect id="path-8" x="0" y="0" width="120" height="40" rx="4"></rect>
        <filter x="-9.2%" y="-17.5%" width="118.3%" height="155.0%" filterUnits="objectBoundingBox" id="filter-9">
            <feOffset dx="0" dy="4" in="SourceAlpha" result="shadowOffsetOuter1"></feOffset>
            <feGaussianBlur stdDeviation="3" in="shadowOffsetOuter1" result="shadowBlurOuter1"></feGaussianBlur>
            <feColorMatrix values="0 0 0 0 0   0 0 0 0 0   0 0 0 0 0  0 0 0 0.2 0" type="matrix" in="shadowBlurOuter1"></feColorMatrix>
        </filter>
        <rect id="path-10" x="20" y="21" width="120" height="40" rx="4"></rect>
        <filter x="-9.2%" y="-17.5%" width="118.3%" height="155.0%" filterUnits="objectBoundingBox" id="filter-11">
            <feOffset dx="0" dy="4" in="SourceAlpha" result="shadowOffsetOuter1"></feOffset>
            <feGaussianBlur stdDeviation="3" in="shadowOffsetOuter1" result="shadowBlurOuter1"></feGaussianBlur>
            <feColorMatrix values="0 0 0 0 0   0 0 0 0 0   0 0 0 0 0  0 0 0 0.2 0" type="matrix" in="shadowBlurOuter1"></feColorMatrix>
        </filter>
        <linearGradient x1="50%" y1="100%" x2="50%" y2="0%" id="linearGradient-12">
            <stop stop-color="#8CFF00" offset="0%"></stop>
            <stop stop-color="#E0FF00" offset="100%"></stop>
        </linearGradient>
        <rect id="path-13" x="20" y="21" width="120" height="40" rx="4"></rect>
        <filter x="-9.2%" y="-17.5%" width="118.3%" height="155.0%" filterUnits="objectBoundingBox" id="filter-14">
            <feOffset dx="0" dy="4" in="SourceAlpha" result="shadowOffsetOuter1"></feOffset>
            <feGaussianBlur stdDeviation="3" in="shadowOffsetOuter1" result="shadowBlurOuter1"></feGaussianBlur>
            <feColorMatrix values="0 0 0 0 0   0 0 0 0 0   0 0 0 0 0  0 0 0 0.2 0" type="matrix" in="shadowBlurOuter1"></feColorMatrix>
        </filter>
        <rect id="path-15" x="0" y="0" width="240" height="74" rx="12"></rect>
        <rect id="path-16" x="0" y="0" width="240" height="74" rx="12"></rect>
        <filter x="-4.6%" y="-9.5%" width="109.2%" height="129.7%" filterUnits="objectBoundingBox" id="filter-17">
            <feOffset dx="0" dy="4" in="SourceAlpha" result="shadowOffsetOuter1"></feOffset>
            <feGaussianBlur stdDeviation="3" in="shadowOffsetOuter1" result="shadowBlurOuter1"></feGaussianBlur>
            <feComposite in="shadowBlurOuter1" in2="SourceAlpha" operator="out" result="shadowBlurOuter1"></feComposite>
            <feColorMatrix values="0 0 0 0 0   0 0 0 0 0   0 0 0 0 0  0 0 0 0.2 0" type="matrix" in="shadowBlurOuter1"></feColorMatrix>
        </filter>
        <rect id="path-18" x="0" y="0" width="120" height="40" rx="4"></rect>
        <filter x="-9.2%" y="-17.5%" width="118.3%" height="155.0%" filterUnits="objectBoundingBox" id="filter-19">
            <feOffset dx="0" dy="4" in="SourceAlpha" result="shadowOffsetOuter1"></feOffset>
            <feGaussianBlur stdDeviation="3" in="shadowOffsetOuter1" result="shadowBlurOuter1"></feGaussianBlur>
            <feColorMatrix values="0 0 0 0 0   0 0 0 0 0   0 0 0 0 0  0 0 0 0.2 0" type="matrix" in="shadowBlurOuter1"></feColorMatrix>
        </filter>
        <rect id="path-20" x="20" y="21" width="120" height="40" rx="4"></rect>
        <filter x="-9.2%" y="-17.5%" width="118.3%" height="155.0%" filterUnits="objectBoundingBox" id="filter-21">
            <feOffset dx="0" dy="4" in="SourceAlpha" result="shadowOffsetOuter1"></feOffset>
            <feGaussianBlur stdDeviation="3" in="shadowOffsetOuter1" result="shadowBlurOuter1"></feGaussianBlur>
            <feColorMatrix values="0 0 0 0 0   0 0 0 0 0   0 0 0 0 0  0 0 0 0.2 0" type="matrix" in="shadowBlurOuter1"></feColorMatrix>
        </filter>
        <rect id="path-22" x="20" y="21" width="120" height="40" rx="4"></rect>
        <filter x="-9.2%" y="-17.5%" width="118.3%" height="155.0%" filterUnits="objectBoundingBox" id="filter-23">
            <feOffset dx="0" dy="4" in="SourceAlpha" result="shadowOffsetOuter1"></feOffset>
            <feGaussianBlur stdDeviation="3" in="shadowOffsetOuter1" result="shadowBlurOuter1"></feGaussianBlur>
            <feColorMatrix values="0 0 0 0 0   0 0 0 0 0   0 0 0 0 0  0 0 0 0.2 0" type="matrix" in="shadowBlurOuter1"></feColorMatrix>
        </filter>
        <rect id="path-24" x="0" y="0" width="240" height="74" rx="12"></rect>
        <rect id="path-25" x="0" y="0" width="240" height="74" rx="12"></rect>
        <filter x="-4.6%" y="-9.5%" width="109.2%" height="129.7%" filterUnits="objectBoundingBox" id="filter-26">
            <feOffset dx="0" dy="4" in="SourceAlpha" result="shadowOffsetOuter1"></feOffset>
            <feGaussianBlur stdDeviation="3" in="shadowOffsetOuter1" result="shadowBlurOuter1"></feGaussianBlur>
            <feComposite in="shadowBlurOuter1" in2="SourceAlpha" operator="out" result="shadowBlurOuter1"></feComposite>
            <feColorMatrix values="0 0 0 0 0   0 0 0 0 0   0 0 0 0 0  0 0 0 0.2 0" type="matrix" in="shadowBlurOuter1"></feColorMatrix>
        </filter>
        <rect id="path-27" x="0" y="0" width="120" height="40" rx="4"></rect>
        <filter x="-9.2%" y="-17.5%" width="118.3%" height="155.0%" filterUnits="objectBoundingBox" id="filter-28">
            <feOffset dx="0" dy="4" in="SourceAlpha" result="shadowOffsetOuter1"></feOffset>
            <feGaussianBlur stdDeviation="3" in="shadowOffsetOuter1" result="shadowBlurOuter1"></feGaussianBlur>
            <feColorMatrix values="0 0 0 0 0   0 0 0 0 0   0 0 0 0 0  0 0 0 0.2 0" type="matrix" in="shadowBlurOuter1"></feColorMatrix>
        </filter>
        <rect id="path-29" x="20" y="21" width="120" height="40" rx="4"></rect>
        <filter x="-9.2%" y="-17.5%" width="118.3%" height="155.0%" filterUnits="objectBoundingBox" id="filter-30">
            <feOffset dx="0" dy="4" in="SourceAlpha" result="shadowOffsetOuter1"></feOffset>
            <feGaussianBlur stdDeviation="3" in="shadowOffsetOuter1" result="shadowBlurOuter1"></feGaussianBlur>
            <feColorMatrix values="0 0 0 0 0   0 0 0 0 0   0 0 0 0 0  0 0 0 0.2 0" type="matrix" in="shadowBlurOuter1"></feColorMatrix>
        </filter>
        <linearGradient x1="50%" y1="0%" x2="50%" y2="100%" id="linearGradient-31">
            <stop stop-color="#FAD961" offset="0%"></stop>
            <stop stop-color="#F76B1C" offset="100%"></stop>
        </linearGradient>
        <rect id="path-32" x="20" y="40" width="120" height="40" rx="4"></rect>
        <filter x="-9.2%" y="-17.5%" width="118.3%" height="155.0%" filterUnits="objectBoundingBox" id="filter-33">
            <feOffset dx="0" dy="4" in="SourceAlpha" result="shadowOffsetOuter1"></feOffset>
            <feGaussianBlur stdDeviation="3" in="shadowOffsetOuter1" result="shadowBlurOuter1"></feGaussianBlur>
            <feColorMatrix values="0 0 0 0 0   0 0 0 0 0   0 0 0 0 0  0 0 0 0.2 0" type="matrix" in="shadowBlurOuter1"></feColorMatrix>
        </filter>
        <rect id="path-34" x="20" y="128" width="120" height="40" rx="4"></rect>
        <filter x="-9.2%" y="-17.5%" width="118.3%" height="155.0%" filterUnits="objectBoundingBox" id="filter-35">
            <feOffset dx="0" dy="4" in="SourceAlpha" result="shadowOffsetOuter1"></feOffset>
            <feGaussianBlur stdDeviation="3" in="shadowOffsetOuter1" result="shadowBlurOuter1"></feGaussianBlur>
            <feColorMatrix values="0 0 0 0 0   0 0 0 0 0   0 0 0 0 0  0 0 0 0.2 0" type="matrix" in="shadowBlurOuter1"></feColorMatrix>
        </filter>
        <rect id="path-36" x="0" y="0" width="120" height="40" rx="4"></rect>
        <filter x="-9.2%" y="-17.5%" width="118.3%" height="155.0%" filterUnits="objectBoundingBox" id="filter-37">
            <feOffset dx="0" dy="4" in="SourceAlpha" result="shadowOffsetOuter1"></feOffset>
            <feGaussianBlur stdDeviation="3" in="shadowOffsetOuter1" result="shadowBlurOuter1"></feGaussianBlur>
            <feColorMatrix values="0 0 0 0 0   0 0 0 0 0   0 0 0 0 0  0 0 0 0.2 0" type="matrix" in="shadowBlurOuter1"></feColorMatrix>
        </filter>
        <rect id="path-38" x="20" y="21" width="120" height="40" rx="4"></rect>
        <filter x="-9.2%" y="-17.5%" width="118.3%" height="155.0%" filterUnits="objectBoundingBox" id="filter-39">
            <feOffset dx="0" dy="4" in="SourceAlpha" result="shadowOffsetOuter1"></feOffset>
            <feGaussianBlur stdDeviation="3" in="shadowOffsetOuter1" result="shadowBlurOuter1"></feGaussianBlur>
            <feColorMatrix values="0 0 0 0 0   0 0 0 0 0   0 0 0 0 0  0 0 0 0.2 0" type="matrix" in="shadowBlurOuter1"></feColorMatrix>
        </filter>
        <rect id="path-40" x="20" y="21" width="120" height="40" rx="4"></rect>
        <filter x="-9.2%" y="-17.5%" width="118.3%" height="155.0%" filterUnits="objectBoundingBox" id="filter-41">
            <feOffset dx="0" dy="4" in="SourceAlpha" result="shadowOffsetOuter1"></feOffset>
            <feGaussianBlur stdDeviation="3" in="shadowOffsetOuter1" result="shadowBlurOuter1"></feGaussianBlur>
            <feColorMatrix values="0 0 0 0 0   0 0 0 0 0   0 0 0 0 0  0 0 0 0.2 0" type="matrix" in="shadowBlurOuter1"></feColorMatrix>
        </filter>
        <rect id="path-42" x="20" y="21" width="120" height="40" rx="4"></rect>
        <filter x="-9.2%" y="-17.5%" width="118.3%" height="155.0%" filterUnits="objectBoundingBox" id="filter-43">
            <feOffset dx="0" dy="4" in="SourceAlpha" result="shadowOffsetOuter1"></feOffset>
            <feGaussianBlur stdDeviation="3" in="shadowOffsetOuter1" result="shadowBlurOuter1"></feGaussianBlur>
            <feColorMatrix values="0 0 0 0 0   0 0 0 0 0   0 0 0 0 0  0 0 0 0.2 0" type="matrix" in="shadowBlurOuter1"></feColorMatrix>
        </filter>
        <rect id="path-44" x="20" y="128" width="210" height="40" rx="4"></rect>
        <filter x="-5.2%" y="-17.5%" width="110.5%" height="155.0%" filterUnits="objectBoundingBox" id="filter-45">
            <feOffset dx="0" dy="4" in="SourceAlpha" result="shadowOffsetOuter1"></feOffset>
            <feGaussianBlur stdDeviation="3" in="shadowOffsetOuter1" result="shadowBlurOuter1"></feGaussianBlur>
            <feColorMatrix values="0 0 0 0 0   0 0 0 0 0   0 0 0 0 0  0 0 0 0.2 0" type="matrix" in="shadowBlurOuter1"></feColorMatrix>
        </filter>
        <rect id="path-46" x="0" y="51" width="240" height="74" rx="12"></rect>
        <rect id="path-47" x="0" y="51" width="240" height="74" rx="12"></rect>
        <filter x="-4.6%" y="-9.5%" width="109.2%" height="129.7%" filterUnits="objectBoundingBox" id="filter-48">
            <feOffset dx="0" dy="4" in="SourceAlpha" result="shadowOffsetOuter1"></feOffset>
            <feGaussianBlur stdDeviation="3" in="shadowOffsetOuter1" result="shadowBlurOuter1"></feGaussianBlur>
            <feComposite in="shadowBlurOuter1" in2="SourceAlpha" operator="out" result="shadowBlurOuter1"></feComposite>
            <feColorMatrix values="0 0 0 0 0   0 0 0 0 0   0 0 0 0 0  0 0 0 0.2 0" type="matrix" in="shadowBlurOuter1"></feColorMatrix>
        </filter>
        <linearGradient x1="50%" y1="103.138076%" x2="50%" y2="1.42247325e-14%" id="linearGradient-49">
            <stop stop-color="#FFA900" offset="0%"></stop>
            <stop stop-color="#FF0000" offset="100%"></stop>
        </linearGradient>
        <path d="M99.1974594,38.159824 C99.0666552,38.4186818 98.9989981,38.7047646 99.0000112,38.9947179 L99.0000112,39.1560625 L99.0128326,39.2969188 C99.0820676,39.629852 99.1692525,39.8296119 99.2949014,40.0037615 C99.4121147,40.232533 99.5871343,40.4267536 99.8026253,40.5671869 L99.476964,40.2777912 L99.6051771,40.4135254 C99.6482174,40.4586498 99.7007729,40.4936426 99.7590328,40.5159664 L99.897503,40.6491397 C99.9744309,40.7003602 100.04623,40.7336535 100.128287,40.7464586 L100.002638,40.7054822 C100.194957,40.8309724 100.425741,40.9103641 100.67191,40.9359744 L100.466769,40.9052421 C100.6565,40.9666521 100.854545,40.9986102 101.053985,41 L101.307847,41 C101.652348,40.9602141 101.983094,40.8419265 102.274574,40.6542617 L119.501288,29.7212487 L136.938271,40.7567027 C137.030584,40.8181673 137.143412,40.8591437 137.261368,40.8796318 L137.115205,40.8412165 L137.243418,40.8847539 L137.422916,40.9410964 L137.592158,40.9769508 C137.659409,40.9847967 137.72703,40.9890711 137.794734,40.9897559 L137.971669,40.9897559 C138.135781,40.9897559 138.305023,40.9692677 138.469135,40.9206082 C138.64977,40.8640452 138.836625,40.8296454 139.02558,40.8181673 L138.669148,40.8617047 C138.867349,40.7974613 139.048692,40.6898426 139.19995,40.5466987 L138.981988,40.7208484 C139.26478,40.5632376 139.514622,40.3528354 139.717931,40.1010804 L139.182,40.5927971 L139.402527,40.4212085 L139.49484,40.3290116 C139.596069,40.2152478 139.674423,40.0830843 139.725624,39.9397359 L139.623053,40.1651061 L139.694853,40.0447379 L139.766652,39.9294918 C139.807143,39.8714925 139.833487,39.8048374 139.84358,39.734854 C139.924757,39.5943939 139.969697,39.4359818 139.974357,39.2738696 C139.974357,39.4096039 139.994871,39.2815527 140,39.1509404 L140,38.9486195 L139.994871,38.8000801 L139.9641,38.6361745 C139.943586,38.5439776 139.930765,38.5158064 139.930765,38.479952 C139.918071,38.4122776 139.891912,38.3478343 139.853837,38.2904362 C139.727013,38.0147118 139.643961,37.7209417 139.607668,37.4196879 L121.378328,1.13765577 C121.023943,0.441487064 120.308891,0.00231547765 119.52693,0.000560959626 C118.731948,-0.0178042988 117.995414,0.416013774 117.626812,1.11972863 L99.1974594,38.159824 Z" id="path-50"></path>
        <filter x="-19.5%" y="-29.3%" width="139.0%" height="139.0%" filterUnits="objectBoundingBox" id="filter-51">
            <feOffset dx="0" dy="-4" in="SourceAlpha" result="shadowOffsetOuter1"></feOffset>
            <feGaussianBlur stdDeviation="2" in="shadowOffsetOuter1" result="shadowBlurOuter1"></feGaussianBlur>
            <feColorMatrix values="0 0 0 0 0   0 0 0 0 0   0 0 0 0 0  0 0 0 0.1 0" type="matrix" in="shadowBlurOuter1"></feColorMatrix>
        </filter>
        <linearGradient x1="0%" y1="50%" x2="100%" y2="50%" id="linearGradient-52">
            <stop stop-color="#8CFF00" offset="0%"></stop>
            <stop stop-color="#00CFFF" stop-opacity="0" offset="100%"></stop>
        </linearGradient>
    </defs>
    <g id="Page-1" stroke="none" stroke-width="1" fill="none" fill-rule="evenodd">
        <g id="4.应急专项指挥部" transform="translate(0.000000, -39.000000)">
            <g id="Group-35-Copy">
                <g id="Rectangle-8">
                    <use fill="#223167" xlink:href="#path-2"></use>
                    <use fill="url(#radialGradient-1)" xlink:href="#path-2"></use>
                </g>
            </g>
            <g id="Group-5-Copy-3" transform="translate(1664.000000, 90.000000)">
                <g id="Group-4" transform="translate(55.000000, 0.000000)">
                    <g id="Rectangle-2-Copy">
                        <use fill="#6848CE" xlink:href="#path-4"></use>
                        <use fill="url(#radialGradient-3)" xlink:href="#path-4"></use>
                    </g>
                    <g id="Rectangle-7">
                        <use fill="black" fill-opacity="1" filter="url(#filter-6)" xlink:href="#path-5"></use>
                        <use fill-opacity="0.2" fill="#FFFFFF" fill-rule="evenodd" xlink:href="#path-5"></use>
                    </g>
                    <text id="事故单位" font-family="STYuanti-SC-Regular, Yuanti SC" font-size="30" font-weight="normal" fill="#FFFFFF">
                        <tspan x="60" y="48">事故单位</tspan>
                    </text>
                </g>
                <g id="Group-3" transform="translate(0.000000, 104.000000)">
                    <g id="Group" transform="translate(78.000000, 0.000000)">
                        <g id="Group-6" transform="translate(37.000000, 21.000000)">
                            <g id="Rectangle-3-Copy-3">
                                <use fill="black" fill-opacity="1" filter="url(#filter-9)" xlink:href="#path-8"></use>
                                <use fill="url(#linearGradient-7)" fill-rule="evenodd" xlink:href="#path-8"></use>
                            </g>
                            <text id="危化品泄露" font-family="PingFangSC-Regular, PingFang SC" font-size="20" font-weight="normal" fill="#FFFFFF">
                                <tspan x="10" y="26">危化品泄露</tspan>
                            </text>
                        </g>
                        <g id="info-circle" transform="translate(161.000000, 21.000000)" fill-rule="nonzero">
                            <rect id="Rectangle-path" fill="#000000" opacity="0" x="0" y="0" width="16" height="16"></rect>
                            <path d="M8,1 C4.134375,1 1,4.134375 1,8 C1,11.865625 4.134375,15 8,15 C11.865625,15 15,11.865625 15,8 C15,4.134375 11.865625,1 8,1 Z M8,13.8125 C4.790625,13.8125 2.1875,11.209375 2.1875,8 C2.1875,4.790625 4.790625,2.1875 8,2.1875 C11.209375,2.1875 13.8125,4.790625 13.8125,8 C13.8125,11.209375 11.209375,13.8125 8,13.8125 Z" id="Shape" fill="#FFFFFF"></path>
                            <path d="M7.25,5.25 C7.25,5.66421356 7.58578644,6 8,6 C8.41421356,6 8.75,5.66421356 8.75,5.25 C8.75,4.83578644 8.41421356,4.5 8,4.5 C7.58578644,4.5 7.25,4.83578644 7.25,5.25 Z" id="Shape" fill="#FFFFFF"></path>
                            <path d="M8.375,7 L7.625,7 C7.55625,7 7.5,7.05625 7.5,7.125 L7.5,11.375 C7.5,11.44375 7.55625,11.5 7.625,11.5 L8.375,11.5 C8.44375,11.5 8.5,11.44375 8.5,11.375 L8.5,7.125 C8.5,7.05625 8.44375,7 8.375,7 Z" id="Shape" fill="#FFFFFF"></path>
                        </g>
                        <g id="Group-2" transform="translate(0.000000, 63.000000)" fill="#FFFFFF">
                            <path d="M197,27 L200,27 L195,35 L190,27 L193,27 L193,17 L7,17 L7,27 L10,27 L5,35 L0,27 L3,27 L3,17 L3,13 L94,13 L94,0 L98,0 L98,13 L193,13 L197,13 L197,27 Z" id="Combined-Shape"></path>
                        </g>
                        <text id="09:35-AM" font-family="STYuanti-SC-Regular, Yuanti SC" font-size="14" font-weight="normal" fill="#FFFFFF">
                            <tspan x="37.251" y="15">09:35 AM</tspan>
                        </text>
                    </g>
                    <g id="Group-Copy" transform="translate(189.000000, 85.000000)">
                        <g id="Rectangle-3-Copy-3">
                            <use fill="black" fill-opacity="1" filter="url(#filter-11)" xlink:href="#path-10"></use>
                            <use fill="url(#linearGradient-7)" fill-rule="evenodd" xlink:href="#path-10"></use>
                        </g>
                        <g id="info-circle" transform="translate(144.000000, 22.000000)" fill-rule="nonzero">
                            <rect id="Rectangle-path" fill="#000000" opacity="0" x="0" y="0" width="16" height="16"></rect>
                            <path d="M8,1 C4.134375,1 1,4.134375 1,8 C1,11.865625 4.134375,15 8,15 C11.865625,15 15,11.865625 15,8 C15,4.134375 11.865625,1 8,1 Z M8,13.8125 C4.790625,13.8125 2.1875,11.209375 2.1875,8 C2.1875,4.790625 4.790625,2.1875 8,2.1875 C11.209375,2.1875 13.8125,4.790625 13.8125,8 C13.8125,11.209375 11.209375,13.8125 8,13.8125 Z" id="Shape" fill="#FFFFFF"></path>
                            <path d="M7.25,5.25 C7.25,5.66421356 7.58578644,6 8,6 C8.41421356,6 8.75,5.66421356 8.75,5.25 C8.75,4.83578644 8.41421356,4.5 8,4.5 C7.58578644,4.5 7.25,4.83578644 7.25,5.25 Z" id="Shape" fill="#FFFFFF"></path>
                            <path d="M8.375,7 L7.625,7 C7.55625,7 7.5,7.05625 7.5,7.125 L7.5,11.375 C7.5,11.44375 7.55625,11.5 7.625,11.5 L8.375,11.5 C8.44375,11.5 8.5,11.44375 8.5,11.375 L8.5,7.125 C8.5,7.05625 8.44375,7 8.375,7 Z" id="Shape" fill="#FFFFFF"></path>
                        </g>
                        <g id="message" transform="translate(0.000000, 45.000000)" fill-rule="nonzero">
                            <rect id="Rectangle-path" fill="#000000" opacity="0" x="0" y="0" width="16" height="16"></rect>
                            <path d="M7.25,8 C7.25,8.41421356 7.58578644,8.75 8,8.75 C8.41421356,8.75 8.75,8.41421356 8.75,8 C8.75,7.58578644 8.41421356,7.25 8,7.25 C7.58578644,7.25 7.25,7.58578644 7.25,8 Z M10.375,8 C10.375,8.41421356 10.7107864,8.75 11.125,8.75 C11.5392136,8.75 11.875,8.41421356 11.875,8 C11.875,7.58578644 11.5392136,7.25 11.125,7.25 C10.7107864,7.25 10.375,7.58578644 10.375,8 Z M4.125,8 C4.125,8.41421356 4.46078644,8.75 4.875,8.75 C5.28921356,8.75 5.625,8.41421356 5.625,8 C5.625,7.58578644 5.28921356,7.25 4.875,7.25 C4.46078644,7.25 4.125,7.58578644 4.125,8 Z M14.45625,5.2875 C14.103125,4.4484375 13.596875,3.6953125 12.9515625,3.0484375 C12.30625,2.403125 11.553125,1.8953125 10.7125,1.54375 C9.853125,1.1828125 8.940625,1 8,1 L7.96875,1 C7.021875,1.0046875 6.1046875,1.1921875 5.2421875,1.5609375 C4.409375,1.9171875 3.6625,2.4234375 3.0234375,3.06875 C2.384375,3.7140625 1.8828125,4.4640625 1.5359375,5.3 C1.1765625,6.165625 0.9953125,7.0859375 1,8.0328125 C1.0046875,9.1171875 1.2640625,10.19375 1.75,11.15625 L1.75,13.53125 C1.75,13.928125 2.071875,14.25 2.46875,14.25 L4.8453125,14.25 C5.8078125,14.7359375 6.884375,14.9953125 7.96875,15 L8.0015625,15 C8.9375,15 9.8453125,14.81875 10.7,14.4640625 C11.5359375,14.115625 12.2875,13.615625 12.93125,12.9765625 C13.5765625,12.3375 14.084375,11.590625 14.4390625,10.7578125 C14.8078125,9.8953125 14.9953125,8.978125 15,8.03125 C15.0046875,7.0796875 14.8203125,6.15625 14.45625,5.2875 Z M12.0953125,12.13125 C11,13.215625 9.546875,13.8125 8,13.8125 L7.9734375,13.8125 C7.03125,13.8078125 6.0953125,13.5734375 5.26875,13.1328125 L5.1375,13.0625 L2.9375,13.0625 L2.9375,10.8625 L2.8671875,10.73125 C2.4265625,9.9046875 2.1921875,8.96875 2.1875,8.0265625 C2.18125,6.46875 2.7765625,5.00625 3.86875,3.9046875 C4.959375,2.803125 6.4171875,2.19375 7.975,2.1875 L8.0015625,2.1875 C8.7828125,2.1875 9.540625,2.3390625 10.2546875,2.6390625 C10.9515625,2.93125 11.5765625,3.3515625 12.1140625,3.8890625 C12.65,4.425 13.071875,5.0515625 13.3640625,5.7484375 C13.6671875,6.4703125 13.81875,7.2359375 13.815625,8.0265625 C13.80625,9.5828125 13.1953125,11.040625 12.0953125,12.13125 Z" id="Shape" fill="url(#linearGradient-12)"></path>
                        </g>
                        <text id="09:37-AM" font-family="STYuanti-SC-Regular, Yuanti SC" font-size="14" font-weight="normal" fill="#FFFFFF">
                            <tspan x="20.398" y="15">09:37 AM</tspan>
                        </text>
                        <text id="先期处置" font-family="PingFangSC-Regular, PingFang SC" font-size="20" font-weight="normal" fill="#FFFFFF">
                            <tspan x="40" y="47">先期处置</tspan>
                        </text>
                    </g>
                    <g id="Group-Copy-6" transform="translate(0.000000, 85.000000)">
                        <g id="Rectangle-3-Copy-3">
                            <use fill="black" fill-opacity="1" filter="url(#filter-14)" xlink:href="#path-13"></use>
                            <use fill="url(#linearGradient-7)" fill-rule="evenodd" xlink:href="#path-13"></use>
                        </g>
                        <g id="message" transform="translate(0.000000, 45.000000)" fill-rule="nonzero">
                            <rect id="Rectangle-path" fill="#000000" opacity="0" x="0" y="0" width="16" height="16"></rect>
                            <path d="M7.25,8 C7.25,8.41421356 7.58578644,8.75 8,8.75 C8.41421356,8.75 8.75,8.41421356 8.75,8 C8.75,7.58578644 8.41421356,7.25 8,7.25 C7.58578644,7.25 7.25,7.58578644 7.25,8 Z M10.375,8 C10.375,8.41421356 10.7107864,8.75 11.125,8.75 C11.5392136,8.75 11.875,8.41421356 11.875,8 C11.875,7.58578644 11.5392136,7.25 11.125,7.25 C10.7107864,7.25 10.375,7.58578644 10.375,8 Z M4.125,8 C4.125,8.41421356 4.46078644,8.75 4.875,8.75 C5.28921356,8.75 5.625,8.41421356 5.625,8 C5.625,7.58578644 5.28921356,7.25 4.875,7.25 C4.46078644,7.25 4.125,7.58578644 4.125,8 Z M14.45625,5.2875 C14.103125,4.4484375 13.596875,3.6953125 12.9515625,3.0484375 C12.30625,2.403125 11.553125,1.8953125 10.7125,1.54375 C9.853125,1.1828125 8.940625,1 8,1 L7.96875,1 C7.021875,1.0046875 6.1046875,1.1921875 5.2421875,1.5609375 C4.409375,1.9171875 3.6625,2.4234375 3.0234375,3.06875 C2.384375,3.7140625 1.8828125,4.4640625 1.5359375,5.3 C1.1765625,6.165625 0.9953125,7.0859375 1,8.0328125 C1.0046875,9.1171875 1.2640625,10.19375 1.75,11.15625 L1.75,13.53125 C1.75,13.928125 2.071875,14.25 2.46875,14.25 L4.8453125,14.25 C5.8078125,14.7359375 6.884375,14.9953125 7.96875,15 L8.0015625,15 C8.9375,15 9.8453125,14.81875 10.7,14.4640625 C11.5359375,14.115625 12.2875,13.615625 12.93125,12.9765625 C13.5765625,12.3375 14.084375,11.590625 14.4390625,10.7578125 C14.8078125,9.8953125 14.9953125,8.978125 15,8.03125 C15.0046875,7.0796875 14.8203125,6.15625 14.45625,5.2875 Z M12.0953125,12.13125 C11,13.215625 9.546875,13.8125 8,13.8125 L7.9734375,13.8125 C7.03125,13.8078125 6.0953125,13.5734375 5.26875,13.1328125 L5.1375,13.0625 L2.9375,13.0625 L2.9375,10.8625 L2.8671875,10.73125 C2.4265625,9.9046875 2.1921875,8.96875 2.1875,8.0265625 C2.18125,6.46875 2.7765625,5.00625 3.86875,3.9046875 C4.959375,2.803125 6.4171875,2.19375 7.975,2.1875 L8.0015625,2.1875 C8.7828125,2.1875 9.540625,2.3390625 10.2546875,2.6390625 C10.9515625,2.93125 11.5765625,3.3515625 12.1140625,3.8890625 C12.65,4.425 13.071875,5.0515625 13.3640625,5.7484375 C13.6671875,6.4703125 13.81875,7.2359375 13.815625,8.0265625 C13.80625,9.5828125 13.1953125,11.040625 12.0953125,12.13125 Z" id="Shape" fill="url(#linearGradient-12)"></path>
                        </g>
                        <g id="info-circle" transform="translate(144.000000, 21.000000)" fill-rule="nonzero">
                            <rect id="Rectangle-path" fill="#000000" opacity="0" x="0" y="0" width="16" height="16"></rect>
                            <path d="M8,1 C4.134375,1 1,4.134375 1,8 C1,11.865625 4.134375,15 8,15 C11.865625,15 15,11.865625 15,8 C15,4.134375 11.865625,1 8,1 Z M8,13.8125 C4.790625,13.8125 2.1875,11.209375 2.1875,8 C2.1875,4.790625 4.790625,2.1875 8,2.1875 C11.209375,2.1875 13.8125,4.790625 13.8125,8 C13.8125,11.209375 11.209375,13.8125 8,13.8125 Z" id="Shape" fill="#FFFFFF"></path>
                            <path d="M7.25,5.25 C7.25,5.66421356 7.58578644,6 8,6 C8.41421356,6 8.75,5.66421356 8.75,5.25 C8.75,4.83578644 8.41421356,4.5 8,4.5 C7.58578644,4.5 7.25,4.83578644 7.25,5.25 Z" id="Shape" fill="#FFFFFF"></path>
                            <path d="M8.375,7 L7.625,7 C7.55625,7 7.5,7.05625 7.5,7.125 L7.5,11.375 C7.5,11.44375 7.55625,11.5 7.625,11.5 L8.375,11.5 C8.44375,11.5 8.5,11.44375 8.5,11.375 L8.5,7.125 C8.5,7.05625 8.44375,7 8.375,7 Z" id="Shape" fill="#FFFFFF"></path>
                        </g>
                        <text id="09:37-AM" font-family="STYuanti-SC-Regular, Yuanti SC" font-size="14" font-weight="normal" fill="#FFFFFF">
                            <tspan x="20.398" y="15">09:37 AM</tspan>
                        </text>
                        <text id="信息上报" font-family="PingFangSC-Regular, PingFang SC" font-size="20" font-weight="normal" fill="#FFFFFF">
                            <tspan x="40" y="47">信息上报</tspan>
                        </text>
                    </g>
                </g>
            </g>
            <g id="Group-5-Copy-4" transform="translate(1305.000000, 90.000000)">
                <g id="Group-4" transform="translate(55.000000, 0.000000)">
                    <g id="Rectangle-2-Copy">
                        <use fill="#6848CE" xlink:href="#path-15"></use>
                        <use fill="url(#radialGradient-3)" xlink:href="#path-15"></use>
                    </g>
                    <g id="Rectangle-7">
                        <use fill="black" fill-opacity="1" filter="url(#filter-17)" xlink:href="#path-16"></use>
                        <use fill-opacity="0.2" fill="#FFFFFF" fill-rule="evenodd" xlink:href="#path-16"></use>
                    </g>
                    <text id="管辖区值守" font-family="STYuanti-SC-Regular, Yuanti SC" font-size="30" font-weight="normal" fill="#FFFFFF">
                        <tspan x="45" y="48">管辖区值守</tspan>
                    </text>
                </g>
                <g id="Group-3" transform="translate(0.000000, 189.000000)">
                    <g id="Group" transform="translate(78.000000, 0.000000)">
                        <g id="Group-6" transform="translate(37.000000, 21.000000)">
                            <g id="Rectangle-3-Copy-3">
                                <use fill="black" fill-opacity="1" filter="url(#filter-19)" xlink:href="#path-18"></use>
                                <use fill="url(#linearGradient-7)" fill-rule="evenodd" xlink:href="#path-18"></use>
                            </g>
                            <path d="M130,23 L130,26 L122,21 L130,16 L130,19 L240,19 L240,23 L130,23 Z" id="Combined-Shape" fill="#FFFFFF"></path>
                            <text id="事故接报" font-family="PingFangSC-Regular, PingFang SC" font-size="20" font-weight="normal" fill="#FFFFFF">
                                <tspan x="20" y="26">事故接报</tspan>
                            </text>
                        </g>
                        <g id="info-circle" transform="translate(161.000000, 21.000000)" fill-rule="nonzero">
                            <rect id="Rectangle-path" fill="#000000" opacity="0" x="0" y="0" width="16" height="16"></rect>
                            <path d="M8,1 C4.134375,1 1,4.134375 1,8 C1,11.865625 4.134375,15 8,15 C11.865625,15 15,11.865625 15,8 C15,4.134375 11.865625,1 8,1 Z M8,13.8125 C4.790625,13.8125 2.1875,11.209375 2.1875,8 C2.1875,4.790625 4.790625,2.1875 8,2.1875 C11.209375,2.1875 13.8125,4.790625 13.8125,8 C13.8125,11.209375 11.209375,13.8125 8,13.8125 Z" id="Shape" fill="#FFFFFF"></path>
                            <path d="M7.25,5.25 C7.25,5.66421356 7.58578644,6 8,6 C8.41421356,6 8.75,5.66421356 8.75,5.25 C8.75,4.83578644 8.41421356,4.5 8,4.5 C7.58578644,4.5 7.25,4.83578644 7.25,5.25 Z" id="Shape" fill="#FFFFFF"></path>
                            <path d="M8.375,7 L7.625,7 C7.55625,7 7.5,7.05625 7.5,7.125 L7.5,11.375 C7.5,11.44375 7.55625,11.5 7.625,11.5 L8.375,11.5 C8.44375,11.5 8.5,11.44375 8.5,11.375 L8.5,7.125 C8.5,7.05625 8.44375,7 8.375,7 Z" id="Shape" fill="#FFFFFF"></path>
                        </g>
                        <g id="Group-2" transform="translate(0.000000, 63.000000)" fill="#FFFFFF">
                            <path d="M197,27 L200,27 L195,35 L190,27 L193,27 L193,17 L7,17 L7,27 L10,27 L5,35 L0,27 L3,27 L3,17 L3,13 L94,13 L94,0 L98,0 L98,13 L193,13 L197,13 L197,27 Z" id="Combined-Shape"></path>
                        </g>
                        <text id="09:37-AM" font-family="STYuanti-SC-Regular, Yuanti SC" font-size="14" font-weight="normal" fill="#FFFFFF">
                            <tspan x="37.398" y="15">09:37 AM</tspan>
                        </text>
                    </g>
                    <g id="Group-Copy" transform="translate(189.000000, 85.000000)">
                        <g id="Rectangle-3-Copy-3">
                            <use fill="black" fill-opacity="1" filter="url(#filter-21)" xlink:href="#path-20"></use>
                            <use fill="url(#linearGradient-7)" fill-rule="evenodd" xlink:href="#path-20"></use>
                        </g>
                        <g id="info-circle" transform="translate(144.000000, 22.000000)" fill-rule="nonzero">
                            <rect id="Rectangle-path" fill="#000000" opacity="0" x="0" y="0" width="16" height="16"></rect>
                            <path d="M8,1 C4.134375,1 1,4.134375 1,8 C1,11.865625 4.134375,15 8,15 C11.865625,15 15,11.865625 15,8 C15,4.134375 11.865625,1 8,1 Z M8,13.8125 C4.790625,13.8125 2.1875,11.209375 2.1875,8 C2.1875,4.790625 4.790625,2.1875 8,2.1875 C11.209375,2.1875 13.8125,4.790625 13.8125,8 C13.8125,11.209375 11.209375,13.8125 8,13.8125 Z" id="Shape" fill="#FFFFFF"></path>
                            <path d="M7.25,5.25 C7.25,5.66421356 7.58578644,6 8,6 C8.41421356,6 8.75,5.66421356 8.75,5.25 C8.75,4.83578644 8.41421356,4.5 8,4.5 C7.58578644,4.5 7.25,4.83578644 7.25,5.25 Z" id="Shape" fill="#FFFFFF"></path>
                            <path d="M8.375,7 L7.625,7 C7.55625,7 7.5,7.05625 7.5,7.125 L7.5,11.375 C7.5,11.44375 7.55625,11.5 7.625,11.5 L8.375,11.5 C8.44375,11.5 8.5,11.44375 8.5,11.375 L8.5,7.125 C8.5,7.05625 8.44375,7 8.375,7 Z" id="Shape" fill="#FFFFFF"></path>
                        </g>
                        <g id="message" transform="translate(0.000000, 45.000000)" fill-rule="nonzero">
                            <rect id="Rectangle-path" fill="#000000" opacity="0" x="0" y="0" width="16" height="16"></rect>
                            <path d="M7.25,8 C7.25,8.41421356 7.58578644,8.75 8,8.75 C8.41421356,8.75 8.75,8.41421356 8.75,8 C8.75,7.58578644 8.41421356,7.25 8,7.25 C7.58578644,7.25 7.25,7.58578644 7.25,8 Z M10.375,8 C10.375,8.41421356 10.7107864,8.75 11.125,8.75 C11.5392136,8.75 11.875,8.41421356 11.875,8 C11.875,7.58578644 11.5392136,7.25 11.125,7.25 C10.7107864,7.25 10.375,7.58578644 10.375,8 Z M4.125,8 C4.125,8.41421356 4.46078644,8.75 4.875,8.75 C5.28921356,8.75 5.625,8.41421356 5.625,8 C5.625,7.58578644 5.28921356,7.25 4.875,7.25 C4.46078644,7.25 4.125,7.58578644 4.125,8 Z M14.45625,5.2875 C14.103125,4.4484375 13.596875,3.6953125 12.9515625,3.0484375 C12.30625,2.403125 11.553125,1.8953125 10.7125,1.54375 C9.853125,1.1828125 8.940625,1 8,1 L7.96875,1 C7.021875,1.0046875 6.1046875,1.1921875 5.2421875,1.5609375 C4.409375,1.9171875 3.6625,2.4234375 3.0234375,3.06875 C2.384375,3.7140625 1.8828125,4.4640625 1.5359375,5.3 C1.1765625,6.165625 0.9953125,7.0859375 1,8.0328125 C1.0046875,9.1171875 1.2640625,10.19375 1.75,11.15625 L1.75,13.53125 C1.75,13.928125 2.071875,14.25 2.46875,14.25 L4.8453125,14.25 C5.8078125,14.7359375 6.884375,14.9953125 7.96875,15 L8.0015625,15 C8.9375,15 9.8453125,14.81875 10.7,14.4640625 C11.5359375,14.115625 12.2875,13.615625 12.93125,12.9765625 C13.5765625,12.3375 14.084375,11.590625 14.4390625,10.7578125 C14.8078125,9.8953125 14.9953125,8.978125 15,8.03125 C15.0046875,7.0796875 14.8203125,6.15625 14.45625,5.2875 Z M12.0953125,12.13125 C11,13.215625 9.546875,13.8125 8,13.8125 L7.9734375,13.8125 C7.03125,13.8078125 6.0953125,13.5734375 5.26875,13.1328125 L5.1375,13.0625 L2.9375,13.0625 L2.9375,10.8625 L2.8671875,10.73125 C2.4265625,9.9046875 2.1921875,8.96875 2.1875,8.0265625 C2.18125,6.46875 2.7765625,5.00625 3.86875,3.9046875 C4.959375,2.803125 6.4171875,2.19375 7.975,2.1875 L8.0015625,2.1875 C8.7828125,2.1875 9.540625,2.3390625 10.2546875,2.6390625 C10.9515625,2.93125 11.5765625,3.3515625 12.1140625,3.8890625 C12.65,4.425 13.071875,5.0515625 13.3640625,5.7484375 C13.6671875,6.4703125 13.81875,7.2359375 13.815625,8.0265625 C13.80625,9.5828125 13.1953125,11.040625 12.0953125,12.13125 Z" id="Shape" fill="url(#linearGradient-12)"></path>
                        </g>
                        <text id="09:40-AM" font-family="STYuanti-SC-Regular, Yuanti SC" font-size="14" font-weight="normal" fill="#FFFFFF">
                            <tspan x="19.957" y="15">09:40 AM</tspan>
                        </text>
                        <text id="先期处置" font-family="PingFangSC-Regular, PingFang SC" font-size="20" font-weight="normal" fill="#FFFFFF">
                            <tspan x="40" y="47">先期处置</tspan>
                        </text>
                    </g>
                    <g id="Group-Copy-6" transform="translate(0.000000, 85.000000)">
                        <g id="Rectangle-3-Copy-3">
                            <use fill="black" fill-opacity="1" filter="url(#filter-23)" xlink:href="#path-22"></use>
                            <use fill="url(#linearGradient-7)" fill-rule="evenodd" xlink:href="#path-22"></use>
                        </g>
                        <g id="message" transform="translate(0.000000, 45.000000)" fill-rule="nonzero">
                            <rect id="Rectangle-path" fill="#000000" opacity="0" x="0" y="0" width="16" height="16"></rect>
                            <path d="M7.25,8 C7.25,8.41421356 7.58578644,8.75 8,8.75 C8.41421356,8.75 8.75,8.41421356 8.75,8 C8.75,7.58578644 8.41421356,7.25 8,7.25 C7.58578644,7.25 7.25,7.58578644 7.25,8 Z M10.375,8 C10.375,8.41421356 10.7107864,8.75 11.125,8.75 C11.5392136,8.75 11.875,8.41421356 11.875,8 C11.875,7.58578644 11.5392136,7.25 11.125,7.25 C10.7107864,7.25 10.375,7.58578644 10.375,8 Z M4.125,8 C4.125,8.41421356 4.46078644,8.75 4.875,8.75 C5.28921356,8.75 5.625,8.41421356 5.625,8 C5.625,7.58578644 5.28921356,7.25 4.875,7.25 C4.46078644,7.25 4.125,7.58578644 4.125,8 Z M14.45625,5.2875 C14.103125,4.4484375 13.596875,3.6953125 12.9515625,3.0484375 C12.30625,2.403125 11.553125,1.8953125 10.7125,1.54375 C9.853125,1.1828125 8.940625,1 8,1 L7.96875,1 C7.021875,1.0046875 6.1046875,1.1921875 5.2421875,1.5609375 C4.409375,1.9171875 3.6625,2.4234375 3.0234375,3.06875 C2.384375,3.7140625 1.8828125,4.4640625 1.5359375,5.3 C1.1765625,6.165625 0.9953125,7.0859375 1,8.0328125 C1.0046875,9.1171875 1.2640625,10.19375 1.75,11.15625 L1.75,13.53125 C1.75,13.928125 2.071875,14.25 2.46875,14.25 L4.8453125,14.25 C5.8078125,14.7359375 6.884375,14.9953125 7.96875,15 L8.0015625,15 C8.9375,15 9.8453125,14.81875 10.7,14.4640625 C11.5359375,14.115625 12.2875,13.615625 12.93125,12.9765625 C13.5765625,12.3375 14.084375,11.590625 14.4390625,10.7578125 C14.8078125,9.8953125 14.9953125,8.978125 15,8.03125 C15.0046875,7.0796875 14.8203125,6.15625 14.45625,5.2875 Z M12.0953125,12.13125 C11,13.215625 9.546875,13.8125 8,13.8125 L7.9734375,13.8125 C7.03125,13.8078125 6.0953125,13.5734375 5.26875,13.1328125 L5.1375,13.0625 L2.9375,13.0625 L2.9375,10.8625 L2.8671875,10.73125 C2.4265625,9.9046875 2.1921875,8.96875 2.1875,8.0265625 C2.18125,6.46875 2.7765625,5.00625 3.86875,3.9046875 C4.959375,2.803125 6.4171875,2.19375 7.975,2.1875 L8.0015625,2.1875 C8.7828125,2.1875 9.540625,2.3390625 10.2546875,2.6390625 C10.9515625,2.93125 11.5765625,3.3515625 12.1140625,3.8890625 C12.65,4.425 13.071875,5.0515625 13.3640625,5.7484375 C13.6671875,6.4703125 13.81875,7.2359375 13.815625,8.0265625 C13.80625,9.5828125 13.1953125,11.040625 12.0953125,12.13125 Z" id="Shape" fill="url(#linearGradient-12)"></path>
                        </g>
                        <g id="info-circle" transform="translate(144.000000, 21.000000)" fill-rule="nonzero">
                            <rect id="Rectangle-path" fill="#000000" opacity="0" x="0" y="0" width="16" height="16"></rect>
                            <path d="M8,1 C4.134375,1 1,4.134375 1,8 C1,11.865625 4.134375,15 8,15 C11.865625,15 15,11.865625 15,8 C15,4.134375 11.865625,1 8,1 Z M8,13.8125 C4.790625,13.8125 2.1875,11.209375 2.1875,8 C2.1875,4.790625 4.790625,2.1875 8,2.1875 C11.209375,2.1875 13.8125,4.790625 13.8125,8 C13.8125,11.209375 11.209375,13.8125 8,13.8125 Z" id="Shape" fill="#FFFFFF"></path>
                            <path d="M7.25,5.25 C7.25,5.66421356 7.58578644,6 8,6 C8.41421356,6 8.75,5.66421356 8.75,5.25 C8.75,4.83578644 8.41421356,4.5 8,4.5 C7.58578644,4.5 7.25,4.83578644 7.25,5.25 Z" id="Shape" fill="#FFFFFF"></path>
                            <path d="M8.375,7 L7.625,7 C7.55625,7 7.5,7.05625 7.5,7.125 L7.5,11.375 C7.5,11.44375 7.55625,11.5 7.625,11.5 L8.375,11.5 C8.44375,11.5 8.5,11.44375 8.5,11.375 L8.5,7.125 C8.5,7.05625 8.44375,7 8.375,7 Z" id="Shape" fill="#FFFFFF"></path>
                        </g>
                        <text id="09:38-AM" font-family="STYuanti-SC-Regular, Yuanti SC" font-size="14" font-weight="normal" fill="#FFFFFF">
                            <tspan x="20.076" y="15">09:38 AM</tspan>
                        </text>
                        <text id="事件核实" font-family="PingFangSC-Regular, PingFang SC" font-size="20" font-weight="normal" fill="#FFFFFF">
                            <tspan x="40" y="47">事件核实</tspan>
                        </text>
                    </g>
                </g>
            </g>
            <g id="Group-5-Copy-5" transform="translate(1050.000000, 90.000000)">
                <g id="Group-4">
                    <g id="Rectangle-2-Copy">
                        <use fill="#6848CE" xlink:href="#path-24"></use>
                        <use fill="url(#radialGradient-3)" xlink:href="#path-24"></use>
                    </g>
                    <g id="Rectangle-7">
                        <use fill="black" fill-opacity="1" filter="url(#filter-26)" xlink:href="#path-25"></use>
                        <use fill-opacity="0.2" fill="#FFFFFF" fill-rule="evenodd" xlink:href="#path-25"></use>
                    </g>
                    <text id="管委会应急办" font-family="STYuanti-SC-Regular, Yuanti SC" font-size="30" font-weight="normal" fill="#FFFFFF">
                        <tspan x="30" y="48">管委会应急办</tspan>
                    </text>
                </g>
                <g id="Group-3" transform="translate(40.000000, 189.000000)">
                    <g id="Group-5">
                        <g id="Group" transform="translate(20.000000, 0.000000)">
                            <g id="Group-6" transform="translate(0.000000, 21.000000)">
                                <g id="Rectangle-3-Copy-3">
                                    <use fill="black" fill-opacity="1" filter="url(#filter-28)" xlink:href="#path-27"></use>
                                    <use fill="url(#linearGradient-7)" fill-rule="evenodd" xlink:href="#path-27"></use>
                                </g>
                                <text id="事件接报" font-family="PingFangSC-Regular, PingFang SC" font-size="20" font-weight="normal" fill="#FFFFFF">
                                    <tspan x="20" y="27">事件接报</tspan>
                                </text>
                            </g>
                            <g id="info-circle" transform="translate(124.000000, 21.000000)" fill-rule="nonzero">
                                <rect id="Rectangle-path" fill="#000000" opacity="0" x="0" y="0" width="16" height="16"></rect>
                                <path d="M8,1 C4.134375,1 1,4.134375 1,8 C1,11.865625 4.134375,15 8,15 C11.865625,15 15,11.865625 15,8 C15,4.134375 11.865625,1 8,1 Z M8,13.8125 C4.790625,13.8125 2.1875,11.209375 2.1875,8 C2.1875,4.790625 4.790625,2.1875 8,2.1875 C11.209375,2.1875 13.8125,4.790625 13.8125,8 C13.8125,11.209375 11.209375,13.8125 8,13.8125 Z" id="Shape" fill="#FFFFFF"></path>
                                <path d="M7.25,5.25 C7.25,5.66421356 7.58578644,6 8,6 C8.41421356,6 8.75,5.66421356 8.75,5.25 C8.75,4.83578644 8.41421356,4.5 8,4.5 C7.58578644,4.5 7.25,4.83578644 7.25,5.25 Z" id="Shape" fill="#FFFFFF"></path>
                                <path d="M8.375,7 L7.625,7 C7.55625,7 7.5,7.05625 7.5,7.125 L7.5,11.375 C7.5,11.44375 7.55625,11.5 7.625,11.5 L8.375,11.5 C8.44375,11.5 8.5,11.44375 8.5,11.375 L8.5,7.125 C8.5,7.05625 8.44375,7 8.375,7 Z" id="Shape" fill="#FFFFFF"></path>
                            </g>
                            <g id="Group-2" transform="translate(55.000000, 63.000000)" fill="#FFFFFF">
                                <path d="M7,17 L10,17 L5,25 L0,17 L3,17 L3,0 L7,0 L7,17 Z" id="Combined-Shape"></path>
                            </g>
                            <text id="09:47-AM" font-family="STYuanti-SC-Regular, Yuanti SC" font-size="14" font-weight="normal" fill="#FFFFFF">
                                <tspan x="0.384" y="15">09:47 AM</tspan>
                            </text>
                        </g>
                        <g id="Group-Copy-6" transform="translate(0.000000, 85.000000)">
                            <g id="Rectangle-3-Copy-3">
                                <use fill="black" fill-opacity="1" filter="url(#filter-30)" xlink:href="#path-29"></use>
                                <use fill="url(#linearGradient-7)" fill-rule="evenodd" xlink:href="#path-29"></use>
                            </g>
                            <path d="M82,80 L85,80 L80,88 L75,80 L78,80 L78,63 L82,63 L82,80 Z" id="Combined-Shape" fill="#FFFFFF"></path>
                            <g id="message" transform="translate(0.000000, 45.000000)" fill-rule="nonzero">
                                <rect id="Rectangle-path" fill="#000000" opacity="0" x="0" y="0" width="16" height="16"></rect>
                                <path d="M7.25,8 C7.25,8.41421356 7.58578644,8.75 8,8.75 C8.41421356,8.75 8.75,8.41421356 8.75,8 C8.75,7.58578644 8.41421356,7.25 8,7.25 C7.58578644,7.25 7.25,7.58578644 7.25,8 Z M10.375,8 C10.375,8.41421356 10.7107864,8.75 11.125,8.75 C11.5392136,8.75 11.875,8.41421356 11.875,8 C11.875,7.58578644 11.5392136,7.25 11.125,7.25 C10.7107864,7.25 10.375,7.58578644 10.375,8 Z M4.125,8 C4.125,8.41421356 4.46078644,8.75 4.875,8.75 C5.28921356,8.75 5.625,8.41421356 5.625,8 C5.625,7.58578644 5.28921356,7.25 4.875,7.25 C4.46078644,7.25 4.125,7.58578644 4.125,8 Z M14.45625,5.2875 C14.103125,4.4484375 13.596875,3.6953125 12.9515625,3.0484375 C12.30625,2.403125 11.553125,1.8953125 10.7125,1.54375 C9.853125,1.1828125 8.940625,1 8,1 L7.96875,1 C7.021875,1.0046875 6.1046875,1.1921875 5.2421875,1.5609375 C4.409375,1.9171875 3.6625,2.4234375 3.0234375,3.06875 C2.384375,3.7140625 1.8828125,4.4640625 1.5359375,5.3 C1.1765625,6.165625 0.9953125,7.0859375 1,8.0328125 C1.0046875,9.1171875 1.2640625,10.19375 1.75,11.15625 L1.75,13.53125 C1.75,13.928125 2.071875,14.25 2.46875,14.25 L4.8453125,14.25 C5.8078125,14.7359375 6.884375,14.9953125 7.96875,15 L8.0015625,15 C8.9375,15 9.8453125,14.81875 10.7,14.4640625 C11.5359375,14.115625 12.2875,13.615625 12.93125,12.9765625 C13.5765625,12.3375 14.084375,11.590625 14.4390625,10.7578125 C14.8078125,9.8953125 14.9953125,8.978125 15,8.03125 C15.0046875,7.0796875 14.8203125,6.15625 14.45625,5.2875 Z M12.0953125,12.13125 C11,13.215625 9.546875,13.8125 8,13.8125 L7.9734375,13.8125 C7.03125,13.8078125 6.0953125,13.5734375 5.26875,13.1328125 L5.1375,13.0625 L2.9375,13.0625 L2.9375,10.8625 L2.8671875,10.73125 C2.4265625,9.9046875 2.1921875,8.96875 2.1875,8.0265625 C2.18125,6.46875 2.7765625,5.00625 3.86875,3.9046875 C4.959375,2.803125 6.4171875,2.19375 7.975,2.1875 L8.0015625,2.1875 C8.7828125,2.1875 9.540625,2.3390625 10.2546875,2.6390625 C10.9515625,2.93125 11.5765625,3.3515625 12.1140625,3.8890625 C12.65,4.425 13.071875,5.0515625 13.3640625,5.7484375 C13.6671875,6.4703125 13.81875,7.2359375 13.815625,8.0265625 C13.80625,9.5828125 13.1953125,11.040625 12.0953125,12.13125 Z" id="Shape" fill="url(#linearGradient-12)"></path>
                            </g>
                            <g id="info-circle" transform="translate(144.000000, 21.000000)" fill-rule="nonzero">
                                <rect id="Rectangle-path" fill="#000000" opacity="0" x="0" y="0" width="16" height="16"></rect>
                                <path d="M8,1 C4.134375,1 1,4.134375 1,8 C1,11.865625 4.134375,15 8,15 C11.865625,15 15,11.865625 15,8 C15,4.134375 11.865625,1 8,1 Z M8,13.8125 C4.790625,13.8125 2.1875,11.209375 2.1875,8 C2.1875,4.790625 4.790625,2.1875 8,2.1875 C11.209375,2.1875 13.8125,4.790625 13.8125,8 C13.8125,11.209375 11.209375,13.8125 8,13.8125 Z" id="Shape" fill="#FFFFFF"></path>
                                <path d="M7.25,5.25 C7.25,5.66421356 7.58578644,6 8,6 C8.41421356,6 8.75,5.66421356 8.75,5.25 C8.75,4.83578644 8.41421356,4.5 8,4.5 C7.58578644,4.5 7.25,4.83578644 7.25,5.25 Z" id="Shape" fill="#FFFFFF"></path>
                                <path d="M8.375,7 L7.625,7 C7.55625,7 7.5,7.05625 7.5,7.125 L7.5,11.375 C7.5,11.44375 7.55625,11.5 7.625,11.5 L8.375,11.5 C8.44375,11.5 8.5,11.44375 8.5,11.375 L8.5,7.125 C8.5,7.05625 8.44375,7 8.375,7 Z" id="Shape" fill="#FFFFFF"></path>
                            </g>
                            <text id="09:48-AM" font-family="STYuanti-SC-Regular, Yuanti SC" font-size="14" font-weight="normal" fill="#FFFFFF">
                                <tspan x="20.062" y="15">09:48 AM</tspan>
                            </text>
                            <text id="事件核实" font-family="PingFangSC-Regular, PingFang SC" font-size="20" font-weight="normal" fill="#FFFFFF">
                                <tspan x="40" y="48">事件核实</tspan>
                            </text>
                        </g>
                        <g id="Group-Copy-8" transform="translate(0.000000, 151.000000)">
                            <g id="Rectangle-3-Copy-3">
                                <use fill="black" fill-opacity="1" filter="url(#filter-33)" xlink:href="#path-32"></use>
                                <use fill="url(#linearGradient-31)" fill-rule="evenodd" xlink:href="#path-32"></use>
                            </g>
                            <g id="message" transform="translate(0.000000, 64.000000)" fill-rule="nonzero">
                                <rect id="Rectangle-path" fill="#000000" opacity="0" x="0" y="0" width="16" height="16"></rect>
                                <path d="M7.25,8 C7.25,8.41421356 7.58578644,8.75 8,8.75 C8.41421356,8.75 8.75,8.41421356 8.75,8 C8.75,7.58578644 8.41421356,7.25 8,7.25 C7.58578644,7.25 7.25,7.58578644 7.25,8 Z M10.375,8 C10.375,8.41421356 10.7107864,8.75 11.125,8.75 C11.5392136,8.75 11.875,8.41421356 11.875,8 C11.875,7.58578644 11.5392136,7.25 11.125,7.25 C10.7107864,7.25 10.375,7.58578644 10.375,8 Z M4.125,8 C4.125,8.41421356 4.46078644,8.75 4.875,8.75 C5.28921356,8.75 5.625,8.41421356 5.625,8 C5.625,7.58578644 5.28921356,7.25 4.875,7.25 C4.46078644,7.25 4.125,7.58578644 4.125,8 Z M14.45625,5.2875 C14.103125,4.4484375 13.596875,3.6953125 12.9515625,3.0484375 C12.30625,2.403125 11.553125,1.8953125 10.7125,1.54375 C9.853125,1.1828125 8.940625,1 8,1 L7.96875,1 C7.021875,1.0046875 6.1046875,1.1921875 5.2421875,1.5609375 C4.409375,1.9171875 3.6625,2.4234375 3.0234375,3.06875 C2.384375,3.7140625 1.8828125,4.4640625 1.5359375,5.3 C1.1765625,6.165625 0.9953125,7.0859375 1,8.0328125 C1.0046875,9.1171875 1.2640625,10.19375 1.75,11.15625 L1.75,13.53125 C1.75,13.928125 2.071875,14.25 2.46875,14.25 L4.8453125,14.25 C5.8078125,14.7359375 6.884375,14.9953125 7.96875,15 L8.0015625,15 C8.9375,15 9.8453125,14.81875 10.7,14.4640625 C11.5359375,14.115625 12.2875,13.615625 12.93125,12.9765625 C13.5765625,12.3375 14.084375,11.590625 14.4390625,10.7578125 C14.8078125,9.8953125 14.9953125,8.978125 15,8.03125 C15.0046875,7.0796875 14.8203125,6.15625 14.45625,5.2875 Z M12.0953125,12.13125 C11,13.215625 9.546875,13.8125 8,13.8125 L7.9734375,13.8125 C7.03125,13.8078125 6.0953125,13.5734375 5.26875,13.1328125 L5.1375,13.0625 L2.9375,13.0625 L2.9375,10.8625 L2.8671875,10.73125 C2.4265625,9.9046875 2.1921875,8.96875 2.1875,8.0265625 C2.18125,6.46875 2.7765625,5.00625 3.86875,3.9046875 C4.959375,2.803125 6.4171875,2.19375 7.975,2.1875 L8.0015625,2.1875 C8.7828125,2.1875 9.540625,2.3390625 10.2546875,2.6390625 C10.9515625,2.93125 11.5765625,3.3515625 12.1140625,3.8890625 C12.65,4.425 13.071875,5.0515625 13.3640625,5.7484375 C13.6671875,6.4703125 13.81875,7.2359375 13.815625,8.0265625 C13.80625,9.5828125 13.1953125,11.040625 12.0953125,12.13125 Z" id="Shape" fill="url(#linearGradient-12)"></path>
                            </g>
                            <g id="info-circle" transform="translate(144.000000, 40.000000)" fill-rule="nonzero">
                                <rect id="Rectangle-path" fill="#000000" opacity="0" x="0" y="0" width="16" height="16"></rect>
                                <path d="M8,1 C4.134375,1 1,4.134375 1,8 C1,11.865625 4.134375,15 8,15 C11.865625,15 15,11.865625 15,8 C15,4.134375 11.865625,1 8,1 Z M8,13.8125 C4.790625,13.8125 2.1875,11.209375 2.1875,8 C2.1875,4.790625 4.790625,2.1875 8,2.1875 C11.209375,2.1875 13.8125,4.790625 13.8125,8 C13.8125,11.209375 11.209375,13.8125 8,13.8125 Z" id="Shape" fill="#FFFFFF"></path>
                                <path d="M7.25,5.25 C7.25,5.66421356 7.58578644,6 8,6 C8.41421356,6 8.75,5.66421356 8.75,5.25 C8.75,4.83578644 8.41421356,4.5 8,4.5 C7.58578644,4.5 7.25,4.83578644 7.25,5.25 Z" id="Shape" fill="#FFFFFF"></path>
                                <path d="M8.375,7 L7.625,7 C7.55625,7 7.5,7.05625 7.5,7.125 L7.5,11.375 C7.5,11.44375 7.55625,11.5 7.625,11.5 L8.375,11.5 C8.44375,11.5 8.5,11.44375 8.5,11.375 L8.5,7.125 C8.5,7.05625 8.44375,7 8.375,7 Z" id="Shape" fill="#FFFFFF"></path>
                            </g>
                            <text id="09:50-AM" font-family="STYuanti-SC-Regular, Yuanti SC" font-size="14" font-weight="normal" fill="#FFFFFF">
                                <tspan x="20.139" y="34">09:50 AM</tspan>
                            </text>
                            <text id="综合协调" font-family="PingFangSC-Regular, PingFang SC" font-size="20" font-weight="normal" fill="#FFFFFF">
                                <tspan x="40" y="67">综合协调</tspan>
                            </text>
                            <text id="30分钟内电话报告，-1小时内书面报告。" font-family="STYuanti-SC-Regular, Yuanti SC" font-size="12" font-weight="normal" fill="#FFFFFF">
                                <tspan x="94" y="13">30分钟内电话报告，</tspan>
                                <tspan x="94" y="30">1小时内书面报告。</tspan>
                            </text>
                        </g>
                        <g id="Group-Copy-9" transform="translate(0.000000, 233.000000)">
                            <g id="Rectangle-3-Copy-3">
                                <use fill="black" fill-opacity="1" filter="url(#filter-35)" xlink:href="#path-34"></use>
                                <use fill="url(#linearGradient-31)" fill-rule="evenodd" xlink:href="#path-34"></use>
                            </g>
                            <g id="reload-time" transform="translate(124.000000, 110.000000)" fill-rule="nonzero">
                                <rect id="Rectangle-path" fill="#000000" opacity="0" x="0" y="0" width="16" height="16"></rect>
                                <path d="M8.3765625,4.265625 L7.625,4.265625 C7.55625,4.265625 7.5,4.321875 7.5,4.390625 L7.5,8.6921875 C7.5,8.7328125 7.51875,8.7703125 7.5515625,8.79375 L10.134375,10.6796875 C10.190625,10.7203125 10.26875,10.709375 10.309375,10.653125 L10.75625,10.04375 C10.7984375,9.9859375 10.7859375,9.9078125 10.7296875,9.86875 L8.5015625,8.2578125 L8.5015625,4.390625 C8.5015625,4.321875 8.4453125,4.265625 8.3765625,4.265625 Z M11.8109375,5.440625 L14.2609375,6.0390625 C14.3390625,6.0578125 14.415625,5.9984375 14.415625,5.91875 L14.428125,3.3953125 C14.428125,3.290625 14.3078125,3.23125 14.2265625,3.296875 L11.7640625,5.2203125 C11.68125,5.2859375 11.709375,5.415625 11.8109375,5.440625 Z M14.43125,10.1453125 L13.5453125,9.840625 C13.48125,9.81875 13.4109375,9.8515625 13.3875,9.915625 C13.3578125,9.9953125 13.3265625,10.0734375 13.29375,10.1515625 C13.015625,10.809375 12.6171875,11.4015625 12.1078125,11.909375 C11.6,12.4171875 11.0078125,12.8171875 10.35,13.0953125 C9.66875,13.3828125 8.9453125,13.5296875 8.1984375,13.5296875 C7.4515625,13.5296875 6.728125,13.384375 6.046875,13.0953125 C5.3890625,12.8171875 4.796875,12.4171875 4.2890625,11.909375 C3.78125,11.4015625 3.3828125,10.809375 3.103125,10.1515625 C2.8171875,9.471875 2.671875,8.746875 2.671875,8 C2.671875,7.253125 2.8171875,6.528125 3.10625,5.846875 C3.384375,5.1890625 3.7828125,4.596875 4.2921875,4.0890625 C4.8,3.58125 5.3921875,3.18125 6.05,2.903125 C6.728125,2.6140625 7.453125,2.46875 8.2,2.46875 C8.946875,2.46875 9.6703125,2.6140625 10.3515625,2.903125 C11.009375,3.18125 11.6015625,3.58125 12.109375,4.0890625 C12.26875,4.25 12.41875,4.4171875 12.55625,4.59375 L13.490625,3.8625 C12.2609375,2.290625 10.346875,1.2796875 8.196875,1.28125 C4.453125,1.2828125 1.446875,4.3234375 1.484375,8.06875 C1.521875,11.7484375 4.5140625,14.71875 8.2,14.71875 C11.0984375,14.71875 13.5671875,12.88125 14.5078125,10.3078125 C14.53125,10.2421875 14.496875,10.16875 14.43125,10.1453125 Z" id="Shape" fill="url(#linearGradient-31)"></path>
                            </g>
                            <path d="M118,118 L121,118 L116,126 L111,118 L114,118 L114,0 L118,0 L118,118 Z" id="Combined-Shape" fill="#FFFFFF" transform="translate(116.000000, 63.000000) scale(1, -1) translate(-116.000000, -63.000000) "></path>
                            <g id="message" transform="translate(0.000000, 152.000000)" fill-rule="nonzero">
                                <rect id="Rectangle-path" fill="#000000" opacity="0" x="0" y="0" width="16" height="16"></rect>
                                <path d="M7.25,8 C7.25,8.41421356 7.58578644,8.75 8,8.75 C8.41421356,8.75 8.75,8.41421356 8.75,8 C8.75,7.58578644 8.41421356,7.25 8,7.25 C7.58578644,7.25 7.25,7.58578644 7.25,8 Z M10.375,8 C10.375,8.41421356 10.7107864,8.75 11.125,8.75 C11.5392136,8.75 11.875,8.41421356 11.875,8 C11.875,7.58578644 11.5392136,7.25 11.125,7.25 C10.7107864,7.25 10.375,7.58578644 10.375,8 Z M4.125,8 C4.125,8.41421356 4.46078644,8.75 4.875,8.75 C5.28921356,8.75 5.625,8.41421356 5.625,8 C5.625,7.58578644 5.28921356,7.25 4.875,7.25 C4.46078644,7.25 4.125,7.58578644 4.125,8 Z M14.45625,5.2875 C14.103125,4.4484375 13.596875,3.6953125 12.9515625,3.0484375 C12.30625,2.403125 11.553125,1.8953125 10.7125,1.54375 C9.853125,1.1828125 8.940625,1 8,1 L7.96875,1 C7.021875,1.0046875 6.1046875,1.1921875 5.2421875,1.5609375 C4.409375,1.9171875 3.6625,2.4234375 3.0234375,3.06875 C2.384375,3.7140625 1.8828125,4.4640625 1.5359375,5.3 C1.1765625,6.165625 0.9953125,7.0859375 1,8.0328125 C1.0046875,9.1171875 1.2640625,10.19375 1.75,11.15625 L1.75,13.53125 C1.75,13.928125 2.071875,14.25 2.46875,14.25 L4.8453125,14.25 C5.8078125,14.7359375 6.884375,14.9953125 7.96875,15 L8.0015625,15 C8.9375,15 9.8453125,14.81875 10.7,14.4640625 C11.5359375,14.115625 12.2875,13.615625 12.93125,12.9765625 C13.5765625,12.3375 14.084375,11.590625 14.4390625,10.7578125 C14.8078125,9.8953125 14.9953125,8.978125 15,8.03125 C15.0046875,7.0796875 14.8203125,6.15625 14.45625,5.2875 Z M12.0953125,12.13125 C11,13.215625 9.546875,13.8125 8,13.8125 L7.9734375,13.8125 C7.03125,13.8078125 6.0953125,13.5734375 5.26875,13.1328125 L5.1375,13.0625 L2.9375,13.0625 L2.9375,10.8625 L2.8671875,10.73125 C2.4265625,9.9046875 2.1921875,8.96875 2.1875,8.0265625 C2.18125,6.46875 2.7765625,5.00625 3.86875,3.9046875 C4.959375,2.803125 6.4171875,2.19375 7.975,2.1875 L8.0015625,2.1875 C8.7828125,2.1875 9.540625,2.3390625 10.2546875,2.6390625 C10.9515625,2.93125 11.5765625,3.3515625 12.1140625,3.8890625 C12.65,4.425 13.071875,5.0515625 13.3640625,5.7484375 C13.6671875,6.4703125 13.81875,7.2359375 13.815625,8.0265625 C13.80625,9.5828125 13.1953125,11.040625 12.0953125,12.13125 Z" id="Shape" fill="url(#linearGradient-12)"></path>
                            </g>
                            <g id="info-circle" transform="translate(144.000000, 128.000000)" fill-rule="nonzero">
                                <rect id="Rectangle-path" fill="#000000" opacity="0" x="0" y="0" width="16" height="16"></rect>
                                <path d="M8,1 C4.134375,1 1,4.134375 1,8 C1,11.865625 4.134375,15 8,15 C11.865625,15 15,11.865625 15,8 C15,4.134375 11.865625,1 8,1 Z M8,13.8125 C4.790625,13.8125 2.1875,11.209375 2.1875,8 C2.1875,4.790625 4.790625,2.1875 8,2.1875 C11.209375,2.1875 13.8125,4.790625 13.8125,8 C13.8125,11.209375 11.209375,13.8125 8,13.8125 Z" id="Shape" fill="#FFFFFF"></path>
                                <path d="M7.25,5.25 C7.25,5.66421356 7.58578644,6 8,6 C8.41421356,6 8.75,5.66421356 8.75,5.25 C8.75,4.83578644 8.41421356,4.5 8,4.5 C7.58578644,4.5 7.25,4.83578644 7.25,5.25 Z" id="Shape" fill="#FFFFFF"></path>
                                <path d="M8.375,7 L7.625,7 C7.55625,7 7.5,7.05625 7.5,7.125 L7.5,11.375 C7.5,11.44375 7.55625,11.5 7.625,11.5 L8.375,11.5 C8.44375,11.5 8.5,11.44375 8.5,11.375 L8.5,7.125 C8.5,7.05625 8.44375,7 8.375,7 Z" id="Shape" fill="#FFFFFF"></path>
                            </g>
                            <text id="09:50-AM" font-family="STYuanti-SC-Regular, Yuanti SC" font-size="14" font-weight="normal" fill="#FFFFFF">
                                <tspan x="20.139" y="122">09:50 AM</tspan>
                            </text>
                            <text id="信息汇总" font-family="PingFangSC-Regular, PingFang SC" font-size="20" font-weight="normal" fill="#FFFFFF">
                                <tspan x="40" y="155">信息汇总</tspan>
                            </text>
                        </g>
                    </g>
                    <path d="M150,44 L150,47 L142,42 L150,37 L150,40 L306,40 L306,44 L150,44 Z" id="Combined-Shape" fill="#FFFFFF"></path>
                </g>
            </g>
            <g id="Group-5-Copy-6" transform="translate(743.000000, 39.000000)">
                <g id="Group-4">
                    <g id="Group-3" transform="translate(0.000000, 240.000000)">
                        <g id="Group-5">
                            <g id="Group" transform="translate(65.000000, 0.000000)">
                                <g id="Group-6" transform="translate(0.000000, 21.000000)">
                                    <g id="Rectangle-3-Copy-3">
                                        <use fill="black" fill-opacity="1" filter="url(#filter-37)" xlink:href="#path-36"></use>
                                        <use fill="url(#linearGradient-7)" fill-rule="evenodd" xlink:href="#path-36"></use>
                                    </g>
                                    <path d="M218,189 L278,189 L278,193 L218,193 L214,193 L214,23 L152,23 L152,26 L144,21 L152,16 L152,19 L214,19 L218,19 L218,189 Z" id="Combined-Shape" fill="#FFFFFF"></path>
                                    <text id="成立指挥部" font-family="PingFangSC-Regular, PingFang SC" font-size="20" font-weight="normal" fill="#FFFFFF">
                                        <tspan x="10" y="27">成立指挥部</tspan>
                                    </text>
                                </g>
                                <g id="info-circle" transform="translate(124.000000, 21.000000)" fill-rule="nonzero">
                                    <rect id="Rectangle-path" fill="#000000" opacity="0" x="0" y="0" width="16" height="16"></rect>
                                    <path d="M8,1 C4.134375,1 1,4.134375 1,8 C1,11.865625 4.134375,15 8,15 C11.865625,15 15,11.865625 15,8 C15,4.134375 11.865625,1 8,1 Z M8,13.8125 C4.790625,13.8125 2.1875,11.209375 2.1875,8 C2.1875,4.790625 4.790625,2.1875 8,2.1875 C11.209375,2.1875 13.8125,4.790625 13.8125,8 C13.8125,11.209375 11.209375,13.8125 8,13.8125 Z" id="Shape" fill="#FFFFFF"></path>
                                    <path d="M7.25,5.25 C7.25,5.66421356 7.58578644,6 8,6 C8.41421356,6 8.75,5.66421356 8.75,5.25 C8.75,4.83578644 8.41421356,4.5 8,4.5 C7.58578644,4.5 7.25,4.83578644 7.25,5.25 Z" id="Shape" fill="#FFFFFF"></path>
                                    <path d="M8.375,7 L7.625,7 C7.55625,7 7.5,7.05625 7.5,7.125 L7.5,11.375 C7.5,11.44375 7.55625,11.5 7.625,11.5 L8.375,11.5 C8.44375,11.5 8.5,11.44375 8.5,11.375 L8.5,7.125 C8.5,7.05625 8.44375,7 8.375,7 Z" id="Shape" fill="#FFFFFF"></path>
                                </g>
                                <g id="Group-2" transform="translate(55.000000, 63.000000)" fill="#FFFFFF">
                                    <path d="M7,17 L10,17 L5,25 L0,17 L3,17 L3,0 L7,0 L7,17 Z" id="Combined-Shape"></path>
                                </g>
                                <text id="09:51-AM" font-family="STYuanti-SC-Regular, Yuanti SC" font-size="14" font-weight="normal" fill="#FFFFFF">
                                    <tspan x="1.826" y="15">09:51 AM</tspan>
                                </text>
                            </g>
                            <g id="Group-Copy-6" transform="translate(45.000000, 85.000000)">
                                <g id="Rectangle-3-Copy-3">
                                    <use fill="black" fill-opacity="1" filter="url(#filter-39)" xlink:href="#path-38"></use>
                                    <use fill="url(#linearGradient-7)" fill-rule="evenodd" xlink:href="#path-38"></use>
                                </g>
                                <path d="M82,80 L85,80 L80,88 L75,80 L78,80 L78,63 L82,63 L82,80 Z" id="Combined-Shape" fill="#FFFFFF"></path>
                                <g id="message" transform="translate(0.000000, 45.000000)" fill-rule="nonzero">
                                    <rect id="Rectangle-path" fill="#000000" opacity="0" x="0" y="0" width="16" height="16"></rect>
                                    <path d="M7.25,8 C7.25,8.41421356 7.58578644,8.75 8,8.75 C8.41421356,8.75 8.75,8.41421356 8.75,8 C8.75,7.58578644 8.41421356,7.25 8,7.25 C7.58578644,7.25 7.25,7.58578644 7.25,8 Z M10.375,8 C10.375,8.41421356 10.7107864,8.75 11.125,8.75 C11.5392136,8.75 11.875,8.41421356 11.875,8 C11.875,7.58578644 11.5392136,7.25 11.125,7.25 C10.7107864,7.25 10.375,7.58578644 10.375,8 Z M4.125,8 C4.125,8.41421356 4.46078644,8.75 4.875,8.75 C5.28921356,8.75 5.625,8.41421356 5.625,8 C5.625,7.58578644 5.28921356,7.25 4.875,7.25 C4.46078644,7.25 4.125,7.58578644 4.125,8 Z M14.45625,5.2875 C14.103125,4.4484375 13.596875,3.6953125 12.9515625,3.0484375 C12.30625,2.403125 11.553125,1.8953125 10.7125,1.54375 C9.853125,1.1828125 8.940625,1 8,1 L7.96875,1 C7.021875,1.0046875 6.1046875,1.1921875 5.2421875,1.5609375 C4.409375,1.9171875 3.6625,2.4234375 3.0234375,3.06875 C2.384375,3.7140625 1.8828125,4.4640625 1.5359375,5.3 C1.1765625,6.165625 0.9953125,7.0859375 1,8.0328125 C1.0046875,9.1171875 1.2640625,10.19375 1.75,11.15625 L1.75,13.53125 C1.75,13.928125 2.071875,14.25 2.46875,14.25 L4.8453125,14.25 C5.8078125,14.7359375 6.884375,14.9953125 7.96875,15 L8.0015625,15 C8.9375,15 9.8453125,14.81875 10.7,14.4640625 C11.5359375,14.115625 12.2875,13.615625 12.93125,12.9765625 C13.5765625,12.3375 14.084375,11.590625 14.4390625,10.7578125 C14.8078125,9.8953125 14.9953125,8.978125 15,8.03125 C15.0046875,7.0796875 14.8203125,6.15625 14.45625,5.2875 Z M12.0953125,12.13125 C11,13.215625 9.546875,13.8125 8,13.8125 L7.9734375,13.8125 C7.03125,13.8078125 6.0953125,13.5734375 5.26875,13.1328125 L5.1375,13.0625 L2.9375,13.0625 L2.9375,10.8625 L2.8671875,10.73125 C2.4265625,9.9046875 2.1921875,8.96875 2.1875,8.0265625 C2.18125,6.46875 2.7765625,5.00625 3.86875,3.9046875 C4.959375,2.803125 6.4171875,2.19375 7.975,2.1875 L8.0015625,2.1875 C8.7828125,2.1875 9.540625,2.3390625 10.2546875,2.6390625 C10.9515625,2.93125 11.5765625,3.3515625 12.1140625,3.8890625 C12.65,4.425 13.071875,5.0515625 13.3640625,5.7484375 C13.6671875,6.4703125 13.81875,7.2359375 13.815625,8.0265625 C13.80625,9.5828125 13.1953125,11.040625 12.0953125,12.13125 Z" id="Shape" fill="url(#linearGradient-12)"></path>
                                </g>
                                <g id="info-circle" transform="translate(144.000000, 21.000000)" fill-rule="nonzero">
                                    <rect id="Rectangle-path" fill="#000000" opacity="0" x="0" y="0" width="16" height="16"></rect>
                                    <path d="M8,1 C4.134375,1 1,4.134375 1,8 C1,11.865625 4.134375,15 8,15 C11.865625,15 15,11.865625 15,8 C15,4.134375 11.865625,1 8,1 Z M8,13.8125 C4.790625,13.8125 2.1875,11.209375 2.1875,8 C2.1875,4.790625 4.790625,2.1875 8,2.1875 C11.209375,2.1875 13.8125,4.790625 13.8125,8 C13.8125,11.209375 11.209375,13.8125 8,13.8125 Z" id="Shape" fill="#FFFFFF"></path>
                                    <path d="M7.25,5.25 C7.25,5.66421356 7.58578644,6 8,6 C8.41421356,6 8.75,5.66421356 8.75,5.25 C8.75,4.83578644 8.41421356,4.5 8,4.5 C7.58578644,4.5 7.25,4.83578644 7.25,5.25 Z" id="Shape" fill="#FFFFFF"></path>
                                    <path d="M8.375,7 L7.625,7 C7.55625,7 7.5,7.05625 7.5,7.125 L7.5,11.375 C7.5,11.44375 7.55625,11.5 7.625,11.5 L8.375,11.5 C8.44375,11.5 8.5,11.44375 8.5,11.375 L8.5,7.125 C8.5,7.05625 8.44375,7 8.375,7 Z" id="Shape" fill="#FFFFFF"></path>
                                </g>
                                <text id="09:51-AM" font-family="STYuanti-SC-Regular, Yuanti SC" font-size="14" font-weight="normal" fill="#FFFFFF">
                                    <tspan x="21.826" y="15">09:51 AM</tspan>
                                </text>
                                <text id="事件核实" font-family="PingFangSC-Regular, PingFang SC" font-size="20" font-weight="normal" fill="#FFFFFF">
                                    <tspan x="40" y="48">事件核实</tspan>
                                </text>
                            </g>
                            <g id="Group-Copy-8" transform="translate(45.000000, 170.000000)">
                                <g id="Rectangle-3-Copy-3">
                                    <use fill="black" fill-opacity="1" filter="url(#filter-41)" xlink:href="#path-40"></use>
                                    <use fill="url(#linearGradient-7)" fill-rule="evenodd" xlink:href="#path-40"></use>
                                </g>
                                <path d="M82,80 L85,80 L80,88 L75,80 L78,80 L78,63 L82,63 L82,80 Z" id="Combined-Shape" fill="#FFFFFF"></path>
                                <g id="message" transform="translate(0.000000, 45.000000)" fill-rule="nonzero">
                                    <rect id="Rectangle-path" fill="#000000" opacity="0" x="0" y="0" width="16" height="16"></rect>
                                    <path d="M7.25,8 C7.25,8.41421356 7.58578644,8.75 8,8.75 C8.41421356,8.75 8.75,8.41421356 8.75,8 C8.75,7.58578644 8.41421356,7.25 8,7.25 C7.58578644,7.25 7.25,7.58578644 7.25,8 Z M10.375,8 C10.375,8.41421356 10.7107864,8.75 11.125,8.75 C11.5392136,8.75 11.875,8.41421356 11.875,8 C11.875,7.58578644 11.5392136,7.25 11.125,7.25 C10.7107864,7.25 10.375,7.58578644 10.375,8 Z M4.125,8 C4.125,8.41421356 4.46078644,8.75 4.875,8.75 C5.28921356,8.75 5.625,8.41421356 5.625,8 C5.625,7.58578644 5.28921356,7.25 4.875,7.25 C4.46078644,7.25 4.125,7.58578644 4.125,8 Z M14.45625,5.2875 C14.103125,4.4484375 13.596875,3.6953125 12.9515625,3.0484375 C12.30625,2.403125 11.553125,1.8953125 10.7125,1.54375 C9.853125,1.1828125 8.940625,1 8,1 L7.96875,1 C7.021875,1.0046875 6.1046875,1.1921875 5.2421875,1.5609375 C4.409375,1.9171875 3.6625,2.4234375 3.0234375,3.06875 C2.384375,3.7140625 1.8828125,4.4640625 1.5359375,5.3 C1.1765625,6.165625 0.9953125,7.0859375 1,8.0328125 C1.0046875,9.1171875 1.2640625,10.19375 1.75,11.15625 L1.75,13.53125 C1.75,13.928125 2.071875,14.25 2.46875,14.25 L4.8453125,14.25 C5.8078125,14.7359375 6.884375,14.9953125 7.96875,15 L8.0015625,15 C8.9375,15 9.8453125,14.81875 10.7,14.4640625 C11.5359375,14.115625 12.2875,13.615625 12.93125,12.9765625 C13.5765625,12.3375 14.084375,11.590625 14.4390625,10.7578125 C14.8078125,9.8953125 14.9953125,8.978125 15,8.03125 C15.0046875,7.0796875 14.8203125,6.15625 14.45625,5.2875 Z M12.0953125,12.13125 C11,13.215625 9.546875,13.8125 8,13.8125 L7.9734375,13.8125 C7.03125,13.8078125 6.0953125,13.5734375 5.26875,13.1328125 L5.1375,13.0625 L2.9375,13.0625 L2.9375,10.8625 L2.8671875,10.73125 C2.4265625,9.9046875 2.1921875,8.96875 2.1875,8.0265625 C2.18125,6.46875 2.7765625,5.00625 3.86875,3.9046875 C4.959375,2.803125 6.4171875,2.19375 7.975,2.1875 L8.0015625,2.1875 C8.7828125,2.1875 9.540625,2.3390625 10.2546875,2.6390625 C10.9515625,2.93125 11.5765625,3.3515625 12.1140625,3.8890625 C12.65,4.425 13.071875,5.0515625 13.3640625,5.7484375 C13.6671875,6.4703125 13.81875,7.2359375 13.815625,8.0265625 C13.80625,9.5828125 13.1953125,11.040625 12.0953125,12.13125 Z" id="Shape" fill="url(#linearGradient-12)"></path>
                                </g>
                                <g id="info-circle" transform="translate(144.000000, 21.000000)" fill-rule="nonzero">
                                    <rect id="Rectangle-path" fill="#000000" opacity="0" x="0" y="0" width="16" height="16"></rect>
                                    <path d="M8,1 C4.134375,1 1,4.134375 1,8 C1,11.865625 4.134375,15 8,15 C11.865625,15 15,11.865625 15,8 C15,4.134375 11.865625,1 8,1 Z M8,13.8125 C4.790625,13.8125 2.1875,11.209375 2.1875,8 C2.1875,4.790625 4.790625,2.1875 8,2.1875 C11.209375,2.1875 13.8125,4.790625 13.8125,8 C13.8125,11.209375 11.209375,13.8125 8,13.8125 Z" id="Shape" fill="#FFFFFF"></path>
                                    <path d="M7.25,5.25 C7.25,5.66421356 7.58578644,6 8,6 C8.41421356,6 8.75,5.66421356 8.75,5.25 C8.75,4.83578644 8.41421356,4.5 8,4.5 C7.58578644,4.5 7.25,4.83578644 7.25,5.25 Z" id="Shape" fill="#FFFFFF"></path>
                                    <path d="M8.375,7 L7.625,7 C7.55625,7 7.5,7.05625 7.5,7.125 L7.5,11.375 C7.5,11.44375 7.55625,11.5 7.625,11.5 L8.375,11.5 C8.44375,11.5 8.5,11.44375 8.5,11.375 L8.5,7.125 C8.5,7.05625 8.44375,7 8.375,7 Z" id="Shape" fill="#FFFFFF"></path>
                                </g>
                                <text id="10:05-AM" font-family="STYuanti-SC-Regular, Yuanti SC" font-size="14" font-weight="normal" fill="#FFFFFF">
                                    <tspan x="21.504" y="15">10:05 AM</tspan>
                                </text>
                                <text id="研判定级" font-family="PingFangSC-Regular, PingFang SC" font-size="20" font-weight="normal" fill="#FFFFFF">
                                    <tspan x="40" y="48">研判定级</tspan>
                                </text>
                            </g>
                            <g id="Group-Copy-10" transform="translate(45.000000, 254.000000)">
                                <g id="Rectangle-3-Copy-3">
                                    <use fill="black" fill-opacity="1" filter="url(#filter-43)" xlink:href="#path-42"></use>
                                    <use fill="url(#linearGradient-31)" fill-rule="evenodd" xlink:href="#path-42"></use>
                                </g>
                                <path d="M82,80 L85,80 L80,88 L75,80 L78,80 L78,63 L82,63 L82,80 Z" id="Combined-Shape" fill="#FFFFFF"></path>
                                <g id="message" transform="translate(0.000000, 45.000000)" fill-rule="nonzero">
                                    <rect id="Rectangle-path" fill="#000000" opacity="0" x="0" y="0" width="16" height="16"></rect>
                                    <path d="M7.25,8 C7.25,8.41421356 7.58578644,8.75 8,8.75 C8.41421356,8.75 8.75,8.41421356 8.75,8 C8.75,7.58578644 8.41421356,7.25 8,7.25 C7.58578644,7.25 7.25,7.58578644 7.25,8 Z M10.375,8 C10.375,8.41421356 10.7107864,8.75 11.125,8.75 C11.5392136,8.75 11.875,8.41421356 11.875,8 C11.875,7.58578644 11.5392136,7.25 11.125,7.25 C10.7107864,7.25 10.375,7.58578644 10.375,8 Z M4.125,8 C4.125,8.41421356 4.46078644,8.75 4.875,8.75 C5.28921356,8.75 5.625,8.41421356 5.625,8 C5.625,7.58578644 5.28921356,7.25 4.875,7.25 C4.46078644,7.25 4.125,7.58578644 4.125,8 Z M14.45625,5.2875 C14.103125,4.4484375 13.596875,3.6953125 12.9515625,3.0484375 C12.30625,2.403125 11.553125,1.8953125 10.7125,1.54375 C9.853125,1.1828125 8.940625,1 8,1 L7.96875,1 C7.021875,1.0046875 6.1046875,1.1921875 5.2421875,1.5609375 C4.409375,1.9171875 3.6625,2.4234375 3.0234375,3.06875 C2.384375,3.7140625 1.8828125,4.4640625 1.5359375,5.3 C1.1765625,6.165625 0.9953125,7.0859375 1,8.0328125 C1.0046875,9.1171875 1.2640625,10.19375 1.75,11.15625 L1.75,13.53125 C1.75,13.928125 2.071875,14.25 2.46875,14.25 L4.8453125,14.25 C5.8078125,14.7359375 6.884375,14.9953125 7.96875,15 L8.0015625,15 C8.9375,15 9.8453125,14.81875 10.7,14.4640625 C11.5359375,14.115625 12.2875,13.615625 12.93125,12.9765625 C13.5765625,12.3375 14.084375,11.590625 14.4390625,10.7578125 C14.8078125,9.8953125 14.9953125,8.978125 15,8.03125 C15.0046875,7.0796875 14.8203125,6.15625 14.45625,5.2875 Z M12.0953125,12.13125 C11,13.215625 9.546875,13.8125 8,13.8125 L7.9734375,13.8125 C7.03125,13.8078125 6.0953125,13.5734375 5.26875,13.1328125 L5.1375,13.0625 L2.9375,13.0625 L2.9375,10.8625 L2.8671875,10.73125 C2.4265625,9.9046875 2.1921875,8.96875 2.1875,8.0265625 C2.18125,6.46875 2.7765625,5.00625 3.86875,3.9046875 C4.959375,2.803125 6.4171875,2.19375 7.975,2.1875 L8.0015625,2.1875 C8.7828125,2.1875 9.540625,2.3390625 10.2546875,2.6390625 C10.9515625,2.93125 11.5765625,3.3515625 12.1140625,3.8890625 C12.65,4.425 13.071875,5.0515625 13.3640625,5.7484375 C13.6671875,6.4703125 13.81875,7.2359375 13.815625,8.0265625 C13.80625,9.5828125 13.1953125,11.040625 12.0953125,12.13125 Z" id="Shape" fill="url(#linearGradient-12)"></path>
                                </g>
                                <g id="info-circle" transform="translate(144.000000, 21.000000)" fill-rule="nonzero">
                                    <rect id="Rectangle-path" fill="#000000" opacity="0" x="0" y="0" width="16" height="16"></rect>
                                    <path d="M8,1 C4.134375,1 1,4.134375 1,8 C1,11.865625 4.134375,15 8,15 C11.865625,15 15,11.865625 15,8 C15,4.134375 11.865625,1 8,1 Z M8,13.8125 C4.790625,13.8125 2.1875,11.209375 2.1875,8 C2.1875,4.790625 4.790625,2.1875 8,2.1875 C11.209375,2.1875 13.8125,4.790625 13.8125,8 C13.8125,11.209375 11.209375,13.8125 8,13.8125 Z" id="Shape" fill="#FFFFFF"></path>
                                    <path d="M7.25,5.25 C7.25,5.66421356 7.58578644,6 8,6 C8.41421356,6 8.75,5.66421356 8.75,5.25 C8.75,4.83578644 8.41421356,4.5 8,4.5 C7.58578644,4.5 7.25,4.83578644 7.25,5.25 Z" id="Shape" fill="#FFFFFF"></path>
                                    <path d="M8.375,7 L7.625,7 C7.55625,7 7.5,7.05625 7.5,7.125 L7.5,11.375 C7.5,11.44375 7.55625,11.5 7.625,11.5 L8.375,11.5 C8.44375,11.5 8.5,11.44375 8.5,11.375 L8.5,7.125 C8.5,7.05625 8.44375,7 8.375,7 Z" id="Shape" fill="#FFFFFF"></path>
                                </g>
                                <text id="10:08-AM" font-family="STYuanti-SC-Regular, Yuanti SC" font-size="14" font-weight="normal" fill="#FFFFFF">
                                    <tspan x="21.329" y="15">10:08 AM</tspan>
                                </text>
                                <text id="启动预案" font-family="PingFangSC-Regular, PingFang SC" font-size="20" font-weight="normal" fill="#FFFFFF">
                                    <tspan x="40" y="48">启动预案</tspan>
                                </text>
                            </g>
                            <g id="Group-Copy-9" transform="translate(0.000000, 233.000000)">
                                <g id="Rectangle-3-Copy-3">
                                    <use fill="black" fill-opacity="1" filter="url(#filter-45)" xlink:href="#path-44"></use>
                                    <use fill="url(#linearGradient-31)" fill-rule="evenodd" xlink:href="#path-44"></use>
                                </g>
                                <g id="reload-time" transform="translate(214.000000, 110.000000)" fill-rule="nonzero">
                                    <rect id="Rectangle-path" fill="#000000" opacity="0" x="0" y="0" width="16" height="16"></rect>
                                    <path d="M8.3765625,4.265625 L7.625,4.265625 C7.55625,4.265625 7.5,4.321875 7.5,4.390625 L7.5,8.6921875 C7.5,8.7328125 7.51875,8.7703125 7.5515625,8.79375 L10.134375,10.6796875 C10.190625,10.7203125 10.26875,10.709375 10.309375,10.653125 L10.75625,10.04375 C10.7984375,9.9859375 10.7859375,9.9078125 10.7296875,9.86875 L8.5015625,8.2578125 L8.5015625,4.390625 C8.5015625,4.321875 8.4453125,4.265625 8.3765625,4.265625 Z M11.8109375,5.440625 L14.2609375,6.0390625 C14.3390625,6.0578125 14.415625,5.9984375 14.415625,5.91875 L14.428125,3.3953125 C14.428125,3.290625 14.3078125,3.23125 14.2265625,3.296875 L11.7640625,5.2203125 C11.68125,5.2859375 11.709375,5.415625 11.8109375,5.440625 Z M14.43125,10.1453125 L13.5453125,9.840625 C13.48125,9.81875 13.4109375,9.8515625 13.3875,9.915625 C13.3578125,9.9953125 13.3265625,10.0734375 13.29375,10.1515625 C13.015625,10.809375 12.6171875,11.4015625 12.1078125,11.909375 C11.6,12.4171875 11.0078125,12.8171875 10.35,13.0953125 C9.66875,13.3828125 8.9453125,13.5296875 8.1984375,13.5296875 C7.4515625,13.5296875 6.728125,13.384375 6.046875,13.0953125 C5.3890625,12.8171875 4.796875,12.4171875 4.2890625,11.909375 C3.78125,11.4015625 3.3828125,10.809375 3.103125,10.1515625 C2.8171875,9.471875 2.671875,8.746875 2.671875,8 C2.671875,7.253125 2.8171875,6.528125 3.10625,5.846875 C3.384375,5.1890625 3.7828125,4.596875 4.2921875,4.0890625 C4.8,3.58125 5.3921875,3.18125 6.05,2.903125 C6.728125,2.6140625 7.453125,2.46875 8.2,2.46875 C8.946875,2.46875 9.6703125,2.6140625 10.3515625,2.903125 C11.009375,3.18125 11.6015625,3.58125 12.109375,4.0890625 C12.26875,4.25 12.41875,4.4171875 12.55625,4.59375 L13.490625,3.8625 C12.2609375,2.290625 10.346875,1.2796875 8.196875,1.28125 C4.453125,1.2828125 1.446875,4.3234375 1.484375,8.06875 C1.521875,11.7484375 4.5140625,14.71875 8.2,14.71875 C11.0984375,14.71875 13.5671875,12.88125 14.5078125,10.3078125 C14.53125,10.2421875 14.496875,10.16875 14.43125,10.1453125 Z" id="Shape" fill="url(#linearGradient-31)"></path>
                                </g>
                                <path d="M430,233 L430,235 L159,235 L159,233 L159,170 L163,170 L163,231 L426,231 L426,178 L423,178 L428,170 L433,178 L430,178 L430,233 Z" id="Combined-Shape-Copy" fill="#FFFFFF"></path>
                                <path d="M422,63 L422,60 L430,65 L422,70 L422,67 L405,67 L405,150 L405,154 L254,154 L254,150 L401,150 L401,63 L405,63 L422,63 Z" id="Combined-Shape" fill="#FFFFFF" transform="translate(342.000000, 107.000000) scale(-1, -1) translate(-342.000000, -107.000000) "></path>
                                <rect id="Combined-Shape" fill="#FFFFFF" x="426" y="0" width="4" height="60"></rect>
                                <g id="message" transform="translate(0.000000, 152.000000)" fill-rule="nonzero">
                                    <rect id="Rectangle-path" fill="#000000" opacity="0" x="0" y="0" width="16" height="16"></rect>
                                    <path d="M7.25,8 C7.25,8.41421356 7.58578644,8.75 8,8.75 C8.41421356,8.75 8.75,8.41421356 8.75,8 C8.75,7.58578644 8.41421356,7.25 8,7.25 C7.58578644,7.25 7.25,7.58578644 7.25,8 Z M10.375,8 C10.375,8.41421356 10.7107864,8.75 11.125,8.75 C11.5392136,8.75 11.875,8.41421356 11.875,8 C11.875,7.58578644 11.5392136,7.25 11.125,7.25 C10.7107864,7.25 10.375,7.58578644 10.375,8 Z M4.125,8 C4.125,8.41421356 4.46078644,8.75 4.875,8.75 C5.28921356,8.75 5.625,8.41421356 5.625,8 C5.625,7.58578644 5.28921356,7.25 4.875,7.25 C4.46078644,7.25 4.125,7.58578644 4.125,8 Z M14.45625,5.2875 C14.103125,4.4484375 13.596875,3.6953125 12.9515625,3.0484375 C12.30625,2.403125 11.553125,1.8953125 10.7125,1.54375 C9.853125,1.1828125 8.940625,1 8,1 L7.96875,1 C7.021875,1.0046875 6.1046875,1.1921875 5.2421875,1.5609375 C4.409375,1.9171875 3.6625,2.4234375 3.0234375,3.06875 C2.384375,3.7140625 1.8828125,4.4640625 1.5359375,5.3 C1.1765625,6.165625 0.9953125,7.0859375 1,8.0328125 C1.0046875,9.1171875 1.2640625,10.19375 1.75,11.15625 L1.75,13.53125 C1.75,13.928125 2.071875,14.25 2.46875,14.25 L4.8453125,14.25 C5.8078125,14.7359375 6.884375,14.9953125 7.96875,15 L8.0015625,15 C8.9375,15 9.8453125,14.81875 10.7,14.4640625 C11.5359375,14.115625 12.2875,13.615625 12.93125,12.9765625 C13.5765625,12.3375 14.084375,11.590625 14.4390625,10.7578125 C14.8078125,9.8953125 14.9953125,8.978125 15,8.03125 C15.0046875,7.0796875 14.8203125,6.15625 14.45625,5.2875 Z M12.0953125,12.13125 C11,13.215625 9.546875,13.8125 8,13.8125 L7.9734375,13.8125 C7.03125,13.8078125 6.0953125,13.5734375 5.26875,13.1328125 L5.1375,13.0625 L2.9375,13.0625 L2.9375,10.8625 L2.8671875,10.73125 C2.4265625,9.9046875 2.1921875,8.96875 2.1875,8.0265625 C2.18125,6.46875 2.7765625,5.00625 3.86875,3.9046875 C4.959375,2.803125 6.4171875,2.19375 7.975,2.1875 L8.0015625,2.1875 C8.7828125,2.1875 9.540625,2.3390625 10.2546875,2.6390625 C10.9515625,2.93125 11.5765625,3.3515625 12.1140625,3.8890625 C12.65,4.425 13.071875,5.0515625 13.3640625,5.7484375 C13.6671875,6.4703125 13.81875,7.2359375 13.815625,8.0265625 C13.80625,9.5828125 13.1953125,11.040625 12.0953125,12.13125 Z" id="Shape" fill="url(#linearGradient-12)"></path>
                                </g>
                                <g id="info-circle" transform="translate(234.000000, 128.000000)" fill-rule="nonzero">
                                    <rect id="Rectangle-path" fill="#000000" opacity="0" x="0" y="0" width="16" height="16"></rect>
                                    <path d="M8,1 C4.134375,1 1,4.134375 1,8 C1,11.865625 4.134375,15 8,15 C11.865625,15 15,11.865625 15,8 C15,4.134375 11.865625,1 8,1 Z M8,13.8125 C4.790625,13.8125 2.1875,11.209375 2.1875,8 C2.1875,4.790625 4.790625,2.1875 8,2.1875 C11.209375,2.1875 13.8125,4.790625 13.8125,8 C13.8125,11.209375 11.209375,13.8125 8,13.8125 Z" id="Shape" fill="#FFFFFF"></path>
                                    <path d="M7.25,5.25 C7.25,5.66421356 7.58578644,6 8,6 C8.41421356,6 8.75,5.66421356 8.75,5.25 C8.75,4.83578644 8.41421356,4.5 8,4.5 C7.58578644,4.5 7.25,4.83578644 7.25,5.25 Z" id="Shape" fill="#FFFFFF"></path>
                                    <path d="M8.375,7 L7.625,7 C7.55625,7 7.5,7.05625 7.5,7.125 L7.5,11.375 C7.5,11.44375 7.55625,11.5 7.625,11.5 L8.375,11.5 C8.44375,11.5 8.5,11.44375 8.5,11.375 L8.5,7.125 C8.5,7.05625 8.44375,7 8.375,7 Z" id="Shape" fill="#FFFFFF"></path>
                                </g>
                                <text id="10:10-AM" font-family="STYuanti-SC-Regular, Yuanti SC" font-size="14" font-weight="normal" fill="#FFFFFF">
                                    <tspan x="67.911" y="122">10:10 AM</tspan>
                                </text>
                                <text id="统一指挥，统一领导" font-family="PingFangSC-Regular, PingFang SC" font-size="20" font-weight="normal" fill="#FFFFFF">
                                    <tspan x="35" y="155">统一指挥，统一领导</tspan>
                                </text>
                            </g>
                        </g>
                    </g>
                    <g id="Group-7" transform="translate(6.000000, 0.000000)">
                        <g id="Rectangle-2-Copy">
                            <use fill="#6848CE" xlink:href="#path-46"></use>
                            <use fill="url(#radialGradient-3)" xlink:href="#path-46"></use>
                        </g>
                        <g id="Rectangle-7">
                            <use fill="black" fill-opacity="1" filter="url(#filter-48)" xlink:href="#path-47"></use>
                            <use fill-opacity="0.2" fill="#FFFFFF" fill-rule="evenodd" xlink:href="#path-47"></use>
                        </g>
                        <text id="应急专项指挥部" font-family="STYuanti-SC-Regular, Yuanti SC" font-size="30" font-weight="normal" fill="#FFFFFF">
                            <tspan x="15" y="99">应急专项指挥部</tspan>
                        </text>
                        <g id="Shape" fill-rule="nonzero" transform="translate(119.500000, 20.500000) scale(1, -1) translate(-119.500000, -20.500000) ">
                            <use fill="black" fill-opacity="1" filter="url(#filter-51)" xlink:href="#path-50"></use>
                            <use fill="url(#linearGradient-49)" fill-rule="evenodd" xlink:href="#path-50"></use>
                        </g>
                    </g>
                </g>
            </g>
            <g id="arrow-left" transform="translate(822.000000, 867.000000)" fill="url(#linearGradient-52)" fill-rule="nonzero">
                <path d="M92.9205161,30.1074286 C92.9205161,31.3691429 92.5334684,32.4464762 91.7593732,33.3394286 C90.9852779,34.2323809 89.9795636,34.6788571 88.7422303,34.6788571 L23.2502857,34.6788571 L33.7142857,45.1794286 C34.6194286,46.0358095 35.072,47.1070476 35.072,48.3931429 C35.072,49.6792381 34.6194286,50.7504762 33.7142857,51.6068572 L31.0354286,54.3222857 C30.1546666,55.2030477 29.0834285,55.6434286 27.8217142,55.6434286 C26.5843809,55.6434286 25.5009524,55.2030477 24.5714286,54.3222857 L1.32114287,31.0354286 C0.440380958,30.1546667 0,29.0834286 0,27.8217143 C0,26.584381 0.440380958,25.5009524 1.32114287,24.5714286 L24.5714286,1.35771431 C25.4765714,0.452571437 26.56,0 27.8217142,0 C29.0590476,0 30.1302857,0.452571437 31.0354286,1.35771431 L33.7142857,4 C34.6194286,4.90514288 35.072,5.98857144 35.072,7.25028569 C35.072,8.51199994 34.6194286,9.5954285 33.7142857,10.5005714 L23.2502857,20.9645714 L88.7422303,20.9645714 C89.9795636,20.9645714 90.9852779,21.4110476 91.7593732,22.3039999 C92.5334684,23.1969523 92.9205161,24.2742856 92.9205161,25.5359999 L92.9205161,30.1074286 Z" id="Shape"></path>
            </g>
            <path d="M1860.11,807.86 C1860.11,809.420008 1858.85001,810.2 1856.33,810.2 C1853.80999,810.2 1852.55,809.420008 1852.55,807.86 L1852.55,775.46 L1849.61,775.46 C1848.85,775.46 1848.33,775.220002 1848.05,774.74 C1847.77,774.259998 1847.63,773.260008 1847.63,771.74 C1847.63,770.299993 1847.82,769.300003 1848.2,768.74 C1848.58,768.179997 1849.17,767.9 1849.97,767.9 L1855.97,767.9 C1858.73001,767.9 1860.11,768.93999 1860.11,771.02 L1860.11,807.86 Z M1880.63,767.12 C1883.27001,767.12 1885.51999,767.709994 1887.38,768.89 C1889.24001,770.070006 1890.74999,771.64999 1891.91,773.63 C1893.07001,775.61001 1893.91,777.899987 1894.43,780.5 C1894.95,783.100013 1895.21,785.839986 1895.21,788.72 C1895.21,791.600014 1894.91,794.339987 1894.31,796.94 C1893.71,799.540013 1892.81001,801.81999 1891.61,803.78 C1890.40999,805.74001 1888.89001,807.299994 1887.05,808.46 C1885.20999,809.620006 1883.05001,810.2 1880.57,810.2 C1878.08999,810.2 1875.94001,809.630006 1874.12,808.49 C1872.29999,807.349994 1870.79001,805.81001 1869.59,803.87 C1868.38999,801.92999 1867.5,799.670013 1866.92,797.09 C1866.34,794.509987 1866.05,791.780014 1866.05,788.9 C1866.05,786.019986 1866.32,783.260013 1866.86,780.62 C1867.4,777.979987 1868.24999,775.66001 1869.41,773.66 C1870.57001,771.65999 1872.07999,770.070006 1873.94,768.89 C1875.80001,767.709994 1878.02999,767.12 1880.63,767.12 Z M1880.63,802.64 C1881.91001,802.64 1883,802.230004 1883.9,801.41 C1884.8,800.589996 1885.52,799.520007 1886.06,798.2 C1886.6,796.879993 1886.99,795.400008 1887.23,793.76 C1887.47,792.119992 1887.59,790.460008 1887.59,788.78 C1887.59,787.059991 1887.47,785.310009 1887.23,783.53 C1886.99,781.749991 1886.59,780.140007 1886.03,778.7 C1885.47,777.259993 1884.75,776.090004 1883.87,775.19 C1882.99,774.289996 1881.91001,773.84 1880.63,773.84 C1879.34999,773.84 1878.27,774.289996 1877.39,775.19 C1876.51,776.090004 1875.79,777.259993 1875.23,778.7 C1874.67,780.140007 1874.26,781.749991 1874,783.53 C1873.74,785.310009 1873.61,787.099991 1873.61,788.9 C1873.61,790.580008 1873.73,792.249992 1873.97,793.91 C1874.21,795.570008 1874.61,797.039994 1875.17,798.32 C1875.73,799.600006 1876.45,800.639996 1877.33,801.44 C1878.21,802.240004 1879.30999,802.64 1880.63,802.64 Z M1901.93,805.46 C1901.93,804.299994 1902.32,803.330004 1903.1,802.55 C1903.88,801.769996 1904.84999,801.38 1906.01,801.38 C1907.17001,801.38 1908.14,801.769996 1908.92,802.55 C1909.7,803.330004 1910.09,804.299994 1910.09,805.46 C1910.09,806.620006 1909.7,807.589996 1908.92,808.37 C1908.14,809.150004 1907.17001,809.54 1906.01,809.54 C1904.84999,809.54 1903.88,809.150004 1903.1,808.37 C1902.32,807.589996 1901.93,806.620006 1901.93,805.46 Z M1901.93,783.8 C1901.93,782.639994 1902.32,781.670004 1903.1,780.89 C1903.88,780.109996 1904.84999,779.72 1906.01,779.72 C1907.17001,779.72 1908.14,780.109996 1908.92,780.89 C1909.7,781.670004 1910.09,782.639994 1910.09,783.8 C1910.09,784.960006 1909.7,785.929996 1908.92,786.71 C1908.14,787.490004 1907.17001,787.88 1906.01,787.88 C1904.84999,787.88 1903.88,787.490004 1903.1,786.71 C1902.32,785.929996 1901.93,784.960006 1901.93,783.8 Z M1943.99,806.12 C1943.99,808.440012 1943.31001,809.6 1941.95,809.6 L1919.99,809.6 C1919.35,809.6 1918.78,809.130005 1918.28,808.19 C1917.78,807.249995 1917.57,806.140006 1917.65,804.86 C1917.69,804.219997 1917.8,803.570003 1917.98,802.91 C1918.16,802.249997 1918.47,801.620003 1918.91,801.02 C1919.15,800.659998 1919.74,800.070004 1920.68,799.25 C1921.62,798.429996 1922.70999,797.470005 1923.95,796.37 C1925.19001,795.269995 1926.49999,794.030007 1927.88,792.65 C1929.26001,791.269993 1930.51999,789.830007 1931.66,788.33 C1932.80001,786.829993 1933.75,785.300008 1934.51,783.74 C1935.27,782.179992 1935.65,780.620008 1935.65,779.06 C1935.65,777.579993 1935.23,776.380005 1934.39,775.46 C1933.55,774.539995 1932.43001,774.08 1931.03,774.08 C1929.46999,774.08 1928.3,774.599995 1927.52,775.64 C1926.74,776.680005 1926.35,778.15999 1926.35,780.08 C1926.35,781.360006 1926.08,782.269997 1925.54,782.81 C1925,783.350003 1924.05001,783.62 1922.69,783.62 C1921.04999,783.62 1919.95,783.380002 1919.39,782.9 C1918.83,782.419998 1918.55,781.480007 1918.55,780.08 C1918.55,776.07998 1919.62999,772.920012 1921.79,770.6 C1923.95001,768.279988 1927.26998,767.12 1931.75,767.12 C1935.51002,767.12 1938.40999,768.179989 1940.45,770.3 C1942.49001,772.420011 1943.51,775.219983 1943.51,778.7 C1943.51,780.100007 1943.27,781.509993 1942.79,782.93 C1942.31,784.350007 1941.68,785.749993 1940.9,787.13 C1940.12,788.510007 1939.23,789.849993 1938.23,791.15 C1937.22999,792.450006 1936.21001,793.679994 1935.17,794.84 C1933.92999,796.200007 1932.62001,797.529994 1931.24,798.83 C1929.85999,800.130007 1928.41001,801.399994 1926.89,802.64 L1941.95,802.64 C1943.31001,802.64 1943.99,803.799988 1943.99,806.12 Z M1964.03,767.12 C1966.67001,767.12 1968.91999,767.709994 1970.78,768.89 C1972.64001,770.070006 1974.14999,771.64999 1975.31,773.63 C1976.47001,775.61001 1977.31,777.899987 1977.83,780.5 C1978.35,783.100013 1978.61,785.839986 1978.61,788.72 C1978.61,791.600014 1978.31,794.339987 1977.71,796.94 C1977.11,799.540013 1976.21001,801.81999 1975.01,803.78 C1973.80999,805.74001 1972.29001,807.299994 1970.45,808.46 C1968.60999,809.620006 1966.45001,810.2 1963.97,810.2 C1961.48999,810.2 1959.34001,809.630006 1957.52,808.49 C1955.69999,807.349994 1954.19001,805.81001 1952.99,803.87 C1951.78999,801.92999 1950.9,799.670013 1950.32,797.09 C1949.74,794.509987 1949.45,791.780014 1949.45,788.9 C1949.45,786.019986 1949.72,783.260013 1950.26,780.62 C1950.8,777.979987 1951.64999,775.66001 1952.81,773.66 C1953.97001,771.65999 1955.47999,770.070006 1957.34,768.89 C1959.20001,767.709994 1961.42999,767.12 1964.03,767.12 Z M1964.03,802.64 C1965.31001,802.64 1966.4,802.230004 1967.3,801.41 C1968.2,800.589996 1968.92,799.520007 1969.46,798.2 C1970,796.879993 1970.39,795.400008 1970.63,793.76 C1970.87,792.119992 1970.99,790.460008 1970.99,788.78 C1970.99,787.059991 1970.87,785.310009 1970.63,783.53 C1970.39,781.749991 1969.99,780.140007 1969.43,778.7 C1968.87,777.259993 1968.15,776.090004 1967.27,775.19 C1966.39,774.289996 1965.31001,773.84 1964.03,773.84 C1962.74999,773.84 1961.67,774.289996 1960.79,775.19 C1959.91,776.090004 1959.19,777.259993 1958.63,778.7 C1958.07,780.140007 1957.66,781.749991 1957.4,783.53 C1957.14,785.310009 1957.01,787.099991 1957.01,788.9 C1957.01,790.580008 1957.13,792.249992 1957.37,793.91 C1957.61,795.570008 1958.01,797.039994 1958.57,798.32 C1959.13,799.600006 1959.85,800.639996 1960.73,801.44 C1961.61,802.240004 1962.70999,802.64 1964.03,802.64 Z M2006.09,798.44 L2003.63,805.34 C2003.43,805.900003 2003.23,806.439997 2003.03,806.96 C2002.83,807.480003 2002.6,807.959998 2002.34,808.4 C2002.08,808.840002 2001.78,809.189999 2001.44,809.45 C2001.1,809.710001 2000.71,809.84 2000.27,809.84 C1999.47,809.84 1998.85,809.590002 1998.41,809.09 C1997.97,808.589997 1997.97,807.660007 1998.41,806.3 L2011.01,769.64 C2011.21,768.999997 2011.56,768.490002 2012.06,768.11 C2012.56,767.729998 2013.21,767.54 2014.01,767.54 C2014.85,767.54 2015.53,767.729998 2016.05,768.11 C2016.57,768.490002 2016.93,768.999997 2017.13,769.64 L2029.79,806.42 C2030.11,807.380005 2030.13,808.189997 2029.85,808.85 C2029.57,809.510003 2028.91001,809.84 2027.87,809.84 C2027.19,809.88 2026.64,809.690002 2026.22,809.27 C2025.8,808.849998 2025.49,808.300003 2025.29,807.62 L2021.99,798.44 L2006.09,798.44 Z M2020.91,794.24 L2014.07,773.66 L2007.23,794.24 L2020.91,794.24 Z M2078.21,806.42 C2078.33,807.260004 2078.3,808.029997 2078.12,808.73 C2077.94,809.430003 2077.29001,809.8 2076.17,809.84 C2075.45,809.84 2074.93,809.630002 2074.61,809.21 C2074.29,808.789998 2074.05,808.080005 2073.89,807.08 L2070.41,783.14 C2070.29,782.379996 2070.14,781.440006 2069.96,780.32 C2069.78,779.199994 2069.58,778.230004 2069.36,777.41 C2069.14,776.589996 2068.9,776.060001 2068.64,775.82 C2068.38,775.579999 2068.11,775.939995 2067.83,776.9 L2058.89,807.68 C2058.69,808.440004 2058.44,808.989998 2058.14,809.33 C2057.84,809.670002 2057.37,809.84 2056.73,809.84 C2056.05,809.84 2055.57,809.690001 2055.29,809.39 C2055.01,809.089998 2054.75,808.520004 2054.51,807.68 C2052.98999,802.519974 2051.46001,797.400025 2049.92,792.32 C2048.37999,787.239975 2046.89001,782.120026 2045.45,776.96 C2045.17,775.999995 2044.88,775.52 2044.58,775.52 C2044.28,775.52 2044.05,775.999995 2043.89,776.96 L2039.45,806.96 C2039.33,807.880005 2039.1,808.589997 2038.76,809.09 C2038.42,809.590002 2037.79,809.84 2036.87,809.84 C2035.34999,809.84 2034.77,808.84001 2035.13,806.84 L2040.59,771.14 C2040.75,769.939994 2041.14,769.040003 2041.76,768.44 C2042.38,767.839997 2043.18999,767.54 2044.19,767.54 C2045.19,767.54 2046.02,767.799997 2046.68,768.32 C2047.34,768.840003 2047.87,769.759993 2048.27,771.08 L2056.79,801.14 L2065.13,771.02 C2065.49,769.739994 2066,768.840003 2066.66,768.32 C2067.32,767.799997 2068.13,767.54 2069.09,767.54 C2070.05,767.54 2070.86,767.839997 2071.52,768.44 C2072.18,769.040003 2072.61,769.959994 2072.81,771.2 L2078.21,806.42 Z" id="10:20-AM" fill="#FFFFFF"></path>
        </g>
    </g>
</svg>